SplineFontDB: 3.0
FontName: Parastoo
FullName: Parastoo
FamilyName: Parastoo
Weight: Regular
Copyright: Copyright (c) 2003 by Bitstream, Inc. All Rights Reserved.\nDejaVu changes are in public domain\nCopyright (c) 2015 by Saber Rastikerdar. All Rights Reserved.
Version: 0.5.2
ItalicAngle: 0
UnderlinePosition: -100
UnderlineWidth: 100
Ascent: 1536
Descent: 512
LayerCount: 2
Layer: 0 1 "Back"  1
Layer: 1 1 "Fore"  0
XUID: [1021 502 1027637223 7335572]
UniqueID: 4193122
UseUniqueID: 1
FSType: 0
OS2Version: 1
OS2_WeightWidthSlopeOnly: 0
OS2_UseTypoMetrics: 1
CreationTime: 1431850356
ModificationTime: 1449234752
PfmFamily: 17
TTFWeight: 400
TTFWidth: 5
LineGap: 0
VLineGap: 0
Panose: 2 11 6 3 3 8 4 2 2 4
OS2TypoAscent: 2000
OS2TypoAOffset: 0
OS2TypoDescent: -1000
OS2TypoDOffset: 0
OS2TypoLinegap: 0
OS2WinAscent: 2000
OS2WinAOffset: 0
OS2WinDescent: 1000
OS2WinDOffset: 0
HheadAscent: 2000
HheadAOffset: 0
HheadDescent: -1000
HheadDOffset: 0
OS2SubXSize: 1331
OS2SubYSize: 1433
OS2SubXOff: 0
OS2SubYOff: 286
OS2SupXSize: 1331
OS2SupYSize: 1433
OS2SupXOff: 0
OS2SupYOff: 983
OS2StrikeYSize: 102
OS2StrikeYPos: 530
OS2Vendor: 'PfEd'
OS2CodePages: 600001ff.dfff0000
Lookup: 1 0 0 "'case' Case-Sensitive Forms in Latin lookup 0"  {"'case' Case-Sensitive Forms in Latin lookup 0 subtable"  } ['case' ('DFLT' <'dflt' > 'latn' <'CAT ' 'ESP ' 'GAL ' 'dflt' > ) ]
Lookup: 6 1 0 "'ccmp' Glyph Composition/Decomposition lookup 2"  {"'ccmp' Glyph Composition/Decomposition lookup 2 subtable"  } ['ccmp' ('arab' <'KUR ' 'SND ' 'URD ' 'dflt' > 'hebr' <'dflt' > 'nko ' <'dflt' > ) ]
Lookup: 6 0 0 "'ccmp' Glyph Composition/Decomposition lookup 3"  {"'ccmp' Glyph Composition/Decomposition lookup 3 subtable"  } ['ccmp' ('cyrl' <'MKD ' 'SRB ' 'dflt' > 'grek' <'dflt' > 'latn' <'ISM ' 'KSM ' 'LSM ' 'MOL ' 'NSM ' 'ROM ' 'SKS ' 'SSM ' 'dflt' > ) ]

StartChar: afii57388
Encoding: 1548 1548 2
Width: 679
VWidth: 2156
GlyphClass: 2
Flags: W
LayerCount: 2
Fore
SplineSet
368.623 253.717 m 1,0,-1
 398.88 253.717 l 2,1,2
 481.655 253.717 481.655 253.717 481.655 153.489 c 2,3,-1
 481.655 99.2354 l 2,4,5
 481.655 2 481.655 2 399.761 2 c 2,6,-1
 324.98 2 l 2,7,8
 281.733 1.54365 281.733 1.54365 260.356 24.6842 c 128,-1,9
 238.979 47.8248 238.979 47.8248 238.979 95.2773 c 2,10,-1
 238.979 214.389 l 1,11,12
 258.578 426.365 258.578 426.365 457.182 595.803 c 1,13,-1
 514.959 566.943 l 1,14,15
 370.48 406.938 370.48 406.938 368.647 255.999 c 2,16,-1
 368.623 253.717 l 1,0,-1
EndSplineSet
EndChar

StartChar: uni0615
Encoding: 1557 1557 3
Width: 0
VWidth: 2186
GlyphClass: 4
Flags: W
AnchorPoint: "Anchor-10" 547.84 1279.5 mark 0
AnchorPoint: "Anchor-9" 547.84 1279.5 mark 0
AnchorPoint: "Anchor-1" 547.84 1975 basemark 0
AnchorPoint: "Anchor-1" 547.84 1279.5 mark 0
LayerCount: 2
Fore
SplineSet
461.916 1454.96 m 1,0,-1
 552.12 1454.96 l 2,1,2
 639.683 1454.96 639.683 1454.96 666.9 1471.04 c 0,3,4
 698.542 1490.74 698.542 1490.74 714.482 1506.89 c 0,5,6
 730.83 1523.45 730.83 1523.45 730.83 1541.65 c 0,7,8
 730.83 1584.28 730.83 1584.28 689.992 1606.69 c 0,9,-1
 689.688 1606.83 l 2,10,11
 681.495 1609.68 681.495 1609.68 672.268 1607.4 c 0,12,13
 663.451 1605.21 663.451 1605.21 639.491 1594.46 c 0,14,15
 615.748 1583.82 615.748 1583.82 601.116 1578.04 c 0,16,17
 541.822 1554.1 541.822 1554.1 481.59 1479.37 c 2,18,-1
 461.916 1454.96 l 1,0,-1
576.73 1376.89 m 2,19,-1
 284.64 1376.89 l 1,20,-1
 284.64 1454.96 l 1,21,-1
 371.31 1454.96 l 1,22,-1
 371.31 1881.89 l 1,23,-1
 450.45 1881.89 l 1,24,-1
 450.45 1489.09 l 1,25,-1
 478.903 1546.79 l 2,26,27
 514.827 1619.63 514.827 1619.63 620.59 1660.31 c 0,28,29
 682.725 1683.98 682.725 1683.98 752.251 1658.16 c 0,30,31
 812.11 1635.13 812.11 1635.13 812.11 1557.7 c 0,32,33
 812.11 1467.64 812.11 1467.64 749.42 1418.67 c 0,34,35
 695.7 1376.89 695.7 1376.89 576.73 1376.89 c 2,19,-1
EndSplineSet
EndChar

StartChar: uni061B
Encoding: 1563 1563 4
Width: 666
VWidth: 2156
GlyphClass: 2
Flags: W
LayerCount: 2
Fore
SplineSet
446.866 193.914 m 6,0,-1
 446.866 22.7432 l 6,1,2
 446.866 9.49236 446.866 9.49236 443.803 5.64127 c 4,3,4
 440.907 2 440.907 2 433.305 2 c 6,5,-1
 263.331 2 l 6,6,7
 253.331 2 253.331 2 249.797 5.93745 c 132,-1,8
 246.179 9.96905 246.179 9.96905 246.179 22.7432 c 6,9,-1
 246.179 192.717 l 6,10,11
 246.179 203.993 246.179 203.993 249.601 207.545 c 132,-1,12
 252.993 211.066 252.993 211.066 263.331 211.066 c 6,13,-1
 429.714 211.066 l 6,14,15
 440.222 211.066 440.222 211.066 443.544 207.744 c 132,-1,16
 446.866 204.422 446.866 204.422 446.866 193.914 c 6,0,-1
349.782 697.773 m 1,17,-1
 380.039 697.773 l 2,18,19
 462.815 697.773 462.815 697.773 462.815 597.546 c 2,20,-1
 462.815 543.292 l 2,21,22
 462.815 446.057 462.815 446.057 380.92 446.057 c 2,23,-1
 306.15 446.057 l 2,24,25
 220.139 446.057 220.139 446.057 220.139 539.334 c 2,26,-1
 220.139 658.445 l 1,27,28
 239.739 870.423 239.739 870.423 438.342 1039.86 c 1,29,-1
 496.118 1011 l 1,30,31
 351.374 850.7 351.374 850.7 349.803 699.794 c 2,32,-1
 349.782 697.773 l 1,17,-1
EndSplineSet
EndChar

StartChar: uni061F
Encoding: 1567 1567 5
Width: 1123
VWidth: 2150
GlyphClass: 2
Flags: W
LayerCount: 2
Fore
SplineSet
727.014 193.914 m 6,0,-1
 727.014 22.7432 l 6,1,2
 727.014 9.49205 727.014 9.49205 723.952 5.64127 c 4,3,4
 721.056 2 721.056 2 713.453 2 c 6,5,-1
 543.479 2 l 6,6,7
 533.478 2 533.478 2 529.945 5.93744 c 132,-1,8
 526.327 9.96883 526.327 9.96883 526.327 22.7432 c 6,9,-1
 526.327 192.717 l 6,10,11
 526.327 203.993 526.327 203.993 529.75 207.546 c 132,-1,12
 533.141 211.066 533.141 211.066 543.479 211.066 c 6,13,-1
 709.862 211.066 l 6,14,15
 720.37 211.066 720.37 211.066 723.692 207.744 c 132,-1,16
 727.014 204.423 727.014 204.423 727.014 193.914 c 6,0,-1
537.799 446.15 m 1,17,-1
 537.799 497.7 l 2,18,19
 537.799 552.929 537.799 552.929 534.586 585.044 c 0,20,21
 531.326 617.654 531.326 617.654 524.663 640.973 c 0,22,23
 515.577 669.363 515.577 669.363 493.891 698.833 c 0,24,25
 469.868 731.477 469.868 731.477 422.734 777.539 c 2,26,-1
 330.284 867.89 l 1,27,28
 237.207 956.83 237.207 956.83 200.363 1026.94 c 0,29,30
 163.998 1096.13 163.998 1096.13 163.998 1172.85 c 0,31,32
 163.998 1334.1 163.998 1334.1 276.778 1432.22 c 0,33,34
 390.317 1531 390.317 1531 578.849 1531 c 0,35,36
 694.733 1531 694.733 1531 784.786 1502.12 c 0,37,38
 881.205 1471.19 881.205 1471.19 958.533 1426.08 c 1,39,-1
 908.132 1292.96 l 1,40,41
 734.943 1382.77 734.943 1382.77 615.599 1383.8 c 1,42,43
 497.645 1383.8 497.645 1383.8 425.385 1323.12 c 0,44,45
 352.148 1261.62 352.148 1261.62 352.148 1162.35 c 0,46,47
 352.148 1107.72 352.148 1107.72 380.436 1055.59 c 0,48,49
 408.184 1004.44 408.184 1004.44 469.396 947.526 c 1,50,-1
 563.833 854.137 l 1,51,52
 656.576 765.513 656.576 765.513 684.968 699.605 c 128,-1,53
 713.349 633.723 713.349 633.723 713.349 530.25 c 2,54,-1
 713.349 446.15 l 1,55,-1
 537.799 446.15 l 1,17,-1
EndSplineSet
EndChar

StartChar: uni0621
Encoding: 1569 1569 6
Width: 760
VWidth: 2382
GlyphClass: 2
Flags: W
AnchorPoint: "Anchor-7" 374.066 -266.187 basechar 0
AnchorPoint: "Anchor-10" 321.199 1059.95 basechar 0
LayerCount: 2
Fore
SplineSet
81.3115 -42.1497 m 1,0,-1
 81.3115 90.6969 l 1,1,2
 250.046 137.902 250.046 137.902 349.627 194.452 c 2,3,-1
 354.513 197.227 l 1,4,-1
 348.972 198.163 l 2,5,6
 85.3154 242.726 85.3154 242.726 85.3154 467.742 c 0,7,8
 85.3154 648.958 85.3154 648.958 225.059 735.067 c 0,9,10
 364.339 820.891 364.339 820.891 580.23 773.723 c 1,11,-1
 580.23 634.127 l 1,12,13
 495.534 657.699 495.534 657.699 434.062 655.943 c 0,14,15
 381.58 654.956 381.58 654.956 329.679 629.006 c 0,16,17
 228.138 578.237 228.138 578.237 228.138 458.395 c 0,18,19
 228.138 313.821 228.138 313.821 407.948 281.017 c 0,20,21
 474.414 268.7 474.414 268.7 536.804 283.847 c 1,22,23
 635.914 310.659 635.914 310.659 657.401 320.31 c 1,24,-1
 657.401 182.638 l 1,25,26
 570.228 127.202 570.228 127.202 384.443 54.7004 c 0,27,28
 185.546 -22.7961 185.546 -22.7961 81.3115 -42.1497 c 1,0,-1
EndSplineSet
EndChar

StartChar: uni0627
Encoding: 1575 1575 12
Width: 431
VWidth: 2359
GlyphClass: 2
Flags: W
AnchorPoint: "Anchor-10" 212.835 1596.03 basechar 0
AnchorPoint: "Anchor-7" 187.025 -317.251 basechar 0
LayerCount: 2
Fore
SplineSet
298.073 1473.71 m 5,0,-1
 275.039 179.586 l 6,1,2
 271.664 -10.1157 271.664 -10.1157 192.088 -18.4856 c 6,3,-1
 183.396 -19.4002 l 5,4,-1
 132.695 1368.81 l 5,5,-1
 298.073 1473.71 l 5,0,-1
EndSplineSet
Substitution2: "'fina' Terminal Forms in Arabic lookup 9 subtable" uniFE8E
EndChar

StartChar: uni062D
Encoding: 1581 1581 18
Width: 1384
VWidth: 2380
GlyphClass: 2
Flags: W
AnchorPoint: "Anchor-10" 446.174 1314.83 basechar 0
AnchorPoint: "Anchor-7" 346.816 -838.659 basechar 0
LayerCount: 2
Fore
SplineSet
91.7256 -268.222 m 4,0,1
 40.4718 118.563 40.4718 118.563 378.747 385.771 c 4,2,3
 626.125 581.177 626.125 581.177 946.54 652.712 c 6,4,-1
 958.45 655.371 l 5,5,-1
 946.311 656.653 l 6,6,7
 884.982 663.13 884.982 663.13 756.281 729.888 c 4,8,9
 593.175 815.091 593.175 815.091 479.83 805.538 c 4,10,11
 348.62 794.479 348.62 794.479 237.73 576.006 c 5,12,-1
 224.569 576.753 l 6,13,14
 196.364 578.354 196.364 578.354 226.456 714.849 c 4,15,16
 235.715 756.844 235.715 756.844 268.221 823.846 c 4,17,18
 332.913 957.537 332.913 957.537 478.584 961.317 c 4,19,20
 624.002 965.872 624.002 965.872 858.985 824.324 c 4,21,22
 971.91 756.07 971.91 756.07 1240.13 730.293 c 5,23,-1
 1216.22 582.875 l 5,24,25
 675.119 488.843 675.119 488.843 407.747 230.771 c 4,26,27
 232.839 61.9336 232.839 61.9336 236.008 -173.717 c 4,28,29
 238.335 -347.309 238.335 -347.309 378.686 -434.905 c 4,30,31
 553.449 -544.77 553.449 -544.77 896.986 -511.623 c 4,32,33
 1139.72 -488.203 1139.72 -488.203 1292.93 -379.63 c 5,34,35
 1151 -707 1151 -707 759 -715 c 4,36,37
 446.206 -722.249 446.206 -722.249 260.784 -577.195 c 4,38,39
 117.51 -464.729 117.51 -464.729 91.7256 -268.222 c 4,0,1
EndSplineSet
Substitution2: "'fina' Terminal Forms in Arabic lookup 9 subtable" uniFEA2
Substitution2: "'medi' Medial Forms in Arabic lookup 11 subtable" uniFEA4
Substitution2: "'init' Initial Forms in Arabic lookup 13 subtable" uniFEA3
EndChar

StartChar: uni062F
Encoding: 1583 1583 20
Width: 902
VWidth: 2378
GlyphClass: 2
Flags: W
AnchorPoint: "Anchor-10" 175.838 1179.94 basechar 0
AnchorPoint: "Anchor-7" 230.512 -279.465 basechar 0
LayerCount: 2
Fore
SplineSet
688.987 339.628 m 4,0,1
 615.513 542.997 615.513 542.997 353.101 718.826 c 5,2,-1
 430.742 930.901 l 5,3,4
 696.637 702.08 696.637 702.08 769.217 493.691 c 4,5,6
 821.209 344.416 821.209 344.416 810.138 257.362 c 4,7,8
 802.185 194.823 802.185 194.823 779.371 146.173 c 4,9,10
 779.342 146.109 779.342 146.109 779.316 146.044 c 4,11,12
 706.402 -42.9971 706.402 -42.9971 324.772 -15.333 c 5,13,-1
 290.53 -11.4746 l 5,14,15
 91.1104 17.335 91.1104 17.335 91.1973 191.965 c 6,16,-1
 91.5488 328.757 l 5,17,18
 102.685 333.536 102.685 333.536 115.543 328.6 c 5,19,20
 135.089 183.575 135.089 183.575 340.8 171.112 c 4,21,22
 565.826 157.814 565.826 157.814 642.616 198.778 c 5,23,24
 717.412 237.367 717.412 237.367 689.033 339.483 c 5,25,-1
 688.987 339.628 l 4,0,1
EndSplineSet
Substitution2: "'fina' Terminal Forms in Arabic lookup 9 subtable" uniFEAA
EndChar

StartChar: uni0631
Encoding: 1585 1585 22
Width: 803
VWidth: 2383
GlyphClass: 2
Flags: W
AnchorPoint: "Anchor-7" 406.116 -788.422 basechar 0
AnchorPoint: "Anchor-10" 418.638 958.896 basechar 0
LayerCount: 2
Fore
SplineSet
490.396 385.913 m 5,0,1
 561.776 483.416 561.776 483.416 616.125 505.518 c 1,2,3
 716.253 312.811 716.253 312.811 712.222 45.4395 c 1,4,5
 659.868 -301.836 659.868 -301.836 459.327 -459.836 c 1,6,7
 281.958 -515.836 281.958 -515.836 30.2773 -458.627 c 1,8,9
 543.747 -303.407 543.747 -303.407 600.327 76.1641 c 0,10,11
 615.758 179.68 615.758 179.68 490.396 385.913 c 5,0,1
EndSplineSet
PairPos2: "'kern' Horizontal Kerning lookup 15-1" uni06CC dx=-148 dy=0 dh=-148 dv=0 dx=0 dy=0 dh=0 dv=0
PairPos2: "'kern' Horizontal Kerning lookup 15-1" uniFEEB dx=-224 dy=0 dh=-224 dv=0 dx=0 dy=0 dh=0 dv=0
PairPos2: "'kern' Horizontal Kerning lookup 15-1" uniFB7C dx=-148 dy=0 dh=-148 dv=0 dx=0 dy=0 dh=0 dv=0
PairPos2: "'kern' Horizontal Kerning lookup 15-1" uniFB58 dx=63 dy=0 dh=63 dv=0 dx=0 dy=0 dh=0 dv=0
PairPos2: "'kern' Horizontal Kerning lookup 15-1" uniFEF3 dx=63 dy=0 dh=63 dv=0 dx=0 dy=0 dh=0 dv=0
PairPos2: "'kern' Horizontal Kerning lookup 15-1" uniFBFE dx=63 dy=0 dh=63 dv=0 dx=0 dy=0 dh=0 dv=0
PairPos2: "'kern' Horizontal Kerning lookup 15-1" uniFEDF dx=-224 dy=0 dh=-224 dv=0 dx=0 dy=0 dh=0 dv=0
PairPos2: "'kern' Horizontal Kerning lookup 15-1" uniFB90 dx=-224 dy=0 dh=-224 dv=0 dx=0 dy=0 dh=0 dv=0
PairPos2: "'kern' Horizontal Kerning lookup 15-1" uni06A9 dx=-224 dy=0 dh=-224 dv=0 dx=0 dy=0 dh=0 dv=0
PairPos2: "'kern' Horizontal Kerning lookup 15-1" uni0649 dx=-148 dy=0 dh=-148 dv=0 dx=0 dy=0 dh=0 dv=0
PairPos2: "'kern' Horizontal Kerning lookup 15-1" uni0647 dx=-224 dy=0 dh=-224 dv=0 dx=0 dy=0 dh=0 dv=0
PairPos2: "'kern' Horizontal Kerning lookup 15-1" uniFEE7 dx=-224 dy=0 dh=-224 dv=0 dx=0 dy=0 dh=0 dv=0
PairPos2: "'kern' Horizontal Kerning lookup 15-1" uniFEE3 dx=-224 dy=0 dh=-224 dv=0 dx=0 dy=0 dh=0 dv=0
PairPos2: "'kern' Horizontal Kerning lookup 15-1" uni0645 dx=-224 dy=0 dh=-224 dv=0 dx=0 dy=0 dh=0 dv=0
PairPos2: "'kern' Horizontal Kerning lookup 15-1" uni0644 dx=-148 dy=0 dh=-148 dv=0 dx=0 dy=0 dh=0 dv=0
PairPos2: "'kern' Horizontal Kerning lookup 15-1" uniFEDB dx=-224 dy=0 dh=-224 dv=0 dx=0 dy=0 dh=0 dv=0
PairPos2: "'kern' Horizontal Kerning lookup 15-1" uniFED7 dx=-224 dy=0 dh=-224 dv=0 dx=0 dy=0 dh=0 dv=0
PairPos2: "'kern' Horizontal Kerning lookup 15-1" uni0642 dx=-148 dy=0 dh=-148 dv=0 dx=0 dy=0 dh=0 dv=0
PairPos2: "'kern' Horizontal Kerning lookup 15-1" uniFED3 dx=-224 dy=0 dh=-224 dv=0 dx=0 dy=0 dh=0 dv=0
PairPos2: "'kern' Horizontal Kerning lookup 15-1" uni0641 dx=-224 dy=0 dh=-224 dv=0 dx=0 dy=0 dh=0 dv=0
PairPos2: "'kern' Horizontal Kerning lookup 15-1" uniFECF dx=-224 dy=0 dh=-224 dv=0 dx=0 dy=0 dh=0 dv=0
PairPos2: "'kern' Horizontal Kerning lookup 15-1" uniFECB dx=-224 dy=0 dh=-224 dv=0 dx=0 dy=0 dh=0 dv=0
PairPos2: "'kern' Horizontal Kerning lookup 15-1" uniFEC7 dx=-224 dy=0 dh=-224 dv=0 dx=0 dy=0 dh=0 dv=0
PairPos2: "'kern' Horizontal Kerning lookup 15-1" uni0638 dx=-224 dy=0 dh=-224 dv=0 dx=0 dy=0 dh=0 dv=0
PairPos2: "'kern' Horizontal Kerning lookup 15-1" uniFEC3 dx=-224 dy=0 dh=-224 dv=0 dx=0 dy=0 dh=0 dv=0
PairPos2: "'kern' Horizontal Kerning lookup 15-1" uni0637 dx=-224 dy=0 dh=-224 dv=0 dx=0 dy=0 dh=0 dv=0
PairPos2: "'kern' Horizontal Kerning lookup 15-1" uniFEBF dx=-224 dy=0 dh=-224 dv=0 dx=0 dy=0 dh=0 dv=0
PairPos2: "'kern' Horizontal Kerning lookup 15-1" uni0636 dx=-224 dy=0 dh=-224 dv=0 dx=0 dy=0 dh=0 dv=0
PairPos2: "'kern' Horizontal Kerning lookup 15-1" uniFEBB dx=-224 dy=0 dh=-224 dv=0 dx=0 dy=0 dh=0 dv=0
PairPos2: "'kern' Horizontal Kerning lookup 15-1" uni0635 dx=-224 dy=0 dh=-224 dv=0 dx=0 dy=0 dh=0 dv=0
PairPos2: "'kern' Horizontal Kerning lookup 15-1" uniFEB7 dx=-224 dy=0 dh=-224 dv=0 dx=0 dy=0 dh=0 dv=0
PairPos2: "'kern' Horizontal Kerning lookup 15-1" uni0634 dx=-224 dy=0 dh=-224 dv=0 dx=0 dy=0 dh=0 dv=0
PairPos2: "'kern' Horizontal Kerning lookup 15-1" uniFEB3 dx=-224 dy=0 dh=-224 dv=0 dx=0 dy=0 dh=0 dv=0
PairPos2: "'kern' Horizontal Kerning lookup 15-1" uni0633 dx=-224 dy=0 dh=-224 dv=0 dx=0 dy=0 dh=0 dv=0
PairPos2: "'kern' Horizontal Kerning lookup 15-1" uni0630 dx=-224 dy=0 dh=-224 dv=0 dx=0 dy=0 dh=0 dv=0
PairPos2: "'kern' Horizontal Kerning lookup 15-1" uni062F dx=-224 dy=0 dh=-224 dv=0 dx=0 dy=0 dh=0 dv=0
PairPos2: "'kern' Horizontal Kerning lookup 15-1" uniFEA7 dx=-224 dy=0 dh=-224 dv=0 dx=0 dy=0 dh=0 dv=0
PairPos2: "'kern' Horizontal Kerning lookup 15-1" uniFEA3 dx=-224 dy=0 dh=-224 dv=0 dx=0 dy=0 dh=0 dv=0
PairPos2: "'kern' Horizontal Kerning lookup 15-1" uniFE9F dx=-224 dy=0 dh=-224 dv=0 dx=0 dy=0 dh=0 dv=0
PairPos2: "'kern' Horizontal Kerning lookup 15-1" uniFE9B dx=-224 dy=0 dh=-224 dv=0 dx=0 dy=0 dh=0 dv=0
PairPos2: "'kern' Horizontal Kerning lookup 15-1" uni062B dx=-224 dy=0 dh=-224 dv=0 dx=0 dy=0 dh=0 dv=0
PairPos2: "'kern' Horizontal Kerning lookup 15-1" uniFE97 dx=-224 dy=0 dh=-224 dv=0 dx=0 dy=0 dh=0 dv=0
PairPos2: "'kern' Horizontal Kerning lookup 15-1" uni062A dx=-224 dy=0 dh=-224 dv=0 dx=0 dy=0 dh=0 dv=0
PairPos2: "'kern' Horizontal Kerning lookup 15-1" uni0629 dx=-104 dy=0 dh=-104 dv=0 dx=0 dy=0 dh=0 dv=0
PairPos2: "'kern' Horizontal Kerning lookup 15-1" uniFE91 dx=-104 dy=0 dh=-104 dv=0 dx=0 dy=0 dh=0 dv=0
PairPos2: "'kern' Horizontal Kerning lookup 15-1" uni0628 dx=-224 dy=0 dh=-224 dv=0 dx=0 dy=0 dh=0 dv=0
PairPos2: "'kern' Horizontal Kerning lookup 15-1" uni0627 dx=-253 dy=0 dh=-253 dv=0 dx=0 dy=0 dh=0 dv=0
PairPos2: "'kern' Horizontal Kerning lookup 15-1" uni0622 dx=-253 dy=0 dh=-253 dv=0 dx=0 dy=0 dh=0 dv=0
PairPos2: "'kern' Horizontal Kerning lookup 15-1" uniFB94 dx=-224 dy=0 dh=-224 dv=0 dx=0 dy=0 dh=0 dv=0
PairPos2: "'kern' Horizontal Kerning lookup 15-1" afii57509 dx=-224 dy=0 dh=-224 dv=0 dx=0 dy=0 dh=0 dv=0
PairPos2: "'kern' Horizontal Kerning lookup 15-1" uniFB56 dx=-224 dy=0 dh=-224 dv=0 dx=0 dy=0 dh=0 dv=0
PairPos2: "'kern' Horizontal Kerning lookup 15-1" afii57506 dx=-224 dy=0 dh=-224 dv=0 dx=0 dy=0 dh=0 dv=0
Substitution2: "'fina' Terminal Forms in Arabic lookup 9 subtable" uniFEAE
EndChar

StartChar: uni0633
Encoding: 1587 1587 24
Width: 2284
VWidth: 2383
GlyphClass: 2
Flags: W
AnchorPoint: "Anchor-7" 300.282 -766.888 basechar 0
AnchorPoint: "Anchor-10" 513.988 914.333 basechar 0
LayerCount: 2
Fore
SplineSet
1481.84 -19.001 m 0,0,1
 1355.17 -22.2178 1355.17 -22.2178 1312.31 67.1289 c 0,2,3
 1308.87 74.2393 1308.87 74.2393 1304.93 82.5225 c 1,4,-1
 1308.56 65.8389 l 2,5,6
 1319 17.7949 1319 17.7949 1316.91 -20.8926 c 1,7,8
 1233.19 -514.04 1233.19 -514.04 689.401 -524.431 c 0,9,10
 308.43 -531.407 308.43 -531.407 162.527 -321.81 c 0,11,12
 48.8037 -157.124 48.8037 -157.124 110.838 91.2822 c 0,13,14
 127.216 156.859 127.216 156.859 164.073 265.376 c 0,15,16
 186.401 331.104 186.401 331.104 206.142 374.116 c 1,17,-1
 274.766 329.003 l 1,18,19
 166.457 21.8506 166.457 21.8506 236.224 -127.165 c 0,20,21
 344.338 -356.083 344.338 -356.083 685.028 -350.395 c 0,22,23
 1178.74 -342.002 1178.74 -342.002 1204.35 -21.1592 c 1,24,-1
 1066.05 406.929 l 1,25,-1
 1219.71 552.31 l 1,26,27
 1264.05 316.344 1264.05 316.344 1293.32 254.707 c 0,28,29
 1343.14 149.793 1343.14 149.793 1450.12 154.863 c 2,30,-1
 1485.43 156.542 l 1,31,32
 1597 154.918 1597 154.918 1641.09 293.955 c 0,33,34
 1658.68 349.229 1658.68 349.229 1660.46 431.943 c 1,35,36
 1665.54 488.389 1665.54 488.389 1698.9 488.667 c 0,37,38
 1740.58 489.036 1740.58 489.036 1744.66 437.631 c 1,39,-1
 1745.83 413.75 l 2,40,41
 1757.78 170.607 1757.78 170.607 1926.58 165.624 c 1,42,43
 2080.99 165.624 2080.99 165.624 2074.65 339.738 c 0,44,45
 2073.16 386.774 2073.16 386.774 1946.54 616.582 c 5,46,-1
 2094.07 750.438 l 1,47,48
 2181.47 565.994 2181.47 565.994 2192.57 390.074 c 0,49,50
 2203.74 206.067 2203.74 206.067 2114.64 85.3252 c 0,51,52
 2034.06 -23.8799 2034.06 -23.8799 1920.2 -18.4512 c 0,53,54
 1847.89 -15.0049 1847.89 -15.0049 1820.17 -1.9209 c 0,55,56
 1720.19 46.0469 1720.19 46.0469 1681.18 158.693 c 0,57,58
 1680.24 161.404 1680.24 161.404 1679.3 164.116 c 1,59,60
 1678.35 161.408 1678.35 161.408 1677.4 158.701 c 0,61,62
 1616.65 -14.5273 1616.65 -14.5273 1481.84 -19.001 c 0,0,1
EndSplineSet
Substitution2: "'fina' Terminal Forms in Arabic lookup 9 subtable" uniFEB2
Substitution2: "'medi' Medial Forms in Arabic lookup 11 subtable" uniFEB4
Substitution2: "'init' Initial Forms in Arabic lookup 13 subtable" uniFEB3
EndChar

StartChar: uni0635
Encoding: 1589 1589 26
Width: 2443
VWidth: 2384
GlyphClass: 2
Flags: W
AnchorPoint: "Anchor-10" 394.818 915.73 basechar 0
AnchorPoint: "Anchor-7" 355.863 -807.193 basechar 0
LayerCount: 2
Fore
SplineSet
1549.38 165.054 m 1,0,-1
 1752.64 165.054 l 2,1,2
 1952.34 165.054 1952.34 165.054 2107.55 216.63 c 1,3,4
 2237.25 258.276 2237.25 258.276 2230.89 412.229 c 0,5,6
 2229.7 444.744 2229.7 444.744 2223.82 471.008 c 0,7,8
 2192.73 609.852 2192.73 609.852 2031.82 573.516 c 0,9,10
 1941.5 553.12 1941.5 553.12 1802.2 425.768 c 0,11,12
 1655.1 291.274 1655.1 291.274 1552.13 168.338 c 2,13,-1
 1549.38 165.054 l 1,0,-1
1219.81 552.31 m 1,14,15
 1221.14 553.57 1221.14 553.57 1222.47 554.83 c 2,16,-1
 1219.7 552.882 l 2,17,18
 1219.76 552.596 1219.76 552.596 1219.81 552.31 c 1,14,15
1219.81 552.31 m 1,19,20
 1267.98 296.069 1267.98 296.069 1293.54 254.503 c 0,21,22
 1348.28 168.201 1348.28 168.201 1440.97 187.782 c 2,23,-1
 1441.74 187.944 l 1,24,-1
 1442.19 188.585 l 2,25,26
 1643.54 473.59 1643.54 473.59 1738.05 566.299 c 1,27,28
 1926.05 747.389 1926.05 747.389 2094.36 735.659 c 0,29,30
 2336.61 719.285 2336.61 719.285 2351.77 439.947 c 0,31,32
 2367.17 166.262 2367.17 166.262 2157.57 60.6943 c 0,33,34
 1996.94 -20.2129 1996.94 -20.2129 1816.96 -19.7461 c 2,35,-1
 1528.7 -19 l 2,36,37
 1375.62 -18.6045 1375.62 -18.6045 1312.22 67.4502 c 2,38,-1
 1306.67 74.9873 l 1,39,-1
 1308.66 65.8389 l 2,40,41
 1319.1 17.7949 1319.1 17.7949 1317.01 -20.8926 c 1,42,43
 1233.29 -514.04 1233.29 -514.04 689.501 -524.431 c 0,44,45
 308.528 -531.407 308.528 -531.407 162.627 -321.81 c 0,46,47
 48.9033 -157.125 48.9033 -157.125 110.938 91.2822 c 0,48,49
 127.328 156.909 127.328 156.909 164.173 265.376 c 0,50,51
 190.896 344.045 190.896 344.045 204.06 373.871 c 1,52,-1
 270.092 320.312 l 1,53,54
 168.311 18.1123 168.311 18.1123 236.324 -127.166 c 0,55,56
 344.438 -356.083 344.438 -356.083 685.129 -350.395 c 0,57,58
 1178.84 -342.002 1178.84 -342.002 1204.45 -21.1592 c 1,59,-1
 1066.15 406.929 l 1,60,-1
 1219.81 552.31 l 1,19,20
EndSplineSet
Substitution2: "'fina' Terminal Forms in Arabic lookup 9 subtable" uniFEBA
Substitution2: "'medi' Medial Forms in Arabic lookup 11 subtable" uniFEBC
Substitution2: "'init' Initial Forms in Arabic lookup 13 subtable" uniFEBB
EndChar

StartChar: uni0637
Encoding: 1591 1591 28
Width: 1312
VWidth: 2384
GlyphClass: 2
Flags: W
AnchorPoint: "Anchor-10" 301.669 1578.79 basechar 0
AnchorPoint: "Anchor-7" 676.855 -354.486 basechar 0
LayerCount: 2
Fore
SplineSet
291.662 166.248 m 2,0,1
 328.141 215.234 328.141 215.234 348.71 241.102 c 0,2,3
 353.115 245.416 353.115 245.416 345.272 492.863 c 1,4,5
 340.901 765.654 340.901 765.654 328.238 1030.13 c 0,6,7
 316.019 1285.41 316.019 1285.41 302.986 1370.07 c 1,8,-1
 464.279 1474.72 l 1,9,-1
 463.604 396.375 l 1,10,-1
 467.214 401.251 l 2,11,12
 554.316 518.852 554.316 518.852 605.743 566.915 c 1,13,14
 793.789 748.014 793.789 748.014 962.062 736.286 c 0,15,16
 1205.41 719.912 1205.41 719.912 1220.53 440.572 c 0,17,18
 1235.93 166.896 1235.93 166.896 1025.28 61.3213 c 0,19,20
 865.961 -18.9297 865.961 -18.9297 684.661 -19.1201 c 2,21,-1
 396.412 -19.4238 l 1,22,-1
 213.337 -18.8516 l 2,23,24
 55.7314 -18.3584 55.7314 -18.3584 55.7314 151.2 c 2,25,-1
 55.7314 164.91 l 1,26,-1
 291.064 165.445 l 1,27,-1
 291.662 166.248 l 2,0,1
417.092 165.68 m 1,28,-1
 620.351 165.68 l 2,29,30
 814.604 165.68 814.604 165.68 975.253 217.255 c 0,31,32
 1104.93 258.901 1104.93 258.901 1098.59 412.855 c 0,33,34
 1097.4 445.38 1097.4 445.38 1091.52 471.635 c 0,35,36
 1060.43 610.475 1060.43 610.475 899.536 574.142 c 0,37,38
 809.21 553.744 809.21 553.744 669.921 426.396 c 0,39,40
 522.847 291.929 522.847 291.929 419.843 168.964 c 2,41,-1
 417.092 165.68 l 1,28,-1
EndSplineSet
Substitution2: "'fina' Terminal Forms in Arabic lookup 9 subtable" uniFEC2
Substitution2: "'medi' Medial Forms in Arabic lookup 11 subtable" uniFEC4
Substitution2: "'init' Initial Forms in Arabic lookup 13 subtable" uniFEC3
EndChar

StartChar: uni0639
Encoding: 1593 1593 30
Width: 1427
VWidth: 2380
GlyphClass: 2
Flags: W
AnchorPoint: "Anchor-10" 402.018 1497.09 basechar 0
AnchorPoint: "Anchor-7" 299.7 -816.038 basechar 0
LayerCount: 2
Fore
SplineSet
91.2432 -219.519 m 4,0,1
 53.6474 195.649 53.6474 195.649 406.557 438.902 c 6,2,-1
 409.402 440.863 l 5,3,-1
 406.285 442.354 l 6,4,5
 131.965 573.573 131.965 573.573 196.39 858.383 c 4,6,7
 235.214 1031.98 235.214 1031.98 412.391 1087.91 c 4,8,9
 560.236 1134.75 560.236 1134.75 696.74 1087.93 c 4,10,11
 768.363 1063.44 768.363 1063.44 801.564 1026.76 c 5,12,-1
 809.207 877.54 l 5,13,14
 688.98 965.218 688.98 965.218 542.205 955.54 c 4,15,16
 348.137 942.743 348.137 942.743 325.793 768.824 c 4,17,18
 307.196 617.85 307.196 617.85 499.989 509.158 c 6,19,-1
 500.718 508.747 l 5,20,-1
 501.522 508.978 l 6,21,22
 735.407 576.171 735.407 576.171 940.14 593.351 c 5,23,-1
 911.472 431.579 l 5,24,25
 591.146 416.224 591.146 416.224 428.851 291.967 c 4,26,27
 221.321 131.828 221.321 131.828 225.519 -124.947 c 4,28,29
 229.067 -344.941 229.067 -344.941 410.273 -447.331 c 4,30,31
 570.259 -538.24 570.259 -538.24 886.027 -513.611 c 4,32,33
 1151.54 -492.772 1151.54 -492.772 1335.79 -360.555 c 5,34,35
 1287.69 -649.499 1287.69 -649.499 950.274 -703.024 c 4,36,37
 731.869 -737.671 731.869 -737.671 533.271 -694.645 c 4,38,39
 125.651 -606.682 125.651 -606.682 91.2432 -219.519 c 4,0,1
EndSplineSet
Substitution2: "'fina' Terminal Forms in Arabic lookup 9 subtable" uniFECA
Substitution2: "'medi' Medial Forms in Arabic lookup 11 subtable" uniFECC
Substitution2: "'init' Initial Forms in Arabic lookup 13 subtable" uniFECB
EndChar

StartChar: afii57440
Encoding: 1600 1600 32
Width: 694
VWidth: 2400
GlyphClass: 2
Flags: W
AnchorPoint: "Anchor-10" 337.05 1397.45 basechar 0
AnchorPoint: "Anchor-7" 337.05 -150.738 basechar 0
LayerCount: 2
Fore
SplineSet
-9.4072 -19.0732 m 1,0,-1
 -9.4072 165.001 l 1,1,-1
 703.457 165.001 l 1,2,-1
 703.457 -19.0732 l 1,3,-1
 -9.4072 -19.0732 l 1,0,-1
EndSplineSet
EndChar

StartChar: uni0643
Encoding: 1603 1603 35
Width: 1795
VWidth: 2359
GlyphClass: 2
Flags: W
AnchorPoint: "Anchor-10" 487.275 1488.25 basechar 0
AnchorPoint: "Anchor-7" 522.054 -316.15 basechar 0
LayerCount: 2
Fore
SplineSet
1499.06 1359.49 m 5,0,-1
 1664.36 1464.35 l 5,1,-1
 1664.36 430.602 l 5,2,-1
 1661.42 370.263 l 5,3,4
 1656.29 297.959 1656.29 297.959 1642.73 262.159 c 4,5,6
 1612.88 183.396 1612.88 183.396 1530.14 124.552 c 4,7,8
 1383.09 20.5283 1383.09 20.5283 1226.49 4.29883 c 4,9,10
 1011.02 -18.0352 1011.02 -18.0352 967.731 -19.5918 c 4,11,12
 478.916 -37.1729 478.916 -37.1729 284.478 64.4316 c 4,13,14
 85.1904 168.568 85.1904 168.568 91.8682 479.387 c 4,15,16
 94.6748 611.109 94.6748 611.109 148.264 716.357 c 5,17,-1
 208.62 716.206 l 5,18,19
 192.634 642.562 192.634 642.562 186.014 582.971 c 4,20,21
 180.515 533.476 180.515 533.476 182.555 476.181 c 4,22,23
 191.151 234.411 191.151 234.411 570.851 180.438 c 4,24,25
 674.132 165.758 674.132 165.758 1005.43 165.131 c 4,26,27
 1114.36 164.996 1114.36 164.996 1197.64 178.838 c 4,28,29
 1520.48 234.521 1520.48 234.521 1536.25 408.117 c 4,30,-1
 1536.26 408.232 l 5,31,-1
 1538.19 467.501 l 6,32,33
 1542.22 590.989 1542.22 590.989 1524.31 1019.58 c 5,34,35
 1512.08 1274.89 1512.08 1274.89 1499.06 1359.49 c 5,0,-1
1051.07 1293.78 m 5,36,-1
 1051.07 1239.96 l 5,37,38
 974.381 1234.1 974.381 1234.1 931.987 1218.47 c 4,39,40
 822.412 1177.39 822.412 1177.39 822.412 1122.83 c 4,41,42
 822.412 1081.91 822.412 1081.91 843.609 1054.66 c 4,43,44
 863.225 1028.51 863.225 1028.51 953.188 1015.27 c 4,45,46
 1007.56 1007.28 1007.56 1007.28 1034.86 982.35 c 4,47,48
 1061.39 958.11 1061.39 958.11 1061.39 914.412 c 4,49,50
 1061.39 808.622 1061.39 808.622 963.119 753.047 c 4,51,52
 886.914 709.95 886.914 709.95 782.519 708.982 c 4,53,54
 717.036 708.982 717.036 708.982 659.261 718.459 c 5,55,-1
 659.261 779.54 l 5,56,57
 725.584 770.906 725.584 770.906 771.8 770.906 c 4,58,59
 855.442 770.906 855.442 770.906 909.46 792.173 c 4,60,61
 1004.63 828.723 1004.63 828.723 1004.63 890.594 c 4,62,63
 1004.63 960.842 1004.63 960.842 893.926 977.71 c 4,64,65
 831.369 987.242 831.369 987.242 797.612 1021.77 c 132,-1,66
 763.888 1056.26 763.888 1056.26 765.245 1118.71 c 4,67,68
 767.305 1202 767.305 1202 844.865 1241.31 c 4,69,70
 933.06 1285.94 933.06 1285.94 1051.07 1293.78 c 5,36,-1
EndSplineSet
Substitution2: "'fina' Terminal Forms in Arabic lookup 9 subtable" uniFEDA
Substitution2: "'medi' Medial Forms in Arabic lookup 11 subtable" uniFEDC
Substitution2: "'init' Initial Forms in Arabic lookup 13 subtable" uniFEDB
EndChar

StartChar: uni0644
Encoding: 1604 1604 36
Width: 1450
VWidth: 2359
GlyphClass: 2
Flags: W
AnchorPoint: "Anchor-10" 595.331 1037.46 basechar 0
AnchorPoint: "Anchor-7" 408.396 -646.678 basechar 0
LayerCount: 2
Fore
SplineSet
1211.53 152.671 m 5,0,1
 1214.1 207.982 1214.1 207.982 1179.82 1028.53 c 5,2,3
 1167.58 1283.95 1167.58 1283.95 1154.57 1368.45 c 5,4,-1
 1319.87 1473.31 l 5,5,-1
 1319.87 387.963 l 6,6,7
 1319.87 12.8193 1319.87 12.8193 1316.44 -17.2715 c 5,8,9
 1232.59 -511.625 1232.59 -511.625 689.283 -521.575 c 4,10,11
 308.312 -528.553 308.312 -528.553 162.411 -318.955 c 4,12,13
 48.6865 -154.27 48.6865 -154.27 110.721 94.1367 c 4,14,15
 127.111 159.77 127.111 159.77 163.956 268.229 c 4,16,17
 186.28 333.954 186.28 333.954 206.081 377.097 c 5,18,-1
 275.6 337.198 l 5,19,20
 164.646 26.9717 164.646 26.9717 236.237 -124.587 c 4,21,22
 344.223 -353.236 344.223 -353.236 684.91 -347.538 c 4,23,24
 1176.35 -339.213 1176.35 -339.213 1203.16 -10.999 c 4,25,26
 1205.75 23.3516 1205.75 23.3516 1206.8 51.1504 c 4,27,28
 1210.93 147.804 1210.93 147.804 1211.48 152.307 c 6,29,-1
 1211.52 152.431 l 5,30,-1
 1211.53 152.671 l 5,0,1
EndSplineSet
Substitution2: "'fina' Terminal Forms in Arabic lookup 9 subtable" uniFEDE
Substitution2: "'medi' Medial Forms in Arabic lookup 11 subtable" uniFEE0
Substitution2: "'init' Initial Forms in Arabic lookup 13 subtable" uniFEDF
EndChar

StartChar: uni0645
Encoding: 1605 1605 37
Width: 1081
VWidth: 2402
GlyphClass: 2
Flags: W
AnchorPoint: "Anchor-10" 580.073 1101.72 basechar 0
AnchorPoint: "Anchor-7" 216.1 -770.589 basechar 0
LayerCount: 2
Fore
SplineSet
774.646 299.698 m 5,0,1
 809.227 297.315 809.227 297.315 829.354 303.577 c 4,2,3
 867.676 315.501 867.676 315.501 854.422 357.6 c 4,4,5
 801.97 524.396 801.97 524.396 669.296 595.818 c 5,6,7
 552.981 657.264 552.981 657.264 474.273 560.583 c 6,8,-1
 474.092 560.36 l 5,9,10
 415.097 476.087 415.097 476.087 429.322 314.122 c 6,11,-1
 429.478 312.363 l 5,12,-1
 774.646 299.698 l 5,0,1
377.532 149.101 m 4,13,14
 260.963 149.101 260.963 149.101 227.225 74 c 4,15,16
 195.438 -0.312327 195.438 -0.312327 216.171 -147.83 c 4,17,18
 278.255 -577.69 l 5,19,-1
 144.701 -686.582 l 5,20,-1
 91.4941 -107.594 l 6,21,22
 77.7127 42.3727 77.7127 42.3727 120.12 155.444 c 132,-1,23
 162.527 268.515 162.527 268.515 286.442 289.901 c 6,24,-1
 293.04 291.04 l 5,25,-1
 292.709 297.729 l 6,26,27
 280.474 544.915 280.474 544.915 406.325 681.655 c 4,28,29
 567.442 855.233 567.442 855.233 783.768 690.027 c 4,30,31
 964.44 552.71 964.44 552.71 989.59 309.59 c 4,32,33
 999.366 215.041 999.366 215.041 917.365 147.474 c 4,34,35
 902.862 135.523 902.862 135.523 682.139 142.418 c 4,36,37
 482.836 149.1 482.836 149.1 377.532 149.101 c 4,13,14
EndSplineSet
Substitution2: "'init' Initial Forms in Arabic lookup 13 subtable" uniFEE3
Substitution2: "'medi' Medial Forms in Arabic lookup 11 subtable" uniFEE4
Substitution2: "'fina' Terminal Forms in Arabic lookup 9 subtable" uniFEE2
EndChar

StartChar: uni0647
Encoding: 1607 1607 39
Width: 892
VWidth: 2379
GlyphClass: 2
Flags: W
AnchorPoint: "Anchor-10" 343.269 1233.46 basechar 0
AnchorPoint: "Anchor-7" 303.919 -250.102 basechar 0
LayerCount: 2
Fore
SplineSet
229.741 340.93 m 0,0,1
 191.321 201.666 191.321 201.666 337.921 154.834 c 0,2,3
 449.516 118.445 449.516 118.445 548.812 151.013 c 0,4,5
 558.994 154.285 558.994 154.285 568.139 158.121 c 0,6,7
 690.843 209.604 690.843 209.604 627.145 361.33 c 0,8,9
 570.859 495.282 570.859 495.282 423.354 618.429 c 2,10,-1
 421.878 619.661 l 1,11,-1
 420.588 618.233 l 2,12,13
 254.614 434.536 254.614 434.536 229.741 340.93 c 0,0,1
151.085 467.397 m 1,14,15
 219.599 593.605 219.599 593.605 355.725 713.956 c 2,16,-1
 357.487 715.514 l 1,17,-1
 326.516 740.817 l 1,18,-1
 403.66 882.233 l 1,19,20
 697.348 626.75 697.348 626.75 771.117 426.277 c 0,21,22
 860.678 183.671 860.678 183.671 700.084 47.4658 c 0,23,24
 619.613 -20.7852 619.613 -20.7852 455.378 -19.2461 c 0,25,26
 292.325 -17.7539 292.325 -17.7539 222.066 24.1768 c 0,27,28
 109.267 89.8926 109.267 89.8926 91.1943 188.77 c 0,29,30
 67.5137 316.022 67.5137 316.022 151.085 467.397 c 1,14,15
EndSplineSet
Substitution2: "'fina' Terminal Forms in Arabic lookup 9 subtable" uniFEEA
Substitution2: "'medi' Medial Forms in Arabic lookup 11 subtable" uniFEEC
Substitution2: "'init' Initial Forms in Arabic lookup 13 subtable" uniFEEB
EndChar

StartChar: uni0648
Encoding: 1608 1608 40
Width: 790
VWidth: 2401
GlyphClass: 2
Flags: W
AnchorPoint: "Anchor-10" 351.726 1076.28 basechar 0
AnchorPoint: "Anchor-7" 269.389 -770.803 basechar 0
LayerCount: 2
Fore
SplineSet
411.677 432.641 m 1,0,1
 295.569 430.273 295.569 430.273 272.182 285.02 c 0,2,3
 256.554 191.184 256.554 191.184 332.116 160.549 c 0,4,5
 434.198 119.164 434.198 119.164 589.756 168.332 c 2,6,-1
 591.124 168.765 l 1,7,-1
 591.152 170.199 l 2,8,9
 592.784 253.22 592.784 253.22 562.629 319.523 c 0,10,11
 511.526 433.644 511.526 433.644 411.677 432.641 c 1,0,1
395.118 -21.0801 m 0,12,13
 272.078 -7.82324 272.078 -7.82324 214.715 81.5898 c 0,14,15
 163.649 161.314 163.649 161.314 176.172 279.184 c 0,16,17
 194.853 466.336 194.853 466.336 295.494 563.604 c 0,18,19
 350.724 616.979 350.724 616.979 449.325 608.614 c 0,20,21
 520.479 602.222 520.479 602.222 590.82 523.165 c 0,22,23
 675.927 429.077 675.927 429.077 697.084 255.464 c 1,24,25
 717.571 78.5811 717.571 78.5811 698.674 -23.9951 c 0,26,27
 642.098 -317.18 642.098 -317.18 458.562 -458.932 c 5,28,29
 310.353 -511.18 310.353 -511.18 30.2188 -457.549 c 1,30,31
 516.662 -293.18 516.662 -293.18 575.777 -8.97559 c 1,32,33
 490.766 -31.1553 490.766 -31.1553 395.118 -21.0801 c 0,12,13
EndSplineSet
Substitution2: "'fina' Terminal Forms in Arabic lookup 9 subtable" uniFEEE
EndChar

StartChar: uni0649
Encoding: 1609 1609 41
Width: 1498
VWidth: 2398
GlyphClass: 2
Flags: W
AnchorPoint: "Anchor-10" 437.439 1051.17 basechar 0
AnchorPoint: "Anchor-7" 209.907 -627.29 basechar 0
LayerCount: 2
Fore
SplineSet
1351.41 -147.471 m 1,0,1
 1138.13 -396.794 1138.13 -396.794 729.882 -419.053 c 0,2,3
 160.865 -450.077 160.865 -450.077 91.6377 -99.3809 c 1,4,5
 61.1143 62.9932 61.1143 62.9932 115.533 256.05 c 0,6,7
 140.264 343.777 140.264 343.777 214.939 530.349 c 0,8,9
 236.161 583.37 236.161 583.37 262.208 630.312 c 1,10,-1
 333.995 595.206 l 1,11,12
 275.824 447.071 275.824 447.071 263.02 407.69 c 0,13,14
 246.376 356.493 246.376 356.493 227.193 268.421 c 0,15,16
 178.485 46.1602 178.485 46.1602 258.467 -85.0234 c 0,17,18
 375.518 -277.02 375.518 -277.02 793.151 -243.493 c 0,19,20
 1059.58 -222.105 1059.58 -222.105 1192.29 -142.407 c 0,21,22
 1238.74 -114.064 1238.74 -114.064 1265.43 -83.6689 c 0,23,24
 1284.61 -61.7305 1284.61 -61.7305 1290.49 -44.749 c 0,25,26
 1297.49 -24.4736 1297.49 -24.4736 1280.36 -2.6084 c 0,27,28
 1249.49 36.3311 1249.49 36.3311 1121.67 25.2275 c 0,29,30
 948.697 10.6475 948.697 10.6475 861.465 82.2236 c 1,31,32
 750.591 171.402 750.591 171.402 829.809 370.961 c 0,33,34
 960.51 699.397 960.51 699.397 1195.02 720.581 c 0,35,36
 1359.85 736.041 1359.85 736.041 1372.31 574.033 c 2,37,-1
 1373.99 552.154 l 1,38,39
 1137.99 578.194 1137.99 578.194 1027.92 452.824 c 0,40,41
 937.419 350.352 937.419 350.352 945.607 233.258 c 0,42,43
 951.122 159.766 951.122 159.766 1121.26 161.289 c 0,44,45
 1244.29 163.08 1244.29 163.08 1313.57 128.12 c 0,46,47
 1402.29 82.4375 1402.29 82.4375 1406.44 -0.523438 c 0,48,49
 1407.57 -23.0078 1407.57 -23.0078 1404.07 -37.8828 c 0,50,51
 1390.81 -98.6494 1390.81 -98.6494 1351.41 -147.471 c 1,0,1
EndSplineSet
Substitution2: "'fina' Terminal Forms in Arabic lookup 9 subtable" uniFEF0
Substitution2: "'medi' Medial Forms in Arabic lookup 11 subtable" uniFBE9
Substitution2: "'init' Initial Forms in Arabic lookup 13 subtable" uniFBE8
EndChar

StartChar: uni064B
Encoding: 1611 1611 43
Width: 0
VWidth: 2186
GlyphClass: 4
Flags: W
AnchorPoint: "Anchor-10" 547.84 1041.5 mark 0
AnchorPoint: "Anchor-9" 547.84 1041.5 mark 0
AnchorPoint: "Anchor-1" 547.84 1576.5 basemark 0
AnchorPoint: "Anchor-1" 547.84 1041.5 mark 0
LayerCount: 2
Fore
SplineSet
271.4 980.389 m 1,0,-1
 271.4 1103.14 l 1,1,-1
 825.28 1329.81 l 1,2,-1
 825.28 1207.06 l 1,3,-1
 271.4 980.389 l 1,0,-1
271.4 1237.19 m 1,4,-1
 271.4 1359.94 l 1,5,-1
 825.28 1586.61 l 1,6,-1
 825.28 1463.86 l 1,7,-1
 271.4 1237.19 l 1,4,-1
EndSplineSet
EndChar

StartChar: uni064C
Encoding: 1612 1612 44
Width: 0
VWidth: 2186
GlyphClass: 4
Flags: W
AnchorPoint: "Anchor-10" 554.386 1155.44 mark 0
AnchorPoint: "Anchor-9" 554.386 1155.44 mark 0
AnchorPoint: "Anchor-1" 546.386 1810.94 basemark 0
AnchorPoint: "Anchor-1" 554.386 1155.44 mark 0
LayerCount: 2
Fore
SplineSet
670.422 1480.2 m 1,0,-1
 682.154 1507.57 l 2,1,2
 692.996 1532.87 692.996 1532.87 692.996 1561.63 c 0,3,4
 692.996 1605.09 692.996 1605.09 669.342 1624.56 c 0,5,6
 646.999 1642.97 646.999 1642.97 620.217 1642.97 c 0,7,8
 591.103 1642.97 591.103 1642.97 574.659 1630.22 c 0,9,10
 549.576 1611.34 549.576 1611.34 549.576 1574.47 c 0,11,12
 549.576 1524.73 549.576 1524.73 607.155 1501.69 c 0,13,14
 629.155 1492.89 629.155 1492.89 657.534 1484.17 c 2,15,-1
 670.422 1480.2 l 1,0,-1
568.602 1297.27 m 0,16,17
 610.027 1337.58 610.027 1337.58 633.634 1384.8 c 2,18,-1
 642.31 1402.15 l 1,19,20
 641.044 1402.42 641.044 1402.42 639.779 1402.69 c 2,21,-1
 623.328 1406.18 l 2,22,23
 590.272 1413.18 590.272 1413.18 567.491 1426.07 c 0,24,25
 459.736 1482.94 459.736 1482.94 459.736 1574.47 c 0,26,27
 459.736 1660.08 459.736 1660.08 527.565 1711.2 c 0,28,29
 553.526 1730.67 553.526 1730.67 615.937 1730.67 c 0,30,31
 687.944 1730.67 687.944 1730.67 726.337 1693.23 c 0,32,33
 780.696 1639.87 780.696 1639.87 780.696 1561.63 c 0,34,35
 780.696 1522.21 780.696 1522.21 768.553 1483.75 c 2,36,-1
 762.716 1465.28 l 1,37,-1
 782.07 1464.26 l 2,38,39
 802.18 1463.2 802.18 1463.2 817.802 1463.17 c 0,40,41
 830.147 1462.5 830.147 1462.5 843.826 1462.24 c 1,42,-1
 843.826 1374.45 l 1,43,44
 805.727 1374.75 805.727 1374.75 788.572 1376.47 c 2,45,-1
 722.005 1382.87 l 1,46,-1
 717.697 1372.77 l 2,47,48
 690.955 1310.03 690.955 1310.03 612.685 1228.63 c 1,49,50
 526.206 1141.14 526.206 1141.14 431.896 1141.14 c 0,51,52
 320.421 1141.14 320.421 1141.14 264.083 1296.08 c 0,53,54
 250.078 1334.35 250.078 1334.35 249.012 1440.7 c 1,55,-1
 315.318 1440.7 l 1,56,57
 316.285 1346.36 316.285 1346.36 329.495 1317.74 c 0,58,59
 370.988 1228.84 370.988 1228.84 431.896 1228.84 c 0,60,61
 497.884 1228.84 497.884 1228.84 568.602 1297.27 c 0,16,17
EndSplineSet
EndChar

StartChar: uni064D
Encoding: 1613 1613 45
Width: 0
VWidth: 2186
GlyphClass: 4
Flags: W
AnchorPoint: "Anchor-7" 531.84 75.5 mark 0
AnchorPoint: "Anchor-6" 531.84 75.5 mark 0
AnchorPoint: "Anchor-0" 547.84 -439.5 basemark 0
AnchorPoint: "Anchor-0" 531.84 75.5 mark 0
LayerCount: 2
Fore
SplineSet
272.96 -509.201 m 1,0,-1
 272.96 -386.452 l 1,1,-1
 826.84 -159.779 l 1,2,-1
 826.84 -282.528 l 1,3,-1
 272.96 -509.201 l 1,0,-1
272.96 -252.401 m 1,4,-1
 272.96 -129.652 l 1,5,-1
 826.84 97.0205 l 1,6,-1
 826.84 -25.7278 l 1,7,-1
 272.96 -252.401 l 1,4,-1
EndSplineSet
EndChar

StartChar: uni064E
Encoding: 1614 1614 46
Width: 0
VWidth: 2186
GlyphClass: 4
Flags: W
AnchorPoint: "Anchor-10" 517.84 1279.5 mark 0
AnchorPoint: "Anchor-9" 517.84 1279.5 mark 0
AnchorPoint: "Anchor-1" 517.84 1600.5 basemark 0
AnchorPoint: "Anchor-1" 517.84 1279.5 mark 0
LayerCount: 2
Fore
SplineSet
239.4 1240.39 m 1,0,-1
 239.4 1363.14 l 1,1,-1
 793.28 1589.81 l 1,2,-1
 793.28 1467.06 l 1,3,-1
 239.4 1240.39 l 1,0,-1
EndSplineSet
EndChar

StartChar: uni064F
Encoding: 1615 1615 47
Width: 0
VWidth: 2186
GlyphClass: 4
Flags: W
AnchorPoint: "Anchor-10" 531.84 1205.5 mark 0
AnchorPoint: "Anchor-9" 531.84 1205.5 mark 0
AnchorPoint: "Anchor-1" 547.84 1825 basemark 0
AnchorPoint: "Anchor-1" 531.84 1205.5 mark 0
LayerCount: 2
Fore
SplineSet
595.802 1428.58 m 2,0,1
 587.29 1430.47 587.29 1430.47 568.655 1440.28 c 0,2,3
 461.19 1496 461.19 1496 461.19 1588.53 c 0,4,5
 461.19 1674.14 461.19 1674.14 529.019 1725.26 c 0,6,7
 554.982 1744.73 554.982 1744.73 617.39 1744.73 c 0,8,9
 689.398 1744.73 689.398 1744.73 727.791 1707.29 c 0,10,11
 782.15 1653.93 782.15 1653.93 782.15 1575.69 c 0,12,13
 782.15 1543.74 782.15 1543.74 767.847 1497.75 c 2,14,-1
 762.152 1479.45 l 1,15,-1
 781.29 1478.32 l 2,16,17
 799.725 1477.24 799.725 1477.24 819.203 1476.7 c 0,18,19
 831.335 1476.36 831.335 1476.36 845.28 1476.23 c 1,20,-1
 845.28 1388.55 l 1,21,22
 816.15 1388.91 816.15 1388.91 789.588 1390.57 c 0,23,24
 757.693 1392.7 757.693 1392.7 728.127 1395.87 c 2,25,-1
 719.355 1396.8 l 1,26,-1
 718.677 1395.84 l 1,27,-1
 714.27 1389.59 l 2,28,29
 670.055 1326.86 670.055 1326.86 598.832 1283.51 c 0,30,31
 399.097 1160.69 399.097 1160.69 250.4 1154.44 c 1,32,-1
 250.4 1242.07 l 1,33,34
 410.533 1247.57 410.533 1247.57 556.014 1361.65 c 0,35,36
 581.485 1381.58 581.485 1381.58 602.585 1403.78 c 2,37,-1
 620.846 1423.02 l 1,38,-1
 595.802 1428.58 l 2,0,1
671.876 1494.26 m 1,39,-1
 683.608 1521.63 l 2,40,41
 694.45 1546.93 694.45 1546.93 694.45 1575.69 c 0,42,43
 694.45 1619.15 694.45 1619.15 670.796 1638.62 c 0,44,45
 648.453 1657.03 648.453 1657.03 621.67 1657.03 c 0,46,47
 592.557 1657.03 592.557 1657.03 576.113 1644.28 c 0,48,49
 551.03 1625.4 551.03 1625.4 551.03 1588.53 c 0,50,51
 551.03 1538.79 551.03 1538.79 608.609 1515.75 c 0,52,53
 630.608 1506.96 630.608 1506.96 658.988 1498.23 c 2,54,-1
 671.876 1494.26 l 1,39,-1
EndSplineSet
EndChar

StartChar: uni0650
Encoding: 1616 1616 48
Width: 0
VWidth: 2186
GlyphClass: 4
Flags: W
AnchorPoint: "Anchor-7" 467.84 -12.5 mark 0
AnchorPoint: "Anchor-6" 467.84 -12.5 mark 0
AnchorPoint: "Anchor-0" 556.84 -311.5 basemark 0
AnchorPoint: "Anchor-0" 467.84 -12.5 mark 0
LayerCount: 2
Fore
SplineSet
269.96 -353.857 m 1,0,-1
 269.96 -231.109 l 1,1,-1
 823.84 -4.43554 l 1,2,-1
 823.84 -127.184 l 1,3,-1
 269.96 -353.857 l 1,0,-1
EndSplineSet
EndChar

StartChar: uni0651
Encoding: 1617 1617 49
Width: 0
VWidth: 2186
GlyphClass: 4
Flags: W
AnchorPoint: "Anchor-10" 547.84 1316.5 mark 0
AnchorPoint: "Anchor-9" 547.84 1316.5 mark 0
AnchorPoint: "Anchor-1" 535.84 1818.5 basemark 0
AnchorPoint: "Anchor-1" 547.84 1316.5 mark 0
LayerCount: 2
Fore
SplineSet
398.724 1307.99 m 0,0,1
 307.391 1304.96 307.391 1304.96 262.785 1357.2 c 0,2,3
 229 1396.97 229 1396.97 229 1486.07 c 0,4,5
 229 1526.86 229 1526.86 243.939 1624.56 c 1,6,-1
 320.73 1624.56 l 1,7,8
 305.674 1481.93 305.674 1481.93 305.674 1479 c 0,9,10
 305.674 1392.95 305.674 1392.95 398.801 1391.09 c 0,11,12
 498.986 1389.12 498.986 1389.12 508.261 1518.4 c 0,13,14
 510.168 1544.78 510.168 1544.78 510.397 1678.83 c 1,15,-1
 587.05 1678.83 l 1,16,17
 586.788 1623.86 586.788 1623.86 587.341 1597.47 c 0,18,19
 592.913 1446.94 592.913 1446.94 700.879 1450.09 c 1,20,21
 792.177 1451.31 792.177 1451.31 785.672 1604.08 c 0,22,23
 781.305 1708.91 781.305 1708.91 776.685 1768.1 c 1,24,-1
 855.974 1768.1 l 1,25,26
 866.68 1693.12 866.68 1693.12 866.68 1580.87 c 0,27,28
 866.68 1504.73 866.68 1504.73 842.021 1450.82 c 0,29,30
 803.677 1366.83 803.677 1366.83 713.742 1362.49 c 0,31,32
 612.424 1357.53 612.424 1357.53 556.441 1432.29 c 2,33,-1
 554.049 1435.48 l 1,34,-1
 552.922 1431.66 l 2,35,36
 517.661 1311.97 517.661 1311.97 398.724 1307.99 c 0,0,1
EndSplineSet
EndChar

StartChar: uni0652
Encoding: 1618 1618 50
Width: 0
VWidth: 2186
GlyphClass: 4
Flags: W
AnchorPoint: "Anchor-10" 565.84 1128.5 mark 0
AnchorPoint: "Anchor-9" 565.84 1128.5 mark 0
AnchorPoint: "Anchor-1" 551.84 1702 basemark 0
AnchorPoint: "Anchor-1" 565.84 1128.5 mark 0
LayerCount: 2
Fore
SplineSet
676.569 1383.62 m 0,0,1
 676.569 1428.98 676.569 1428.98 644.853 1460.69 c 128,-1,2
 613.14 1492.41 613.14 1492.41 567.126 1492.41 c 0,3,4
 520.454 1492.41 520.454 1492.41 489.071 1461.02 c 128,-1,5
 457.685 1429.64 457.685 1429.64 457.685 1383.62 c 0,6,7
 457.685 1336.95 457.685 1336.95 489.071 1305.57 c 128,-1,8
 520.454 1274.18 520.454 1274.18 567.126 1274.18 c 0,9,10
 613.143 1274.18 613.143 1274.18 644.853 1305.9 c 128,-1,11
 676.569 1337.61 676.569 1337.61 676.569 1383.62 c 0,0,1
748.396 1383.73 m 128,-1,13
 748.396 1307.7 748.396 1307.7 695.897 1254.87 c 128,-1,14
 643.429 1202.07 643.429 1202.07 567.436 1202.07 c 128,-1,15
 491.444 1202.07 491.444 1202.07 438.976 1254.87 c 128,-1,16
 386.476 1307.7 386.476 1307.7 386.476 1383.73 c 128,-1,17
 386.476 1459.73 386.476 1459.73 438.951 1512.22 c 128,-1,18
 491.421 1564.69 491.421 1564.69 567.436 1564.69 c 128,-1,19
 643.451 1564.69 643.451 1564.69 695.921 1512.22 c 128,-1,12
 748.396 1459.73 748.396 1459.73 748.396 1383.73 c 128,-1,13
EndSplineSet
EndChar

StartChar: uni0653
Encoding: 1619 1619 51
Width: 0
VWidth: 2186
GlyphClass: 4
Flags: W
AnchorPoint: "Anchor-10" 442.84 1264.52 mark 0
AnchorPoint: "Anchor-9" 442.84 1264.52 mark 0
AnchorPoint: "Anchor-1" 442.84 1600.5 basemark 0
AnchorPoint: "Anchor-1" 442.84 1264.52 mark 0
LayerCount: 2
Fore
SplineSet
202.251 1393.66 m 0,0,1
 252.726 1434.26 252.726 1434.26 336.467 1415.15 c 0,2,3
 433.625 1392.97 433.625 1392.97 528.915 1414.05 c 0,4,5
 599.273 1429.61 599.273 1429.61 622.383 1465.34 c 2,6,-1
 626.609 1471.88 l 1,7,-1
 631.245 1443.49 l 2,8,9
 636.474 1411.46 636.474 1411.46 612.817 1375.11 c 0,10,11
 595.815 1349.95 595.815 1349.95 561.65 1333.82 c 0,12,13
 499.925 1306.06 499.925 1306.06 297.884 1328.57 c 0,14,15
 244.921 1334.54 244.921 1334.54 184.841 1252.37 c 2,16,-1
 181.704 1248.08 l 1,17,-1
 177.04 1259.22 l 2,18,19
 141.293 1344.62 141.293 1344.62 202.251 1393.66 c 0,0,1
EndSplineSet
EndChar

StartChar: uni0657
Encoding: 1623 1623 54
Width: 0
VWidth: 2186
GlyphClass: 4
Flags: W
AnchorPoint: "Anchor-10" 547.84 1279.5 mark 0
AnchorPoint: "Anchor-9" 547.84 1279.5 mark 0
AnchorPoint: "Anchor-1" 547.84 1975 basemark 0
AnchorPoint: "Anchor-1" 547.84 1279.5 mark 0
LayerCount: 2
Fore
SplineSet
500.654 1673.61 m 2,0,1
 508.38 1671.9 508.38 1671.9 527.024 1662.09 c 0,2,3
 634.49 1606.36 634.49 1606.36 634.49 1513.83 c 0,4,5
 634.49 1428.21 634.49 1428.21 566.66 1377.1 c 0,6,7
 540.699 1357.63 540.699 1357.63 478.29 1357.63 c 0,8,9
 406.283 1357.63 406.283 1357.63 367.888 1395.07 c 0,10,11
 313.53 1448.43 313.53 1448.43 313.53 1526.67 c 0,12,13
 313.53 1558.64 313.53 1558.64 327.833 1604.61 c 2,14,-1
 333.527 1622.91 l 1,15,-1
 314.389 1624.04 l 2,16,17
 295.956 1625.12 295.956 1625.12 276.476 1625.66 c 0,18,19
 264.344 1626 264.344 1626 250.4 1626.13 c 1,20,-1
 250.4 1713.81 l 1,21,22
 279.53 1713.45 279.53 1713.45 306.093 1711.79 c 0,23,24
 337.904 1709.67 337.904 1709.67 367.554 1706.5 c 2,25,-1
 376.326 1705.56 l 1,26,-1
 381.41 1712.77 l 2,27,28
 425.626 1775.5 425.626 1775.5 496.849 1818.85 c 0,29,30
 696.592 1941.67 696.592 1941.67 845.28 1947.92 c 1,31,-1
 845.28 1860.29 l 1,32,33
 685.146 1854.79 685.146 1854.79 539.665 1740.71 c 0,34,35
 514.18 1720.76 514.18 1720.76 493.095 1698.58 c 2,36,-1
 474.836 1679.36 l 1,37,-1
 500.654 1673.61 l 2,0,1
423.805 1608.1 m 1,38,-1
 412.073 1580.73 l 2,39,40
 401.23 1555.43 401.23 1555.43 401.23 1526.67 c 0,41,42
 401.23 1483.22 401.23 1483.22 424.883 1463.74 c 0,43,44
 447.23 1445.33 447.23 1445.33 474.01 1445.33 c 0,45,46
 503.122 1445.33 503.122 1445.33 519.569 1458.08 c 0,47,48
 544.65 1476.96 544.65 1476.96 544.65 1513.83 c 0,49,50
 544.65 1563.57 544.65 1563.57 487.071 1586.61 c 0,51,52
 465.089 1595.4 465.089 1595.4 436.693 1604.13 c 2,53,-1
 423.805 1608.1 l 1,38,-1
EndSplineSet
EndChar

StartChar: uni065A
Encoding: 1626 1626 55
Width: 1149
VWidth: 2295
GlyphClass: 4
Flags: W
AnchorPoint: "Anchor-10" 575.232 1343.47 mark 0
AnchorPoint: "Anchor-9" 575.232 1343.47 mark 0
AnchorPoint: "Anchor-1" 572.985 1849.05 basemark 0
AnchorPoint: "Anchor-1" 575.232 1343.47 mark 0
LayerCount: 2
Fore
SplineSet
500.968 1428.78 m 1,0,-1
 300.608 1763.74 l 1,1,-1
 420.802 1763.74 l 1,2,-1
 575.232 1532.09 l 1,3,-1
 729.661 1763.74 l 1,4,-1
 849.856 1763.74 l 1,5,-1
 649.494 1428.78 l 1,6,-1
 500.968 1428.78 l 1,0,-1
EndSplineSet
EndChar

StartChar: afii57392
Encoding: 1632 1632 56
Width: 1255
VWidth: 2266
GlyphClass: 2
Flags: W
LayerCount: 2
Fore
SplineSet
517.142 560.393 m 128,-1,1
 517.142 514.389 517.142 514.389 550.103 481.428 c 128,-1,2
 583.064 448.467 583.064 448.467 629.067 448.467 c 128,-1,3
 675.073 448.467 675.073 448.467 708.032 481.428 c 128,-1,4
 740.994 514.39 740.994 514.39 740.994 560.393 c 128,-1,5
 740.994 606.394 740.994 606.394 708.032 639.356 c 128,-1,6
 675.072 672.319 675.072 672.319 629.067 672.319 c 128,-1,7
 583.066 672.319 583.066 672.319 550.103 639.356 c 128,-1,0
 517.142 606.393 517.142 606.393 517.142 560.393 c 128,-1,1
368.95 557.09 m 128,-1,9
 368.95 666.505 368.95 666.505 446.196 744.203 c 128,-1,10
 523.386 821.847 523.386 821.847 632.044 821.847 c 128,-1,11
 740.704 821.847 740.704 821.847 817.894 744.203 c 128,-1,12
 895.139 666.503 895.139 666.503 895.139 557.09 c 128,-1,13
 895.139 447.666 895.139 447.666 817.894 369.976 c 128,-1,14
 740.698 292.336 740.698 292.336 632.044 292.336 c 128,-1,15
 523.385 292.336 523.385 292.336 446.196 369.976 c 128,-1,8
 368.95 447.674 368.95 447.674 368.95 557.09 c 128,-1,9
EndSplineSet
EndChar

StartChar: afii57393
Encoding: 1633 1633 57
Width: 1255
VWidth: 2264
GlyphClass: 2
Flags: W
LayerCount: 2
Fore
SplineSet
669.426 -33.5713 m 2,0,-1
 651.471 -39.5223 l 1,1,2
 610.431 727.828 610.431 727.828 415.485 1254.84 c 1,3,-1
 542.883 1410.82 l 1,4,5
 753.444 976.987 753.444 976.987 751.869 194.889 c 0,6,7
 751.476 -6.37554 751.476 -6.37554 669.426 -33.5713 c 2,0,-1
EndSplineSet
EndChar

StartChar: afii57394
Encoding: 1634 1634 58
Width: 1255
VWidth: 2121
GlyphClass: 2
Flags: W
LayerCount: 2
Fore
SplineSet
291.41 1412.45 m 1,0,1
 336.14 1302.85 336.14 1302.85 370.551 1236.11 c 0,2,3
 453.152 1077.02 453.152 1077.02 606.697 1060.43 c 0,4,5
 860.306 1032.53 860.306 1032.53 921.727 1258.57 c 0,6,7
 940.632 1328.14 940.632 1328.14 956.018 1410.09 c 1,8,-1
 1067.55 1374.39 l 1,9,10
 1066.67 1313.18 1066.67 1313.18 1036.43 1199.07 c 0,11,12
 953.443 885.995 953.443 885.995 659.068 872.686 c 0,13,14
 563.938 868.379 563.938 868.379 505.106 887.191 c 2,15,-1
 501.332 888.398 l 1,16,-1
 502.603 884.645 l 2,17,18
 587.165 634.796 587.165 634.796 586.311 239.692 c 0,19,20
 585.763 -9.89018 585.763 -9.89018 507.053 -30.6353 c 2,21,-1
 474.61 -39.1859 l 1,22,23
 466.011 410.857 466.011 410.857 356.174 808.142 c 0,24,25
 319.543 939.901 319.543 939.901 156.537 1310.34 c 1,26,-1
 291.41 1412.45 l 1,0,1
EndSplineSet
EndChar

StartChar: afii57395
Encoding: 1635 1635 59
Width: 1255
VWidth: 2121
GlyphClass: 2
Flags: W
LayerCount: 2
Fore
SplineSet
451.663 887.011 m 2,0,1
 537.242 637.022 537.242 637.022 536.391 241.043 c 0,2,3
 535.839 -10.2783 535.839 -10.2783 455.076 -31.5631 c 2,4,-1
 422.634 -40.1145 l 1,5,6
 414.006 409.968 414.006 409.968 304.196 808.236 c 0,7,8
 267.562 940.003 267.562 940.003 104.559 1310.43 c 1,9,-1
 239.433 1412.54 l 1,10,11
 272.59 1331.43 272.59 1331.43 318.547 1236.24 c 0,12,13
 393.082 1081.87 393.082 1081.87 502.784 1064.07 c 0,14,15
 587.101 1050.37 587.101 1050.37 637.289 1092.59 c 0,16,17
 699.349 1144.78 699.349 1144.78 699.647 1340.13 c 1,18,-1
 794.293 1364.35 l 1,19,20
 796.771 1178.11 796.771 1178.11 808.499 1147.93 c 0,21,22
 841.871 1061.25 841.871 1061.25 926.275 1060.43 c 1,23,24
 1042 1060.71 1042 1060.71 1069.59 1196 c 0,25,26
 1087.95 1285.3 1087.95 1285.3 1086.03 1421.15 c 1,27,-1
 1207.56 1396.71 l 1,28,29
 1210.06 1256.52 1210.06 1256.52 1182.2 1132.46 c 0,30,31
 1129.8 897.481 1129.8 897.481 960.159 885.628 c 0,32,33
 821.07 875.268 821.07 875.268 754.509 1005.33 c 2,34,-1
 752.513 1009.23 l 1,35,-1
 750.874 1005.17 l 2,36,37
 704.106 889.203 704.106 889.203 552.57 874.755 c 0,38,39
 518.702 871.528 518.702 871.528 454.093 889.585 c 2,40,-1
 450.431 890.609 l 1,41,-1
 451.663 887.011 l 2,0,1
EndSplineSet
EndChar

StartChar: afii57396
Encoding: 1636 1636 60
Width: 1255
VWidth: 2261
GlyphClass: 2
Flags: W
LayerCount: 2
Fore
SplineSet
797.342 1225.96 m 1,0,1
 655.282 1263.89 655.282 1263.89 555.611 1231.35 c 0,2,3
 555.546 1231.33 555.546 1231.33 555.481 1231.3 c 0,4,5
 417.959 1175.59 417.959 1175.59 428.174 1037.69 c 0,6,7
 436.848 919.69 436.848 919.69 591.398 861.185 c 0,8,9
 633.527 845.229 633.527 845.229 782.345 830.193 c 1,10,11
 816.577 772.994 816.577 772.994 815.05 687.335 c 1,12,13
 646.945 659.792 646.945 659.792 517.634 582.537 c 0,14,15
 380.484 500.598 380.484 500.598 374.828 400.459 c 0,16,17
 372.864 368.908 372.864 368.908 376.593 341.534 c 0,18,19
 406.954 118.661 406.954 118.661 812.585 174.104 c 0,20,21
 901.125 186.3 901.125 186.3 1033.33 248.832 c 1,22,-1
 1021.45 176.152 l 2,23,24
 1003.31 65.1841 1003.31 65.1841 849.899 25.2245 c 0,25,26
 793.355 10.4952 793.355 10.4952 724.756 6.02604 c 0,27,28
 287.301 -22.4826 287.301 -22.4826 225.807 273.527 c 0,29,30
 188.202 457.218 188.202 457.218 299.385 591.669 c 0,31,32
 392.174 703.881 392.174 703.881 548.6 751.67 c 2,33,-1
 556.034 753.941 l 1,34,-1
 548.427 755.54 l 2,35,36
 297.425 808.295 297.425 808.295 272.024 1004.84 c 0,37,38
 239.461 1249.91 239.461 1249.91 446.643 1340.24 c 0,39,40
 513.227 1369.27 513.227 1369.27 588.139 1372.57 c 0,41,42
 691 1376.59 691 1376.59 776.888 1354.43 c 1,43,44
 791.401 1330.03 791.401 1330.03 797.342 1225.96 c 1,0,1
EndSplineSet
EndChar

StartChar: afii57397
Encoding: 1637 1637 61
Width: 1255
VWidth: 2263
GlyphClass: 2
Flags: W
LayerCount: 2
Fore
SplineSet
378.48 773.512 m 1,0,1
 298.301 639.525 298.301 639.525 291.542 498.072 c 0,2,3
 283.319 325.978 283.319 325.978 381.361 247.626 c 0,4,5
 472.031 175.151 472.031 175.151 650.137 174.363 c 0,6,7
 849.56 173.478 849.56 173.478 918.153 287.534 c 0,8,9
 975.804 384.972 975.804 384.972 963.72 529.192 c 0,10,11
 950.507 695.439 950.507 695.439 821.111 849.533 c 0,12,13
 718.693 971.735 718.693 971.735 603.443 1032.23 c 2,14,-1
 602.284 1032.84 l 1,15,-1
 601.262 1032.02 l 2,16,17
 466.829 924.149 466.829 924.149 378.48 773.512 c 1,0,1
524.425 1294.86 m 1,18,19
 630.412 1234.41 630.412 1234.41 762.158 1117.43 c 0,20,21
 902.352 992.963 902.352 992.963 980.336 863.898 c 1,22,23
 1078.92 704.456 1078.92 704.456 1086.82 513.626 c 0,24,25
 1097.9 267.991 1097.9 267.991 997.429 155.449 c 0,26,27
 878.681 21.1052 878.681 21.1052 629.501 22.1289 c 1,28,29
 376.667 22.1289 376.667 22.1289 261.689 155.312 c 0,30,31
 142.969 293.754 142.969 293.754 168.326 513.111 c 0,32,33
 188.882 688.981 188.882 688.981 271.145 839.372 c 0,34,35
 365.184 1011.97 365.184 1011.97 486.151 1117.9 c 2,36,-1
 488.166 1119.66 l 1,37,-1
 452.784 1142 l 1,38,-1
 524.425 1294.86 l 1,18,19
EndSplineSet
EndChar

StartChar: afii57398
Encoding: 1638 1638 62
Width: 1255
VWidth: 2263
GlyphClass: 2
Flags: W
LayerCount: 2
Fore
SplineSet
927.213 1345.77 m 1,0,1
 928.492 1066.47 928.492 1066.47 970.158 686.313 c 0,2,3
 1004.36 374.251 1004.36 374.251 1106.07 -38.2646 c 1,4,-1
 1072.11 -38.2646 l 2,5,6
 925.843 -38.2646 925.843 -38.2646 884.686 180.513 c 0,7,8
 833.428 448.048 833.428 448.048 811.083 690.573 c 0,9,10
 777.481 1048.12 777.481 1048.12 776.397 1126.05 c 2,11,-1
 776.004 1154.3 l 1,12,-1
 748.878 1146.39 l 2,13,14
 650.119 1117.61 650.119 1117.61 491.769 1117.61 c 0,15,16
 372.048 1117.61 372.048 1117.61 259.007 1133.95 c 0,17,18
 100.539 1156.26 100.539 1156.26 100.539 1293.46 c 2,19,-1
 100.539 1344.86 l 1,20,21
 297.962 1293.46 297.962 1293.46 478.989 1293.46 c 0,22,23
 698.033 1293.46 698.033 1293.46 927.213 1345.77 c 1,0,1
EndSplineSet
EndChar

StartChar: afii57399
Encoding: 1639 1639 63
Width: 1255
VWidth: 2264
GlyphClass: 2
Flags: W
LayerCount: 2
Fore
SplineSet
963.75 1367.34 m 1,0,-1
 1074.66 1229.68 l 1,1,2
 901.586 974.523 901.586 974.523 827.346 657.787 c 0,3,4
 718.056 185.664 718.056 185.664 687.813 -30.6084 c 1,5,-1
 555.014 -30.6084 l 1,6,7
 552.47 119.846 552.47 119.846 422.172 637.388 c 0,8,9
 343.838 948.531 343.838 948.531 151.604 1229.63 c 1,10,-1
 271.672 1367.46 l 1,11,12
 422.889 1178.44 422.889 1178.44 539.158 758.522 c 0,13,14
 603.778 525.138 603.778 525.138 618.793 368.91 c 1,15,-1
 622.778 368.943 l 1,16,17
 631.714 481.643 631.714 481.643 705.507 759.033 c 0,18,19
 815.143 1171.16 815.143 1171.16 963.75 1367.34 c 1,0,-1
EndSplineSet
EndChar

StartChar: afii57400
Encoding: 1640 1640 64
Width: 1255
VWidth: 2264
GlyphClass: 2
Flags: W
LayerCount: 2
Fore
SplineSet
963.75 -28.3653 m 1,0,1
 813.234 170.298 813.234 170.298 705.509 579.922 c 0,2,3
 632.932 857.331 632.932 857.331 622.777 980.526 c 1,4,-1
 618.795 980.573 l 1,5,6
 599.686 800.719 599.686 800.719 539.158 580.441 c 0,7,8
 422.891 160.529 422.891 160.529 271.672 -28.4919 c 1,9,-1
 151.605 109.325 l 1,10,11
 343.841 390.44 343.841 390.44 422.173 701.574 c 0,12,13
 552.597 1220.04 552.597 1220.04 555.016 1369.58 c 1,14,-1
 687.823 1369.58 l 1,15,16
 726.319 1104.99 726.319 1104.99 827.349 681.163 c 0,17,18
 903.519 361.626 903.519 361.626 1074.66 109.279 c 1,19,-1
 963.75 -28.3653 l 1,0,1
EndSplineSet
EndChar

StartChar: afii57401
Encoding: 1641 1641 65
Width: 1255
VWidth: 2264
GlyphClass: 2
Flags: W
LayerCount: 2
Fore
SplineSet
604.984 620.476 m 0,0,1
 330.072 637.421 330.072 637.421 222.22 763.253 c 0,2,3
 134.924 866.281 134.924 866.281 134.924 984.25 c 0,4,5
 134.924 1152.09 134.924 1152.09 235.564 1262.46 c 0,6,7
 351.045 1389.13 351.045 1389.13 538.878 1389.13 c 0,8,9
 706.98 1389.13 706.98 1389.13 792.421 1306.75 c 0,10,11
 920.565 1182.1 920.565 1182.1 935.547 980.956 c 0,12,13
 947.457 820.142 947.457 820.142 968.105 649.578 c 0,14,15
 1008.71 304.748 1008.71 304.748 1097.7 -40.4473 c 1,16,-1
 1078.59 -40.4473 l 2,17,18
 940.215 -40.4473 940.215 -40.4473 890.448 209.781 c 0,19,20
 865.361 335.915 865.361 335.915 825.821 619.852 c 2,21,-1
 825.562 621.713 l 1,22,-1
 823.688 621.57 l 2,23,24
 717.597 613.479 717.597 613.479 604.984 620.476 c 0,0,1
807.822 790.328 m 1,25,-1
 800.536 897.433 l 2,26,27
 790.708 1041.91 790.708 1041.91 748.159 1106.22 c 1,28,29
 664.082 1224.3 664.082 1224.3 538.542 1224.3 c 0,30,31
 438.288 1224.3 438.288 1224.3 365.954 1154.53 c 0,32,33
 298.872 1089.83 298.872 1089.83 294.46 994.233 c 0,34,35
 290.106 907.03 290.106 907.03 362.832 843.747 c 0,36,37
 400.507 810.965 400.507 810.965 496.165 794.196 c 0,38,39
 629.956 770.734 629.956 770.734 805.915 790.118 c 2,40,-1
 807.822 790.328 l 1,25,-1
EndSplineSet
EndChar

StartChar: afii57381
Encoding: 1642 1642 66
Width: 1177
VWidth: 2186
GlyphClass: 2
Flags: W
LayerCount: 2
Fore
SplineSet
457.39 1287.05 m 2,0,-1
 457.39 1158.05 l 2,1,2
 457.39 1123.05 457.39 1123.05 429.39 1123.04 c 2,3,-1
 302.391 1123.05 l 2,4,5
 270.39 1123.05 270.39 1123.05 270.39 1159.05 c 2,6,-1
 270.39 1287.05 l 2,7,8
 270.39 1317.05 270.39 1317.05 306.39 1317.05 c 2,9,-1
 421.39 1317.05 l 2,10,11
 457.39 1317.05 457.39 1317.05 457.39 1287.05 c 2,0,-1
909.192 233.849 m 2,12,-1
 909.192 104.849 l 2,13,14
 909.192 69.8477 909.192 69.8477 881.192 69.8477 c 2,15,-1
 754.192 69.8477 l 2,16,17
 722.192 69.8477 722.192 69.8477 722.192 105.848 c 2,18,-1
 722.192 233.849 l 2,19,20
 722.192 263.848 722.192 263.848 758.192 263.848 c 2,21,-1
 873.192 263.848 l 2,22,23
 909.192 263.848 909.192 263.848 909.192 233.849 c 2,12,-1
872.25 1370.81 m 1,24,-1
 980.303 1315.14 l 1,25,-1
 300.167 2.73976 l 1,26,-1
 192.675 61.812 l 1,27,-1
 872.25 1370.81 l 1,24,-1
EndSplineSet
EndChar

StartChar: uni066B
Encoding: 1643 1643 67
Width: 711
VWidth: 2186
GlyphClass: 2
Flags: W
LayerCount: 2
Fore
SplineSet
444.346 500.131 m 1,0,-1
 565.334 499.229 l 1,1,2
 340.456 113.258 340.456 113.258 128.896 -228.25 c 1,3,-1
 5.16701 -226.551 l 1,4,5
 100.063 -73.9085 100.063 -73.9085 444.346 500.131 c 1,0,-1
EndSplineSet
EndChar

StartChar: uni066C
Encoding: 1644 1644 68
Width: 696
VWidth: 2186
GlyphClass: 2
Flags: W
LayerCount: 2
Fore
SplineSet
293.2 1578.01 m 1,0,-1
 488.97 1578.01 l 1,1,-1
 488.97 1434 l 1,2,-1
 319.336 1104.04 l 1,3,-1
 209.804 1104.04 l 1,4,-1
 293.2 1428.48 l 1,5,-1
 293.2 1578.01 l 1,0,-1
EndSplineSet
EndChar

StartChar: afii63167
Encoding: 1645 1645 69
Width: 1194
VWidth: 2186
GlyphClass: 2
Flags: W
LayerCount: 2
Fore
SplineSet
139.026 792.63 m 1,0,-1
 488.081 792.63 l 1,1,-1
 597.061 1124.43 l 1,2,-1
 706.039 792.63 l 1,3,-1
 1055.1 792.63 l 1,4,-1
 773.103 586.484 l 1,5,-1
 880.997 255.023 l 1,6,-1
 597.061 460.197 l 1,7,-1
 313.123 255.023 l 1,8,-1
 421.017 586.484 l 1,9,-1
 139.026 792.63 l 1,0,-1
EndSplineSet
EndChar

StartChar: uni066E
Encoding: 1646 1646 70
Width: 1694
VWidth: 2383
GlyphClass: 2
Flags: W
AnchorPoint: "Anchor-10" 715.642 1126.35 basechar 0
AnchorPoint: "Anchor-7" 459.653 -276.595 basechar 0
LayerCount: 2
Fore
SplineSet
1379.83 653.26 m 5,0,-1
 1527.19 786.966 l 1,1,2
 1591.84 591.289 1591.84 591.289 1602.87 415.087 c 0,3,4
 1617.68 178.654 1617.68 178.654 1495.69 106.062 c 0,5,6
 1366.54 29.4766 1366.54 29.4766 1135.64 -1.44238 c 0,7,8
 1027.35 -15.8701 1027.35 -15.8701 969.972 -17.582 c 0,9,10
 479.782 -37.4756 479.782 -37.4756 284.478 64.4316 c 0,11,12
 85.1904 168.568 85.1904 168.568 91.8682 479.387 c 0,13,14
 94.6602 610.401 94.6602 610.401 147.912 715.666 c 1,15,-1
 203.104 687.347 l 1,16,17
 192.816 649.222 192.816 649.222 186.009 582.925 c 1,18,19
 181.56 521.791 181.56 521.791 182.554 476.195 c 0,20,21
 191.766 217.037 191.766 217.037 570.939 180.429 c 0,22,23
 720.413 165.997 720.413 165.997 1009.29 168.69 c 1,24,25
 1161.25 174.194 1161.25 174.194 1245.99 191.002 c 0,26,27
 1381.75 217.93 1381.75 217.93 1465.32 263.479 c 0,28,29
 1528.14 298.428 1528.14 298.428 1492.1 392.402 c 1,30,-1
 1379.83 653.26 l 5,0,-1
EndSplineSet
Substitution2: "'init' Initial Forms in Arabic lookup 13 subtable" uni066E.init
Substitution2: "'medi' Medial Forms in Arabic lookup 11 subtable" uni066E.medi
Substitution2: "'fina' Terminal Forms in Arabic lookup 9 subtable" uni066E.fina
EndChar

StartChar: uni066F
Encoding: 1647 1647 71
Width: 1429
VWidth: 2401
GlyphClass: 2
Flags: W
AnchorPoint: "Anchor-10" 323.138 1129.65 basechar 0
AnchorPoint: "Anchor-7" 461.151 -705.124 basechar 0
LayerCount: 2
Fore
SplineSet
1049.66 531.2 m 1,0,1
 935.848 528.879 935.848 528.879 910.174 383.587 c 0,2,3
 892.799 282.033 892.799 282.033 972.148 255.582 c 0,4,5
 1083.03 218.622 1083.03 218.622 1227.77 266.9 c 2,6,-1
 1229.11 267.348 l 1,7,-1
 1229.14 268.759 l 2,8,9
 1230.78 351.768 1230.78 351.768 1200.62 418.083 c 0,10,11
 1149.51 532.205 1149.51 532.205 1049.66 531.2 c 1,0,1
1322.38 -29.8408 m 0,12,13
 1214.91 -461.282 1214.91 -461.282 661.884 -472.524 c 0,14,15
 306.303 -479.416 306.303 -479.416 161.686 -277.97 c 0,16,17
 42.7109 -113.363 42.7109 -113.363 110.024 165.552 c 0,18,19
 133.671 263.536 133.671 263.536 159.056 339.632 c 0,20,21
 180.022 401.45 180.022 401.45 206.331 468.713 c 1,22,-1
 285.063 424.366 l 1,23,24
 158.825 107.539 158.825 107.539 235.36 -83.248 c 0,25,26
 317.716 -291.378 317.716 -291.378 645.285 -298.188 c 0,27,28
 1178.66 -309.275 1178.66 -309.275 1219.86 86.5439 c 2,29,-1
 1220.16 89.4229 l 1,30,-1
 1217.06 88.6055 l 2,31,32
 1136.84 67.5752 1136.84 67.5752 1033.08 77.4814 c 0,33,34
 911.098 89.1289 911.098 89.1289 852.705 180.147 c 0,35,36
 801.638 259.874 801.638 259.874 814.159 377.729 c 0,37,38
 834.182 566.189 834.182 566.189 933.484 662.162 c 0,39,40
 988.713 715.538 988.713 715.538 1087.31 707.174 c 0,41,42
 1158.46 700.778 1158.46 700.778 1228.81 621.724 c 0,43,44
 1313.91 527.65 1313.91 527.65 1335.07 354.01 c 0,45,46
 1362.22 131.248 1362.22 131.248 1322.38 -29.8408 c 0,12,13
EndSplineSet
Substitution2: "'init' Initial Forms in Arabic lookup 13 subtable" uni066F.init
Substitution2: "'medi' Medial Forms in Arabic lookup 11 subtable" uni066F.medi
Substitution2: "'fina' Terminal Forms in Arabic lookup 9 subtable" uni066F.fina
EndChar

StartChar: uni0670
Encoding: 1648 1648 72
Width: 0
VWidth: 2186
GlyphClass: 4
Flags: W
AnchorPoint: "Anchor-10" 547.84 1279.5 mark 0
AnchorPoint: "Anchor-9" 547.84 1279.5 mark 0
AnchorPoint: "Anchor-1" 547.84 1884 basemark 0
AnchorPoint: "Anchor-1" 547.84 1279.5 mark 0
LayerCount: 2
Fore
SplineSet
527.887 1329.81 m 1,0,-1
 504.051 1780.58 l 1,1,-1
 591.69 1832.19 l 1,2,-1
 591.69 1329.81 l 1,3,-1
 527.887 1329.81 l 1,0,-1
EndSplineSet
EndChar

StartChar: uni0674
Encoding: 1652 1652 73
Width: 639
VWidth: 2186
GlyphClass: 2
Flags: W
LayerCount: 2
Fore
SplineSet
145.54 1513.67 m 1,0,-1
 260.506 1540.2 l 1,1,-1
 255.134 1542.64 l 2,2,3
 147.68 1591.5 147.68 1591.5 147.68 1692.52 c 0,4,5
 147.68 1764.89 147.68 1764.89 207.315 1817.49 c 0,6,7
 257.742 1861.48 257.742 1861.48 343 1862 c 0,8,9
 409.565 1862 409.565 1862 460.08 1832.66 c 1,10,-1
 460.08 1759.96 l 1,11,12
 391.561 1791.91 391.561 1791.91 336.842 1786.29 c 0,13,14
 224.701 1774.86 224.701 1774.86 218.267 1701.25 c 0,15,16
 210.514 1611.48 210.514 1611.48 329.581 1575.42 c 0,17,18
 365.845 1564.43 365.845 1564.43 482.55 1591.18 c 1,19,-1
 482.55 1513 l 1,20,-1
 145.54 1437.34 l 1,21,-1
 145.54 1513.67 l 1,0,-1
EndSplineSet
EndChar

StartChar: uni06A1
Encoding: 1697 1697 77
Width: 1731
VWidth: 2401
GlyphClass: 2
Flags: W
AnchorPoint: "Anchor-10" 506.587 1313.37 basechar 0
AnchorPoint: "Anchor-7" 625.678 -220.525 basechar 0
LayerCount: 2
Fore
SplineSet
1350.45 814.255 m 1,0,1
 1236.64 811.934 1236.64 811.934 1210.96 666.643 c 0,2,3
 1195.23 574.728 1195.23 574.728 1272.74 538.715 c 1,4,5
 1378.51 491.119 1378.51 491.119 1528.66 549.992 c 2,6,-1
 1529.9 550.48 l 1,7,-1
 1529.93 551.815 l 2,8,9
 1531.57 634.825 1531.57 634.825 1501.41 701.138 c 0,10,11
 1450.3 815.26 1450.3 815.26 1350.45 814.255 c 1,0,1
1527.61 371.745 m 2,12,13
 1439.38 349.171 1439.38 349.171 1333.89 360.535 c 0,14,15
 1210.85 373.788 1210.85 373.788 1153.49 463.204 c 0,16,17
 1102.42 542.93 1102.42 542.93 1114.95 660.798 c 0,18,19
 1133.62 847.944 1133.62 847.944 1234.27 945.216 c 0,20,21
 1289.5 998.588 1289.5 998.588 1388.1 990.23 c 0,22,23
 1459.24 983.834 1459.24 983.834 1529.6 904.78 c 0,24,25
 1614.71 810.678 1614.71 810.678 1635.86 637.078 c 0,26,27
 1655.24 469.882 1655.24 469.882 1637.43 357.52 c 0,28,29
 1604.04 146.581 1604.04 146.581 1440.22 54.044 c 0,30,31
 1325.45 -10.2855 1325.45 -10.2855 971.989 -19.6814 c 0,32,33
 451.793 -33.467 451.793 -33.467 287.433 53.4638 c 0,34,35
 86.9694 159.06 86.9694 159.06 93.8678 479.386 c 0,36,37
 96.6601 610.401 96.6601 610.401 149.909 715.661 c 1,38,-1
 204.692 687.351 l 1,39,40
 195.44 653.127 195.44 653.127 188.013 582.971 c 0,41,42
 182.517 533.496 182.517 533.496 184.554 476.179 c 0,43,44
 193.584 229.061 193.584 229.061 550.812 176.764 c 0,45,46
 638.149 163.98 638.149 163.98 1007.45 164.081 c 1,47,48
 1281.84 170.245 1281.84 170.245 1372.53 201.596 c 0,49,50
 1526.03 254.24 1526.03 254.24 1530.11 369.736 c 2,51,-1
 1530.2 372.407 l 1,52,-1
 1527.61 371.745 l 2,12,13
EndSplineSet
Substitution2: "'init' Initial Forms in Arabic lookup 13 subtable" uni06A1.init
Substitution2: "'medi' Medial Forms in Arabic lookup 11 subtable" uni06A1.medi
Substitution2: "'fina' Terminal Forms in Arabic lookup 9 subtable" uni06A1.fina
EndChar

StartChar: uni06A9
Encoding: 1705 1705 78
Width: 1815
VWidth: 2360
GlyphClass: 2
Flags: W
AnchorPoint: "Anchor-10" 276.21 1271.47 basechar 0
AnchorPoint: "Anchor-7" 399.316 -266.053 basechar 0
LayerCount: 2
Fore
SplineSet
923.769 -19.0908 m 4,0,1
 461.77 -39.5029 461.77 -39.5029 285.434 53.4639 c 4,2,3
 84.9697 159.06 84.9697 159.06 91.8682 479.387 c 4,4,5
 94.6602 610.401 94.6602 610.401 147.904 715.651 c 5,6,-1
 201.985 687.342 l 5,7,8
 193.992 654.786 193.992 654.786 186.014 582.971 c 4,9,10
 180.517 533.496 180.517 533.496 182.555 476.179 c 4,11,12
 191.436 233.095 191.436 233.095 548.812 176.764 c 4,13,14
 680.602 156.818 680.602 156.818 923.769 163.983 c 4,15,16
 1482.46 182.048 1482.46 182.048 1475.13 306.938 c 4,17,18
 1469.62 400.671 1469.62 400.671 1299.13 543.436 c 4,19,20
 1204.35 622.803 1204.35 622.803 969.129 747.938 c 5,21,22
 951.041 958.958 951.041 958.958 1074.15 1023.46 c 6,23,-1
 1784.49 1395.64 l 5,24,25
 1755.74 1258.41 1755.74 1258.41 1720.81 1190.11 c 5,26,-1
 1085.04 870.816 l 5,27,28
 1383.7 692.677 1383.7 692.677 1483.13 567.437 c 4,29,30
 1576.34 450.038 1576.34 450.038 1581.13 334.937 c 4,31,32
 1588.45 155.389 1588.45 155.389 1420 70.0137 c 4,33,34
 1274.79 -3.58179 1274.79 -3.58179 923.769 -19.0908 c 4,0,1
EndSplineSet
Substitution2: "'init' Initial Forms in Arabic lookup 13 subtable" uniFB90
Substitution2: "'medi' Medial Forms in Arabic lookup 11 subtable" uniFB91
Substitution2: "'fina' Terminal Forms in Arabic lookup 9 subtable" uniFB8F
EndChar

StartChar: afii57514
Encoding: 1722 1722 80
Width: 1426
VWidth: 2384
GlyphClass: 2
Flags: W
AnchorPoint: "Anchor-10" 617.359 1025.84 basechar 0
AnchorPoint: "Anchor-7" 321.13 -816.362 basechar 0
LayerCount: 2
Fore
SplineSet
218.231 374.09 m 1,0,-1
 286.833 329 l 1,1,2
 179.453 22.0734 179.453 22.0734 249.325 -127.168 c 0,3,4
 357.437 -356.083 357.437 -356.083 698.129 -350.395 c 0,5,6
 1191.84 -342.001 1191.84 -342.001 1217.45 -21.1592 c 0,7,-1
 1079.14 406.971 l 5,8,-1
 1214.46 543.479 l 1,9,10
 1332.98 202.425 1332.98 202.425 1330.01 -20.9734 c 1,11,12
 1246.31 -514.039 1246.31 -514.039 702.501 -524.43 c 0,13,14
 321.528 -531.407 321.528 -531.407 175.627 -321.81 c 0,15,16
 61.9036 -157.125 61.9036 -157.125 123.937 91.282 c 0,17,18
 140.328 156.909 140.328 156.909 177.173 265.376 c 0,19,20
 199.5 331.099 199.5 331.099 218.231 374.09 c 1,0,-1
EndSplineSet
Substitution2: "'init' Initial Forms in Arabic lookup 13 subtable" uni06BA.init
Substitution2: "'medi' Medial Forms in Arabic lookup 11 subtable" uni06BA.medi
Substitution2: "'fina' Terminal Forms in Arabic lookup 9 subtable" uniFB9F
EndChar

StartChar: uni06F4
Encoding: 1780 1780 87
Width: 1255
VWidth: 2068
GlyphClass: 2
Flags: W
LayerCount: 2
Fore
SplineSet
394.583 1048.17 m 2,0,1
 419.981 1275.97 419.981 1275.97 608.159 1372.5 c 0,2,3
 765.45 1453.63 765.45 1453.63 959.072 1375.6 c 1,4,5
 979.708 1347.87 979.708 1347.87 998.27 1225.84 c 1,6,7
 904.846 1288.6 904.846 1288.6 791.614 1282.79 c 0,8,9
 687.794 1277.47 687.794 1277.47 623.254 1215.41 c 0,10,11
 506.056 1102.72 506.056 1102.72 542.562 933.602 c 2,12,-1
 542.791 932.541 l 1,13,-1
 543.806 932.155 l 2,14,15
 781.259 841.797 781.259 841.797 1024.24 946.217 c 1,16,17
 1048.69 901.961 1048.69 901.961 1058.35 805.576 c 1,18,19
 750.098 680.15 750.098 680.15 468.787 791.33 c 2,20,-1
 465 792.83 l 1,21,-1
 465.915 789.074 l 2,22,23
 524.434 548.701 524.434 548.701 523.533 227.752 c 0,24,25
 523.006 -12.1755 523.006 -12.1755 447.383 -32.1051 c 2,26,-1
 416.283 -40.3012 l 1,27,28
 407.875 396.941 407.875 396.941 302.4 776.324 c 0,29,30
 267.179 903.01 267.179 903.01 110.461 1259.16 c 1,31,-1
 240.155 1357.36 l 1,32,-1
 393.817 1041.3 l 1,33,-1
 394.583 1048.17 l 2,0,1
EndSplineSet
EndChar

StartChar: uni06F5
Encoding: 1781 1781 88
Width: 1255
VWidth: 2121
GlyphClass: 2
Flags: W
LayerCount: 2
Fore
SplineSet
639.653 303.536 m 0,0,1
 723.1 142.499 723.1 142.499 867.607 136.933 c 0,2,3
 894.175 135.917 894.175 135.917 916.413 140.083 c 0,4,5
 1068.1 168.5 1068.1 168.5 1017.27 435.828 c 0,6,-1
 1017.25 435.952 l 1,7,8
 931.773 768.377 931.773 768.377 597.74 1035.1 c 2,9,-1
 596.291 1036.26 l 1,10,-1
 595.027 1034.9 l 2,11,12
 338.759 759.341 338.759 759.341 250.659 487.847 c 0,13,14
 218.857 392.177 218.857 392.177 215.941 322.652 c 0,15,16
 208.491 145.004 208.491 145.004 388.488 137.566 c 0,17,18
 523.337 131.991 523.337 131.991 613.017 302.863 c 0,19,20
 618.327 312.981 618.327 312.981 623.338 315.6 c 0,21,22
 631.257 319.741 631.257 319.741 639.653 303.536 c 0,0,1
393.225 -41.2002 m 0,23,24
 110.392 -41.1959 110.392 -41.1959 88.0446 236.98 c 0,25,26
 57.9506 617.711 57.9506 617.711 482.957 1133.45 c 2,27,-1
 484.365 1135.16 l 1,28,-1
 482.893 1136.44 l 2,29,30
 456.921 1158.99 456.921 1158.99 452.225 1163.47 c 1,31,-1
 510.715 1331 l 1,32,33
 578.081 1282.3 578.081 1282.3 615.635 1248.25 c 0,34,35
 1206.51 719.466 1206.51 719.466 1154.06 241.137 c 0,36,37
 1121.18 -49.7777 1121.18 -49.7777 861.805 -40.6823 c 1,38,39
 684.497 -36.0724 684.497 -36.0724 632.339 108.682 c 2,40,-1
 625.593 127.401 l 1,41,-1
 618.842 108.686 l 2,42,43
 564.769 -41.1963 564.769 -41.1963 393.225 -41.2002 c 0,23,24
EndSplineSet
EndChar

StartChar: uni06F6
Encoding: 1782 1782 89
Width: 1255
VWidth: 2264
GlyphClass: 2
Flags: W
LayerCount: 2
Fore
SplineSet
198.714 -39.6147 m 1,0,1
 230.077 103.222 230.077 103.222 367.25 343.613 c 0,2,3
 508.021 590.309 508.021 590.309 560.235 634.479 c 2,4,-1
 563.164 636.957 l 1,5,6
 561.31 637.449 561.31 637.449 559.455 637.939 c 0,7,8
 252.535 719.194 252.535 719.194 255.128 1023.77 c 0,9,10
 256.008 1148.1 256.008 1148.1 330.678 1250.9 c 0,11,12
 436.112 1394.18 436.112 1394.18 631.137 1387.72 c 0,13,14
 776.49 1382.91 776.49 1382.91 843.021 1309.09 c 1,15,-1
 873.104 1155.34 l 1,16,17
 774.175 1228.17 774.175 1228.17 672.473 1227.29 c 0,18,19
 445.465 1225.32 445.465 1225.32 417.468 1058.67 c 0,20,21
 411.62 1023.84 411.62 1023.84 411.573 993.043 c 0,22,23
 411.216 758.896 411.216 758.896 744.457 758.896 c 0,24,25
 753.031 758.896 753.031 758.896 1054.8 886.543 c 1,26,27
 1069.02 817.572 1069.02 817.572 1065.03 739.051 c 1,28,29
 698.676 623.139 698.676 623.139 471.877 234.91 c 0,30,31
 312.462 -37.9895 312.462 -37.9895 241.721 -39.0002 c 2,32,-1
 198.714 -39.6147 l 1,0,1
EndSplineSet
EndChar

StartChar: uniFB8F
Encoding: 64399 64399 104
Width: 2026
VWidth: 2360
GlyphClass: 2
Flags: W
AnchorPoint: "Anchor-10" 350.693 1239.9 basechar 0
AnchorPoint: "Anchor-7" 438.621 -303.27 basechar 0
LayerCount: 2
Fore
SplineSet
917.811 -19.6074 m 4,0,1
 446.887 -31.8301 446.887 -31.8301 287.054 53.691 c 4,2,3
 87.0277 159.457 87.0277 159.457 93.9175 479.386 c 4,4,5
 96.7099 610.401 96.7099 610.401 149.959 715.661 c 5,6,-1
 204.765 687.339 l 5,7,8
 194.881 648.391 194.881 648.391 188.063 582.971 c 4,9,10
 182.566 533.495 182.566 533.495 184.604 476.179 c 4,11,12
 193.634 229.067 193.634 229.067 550.861 176.764 c 4,13,14
 639.258 163.98 639.258 163.98 917.811 163.467 c 4,15,16
 1474.43 163.639 1474.43 163.639 1469.17 306.421 c 4,17,18
 1465.9 398.286 1465.9 398.286 1293.17 542.919 c 4,19,20
 1198.39 622.286 1198.39 622.286 963.17 747.421 c 5,21,22
 945.082 958.442 945.082 958.442 1068.19 1022.94 c 6,23,-1
 1778.53 1395.12 l 5,24,25
 1749.78 1257.89 1749.78 1257.89 1714.85 1189.59 c 5,26,-1
 1079.08 870.3 l 5,27,28
 1358.93 692.364 1358.93 692.364 1525.21 536 c 4,29,30
 1921.59 163.268 1921.59 163.268 2018.42 163.741 c 6,31,-1
 2037.62 163.835 l 5,32,-1
 2037.62 -20.124 l 5,33,-1
 1998.67 -20.124 l 6,34,35
 1833.88 -20.124 1833.88 -20.124 1573.21 302 c 5,36,37
 1542.58 131.764 1542.58 131.764 1394 47.582 c 4,38,39
 1292.58 -8.83255 1292.58 -8.83255 917.811 -19.6074 c 4,0,1
EndSplineSet
EndChar

StartChar: uniFB9F
Encoding: 64415 64415 112
Width: 1475
VWidth: 2384
GlyphClass: 2
Flags: W
AnchorPoint: "Anchor-10" 341.574 769.934 basechar 0
AnchorPoint: "Anchor-7" 236.53 -802.24 basechar 0
LayerCount: 2
Fore
SplineSet
205.149 373.904 m 1,0,-1
 266.662 325.959 l 1,1,2
 164.999 25.1377 164.999 25.1377 236.326 -127.171 c 0,3,4
 344.437 -356.083 344.437 -356.083 685.129 -350.395 c 0,5,6
 1178.84 -342.002 1178.84 -342.002 1204.45 -21.1592 c 1,7,-1
 1056.15 426.929 l 5,8,-1
 1219.82 552.317 l 1,9,10
 1265.91 310.689 1265.91 310.689 1292.38 254.693 c 0,11,12
 1336.01 164.608 1336.01 164.608 1440.32 164.608 c 2,13,-1
 1485.33 164.608 l 1,14,-1
 1485.33 -19.3545 l 1,15,-1
 1442.71 -19.3545 l 2,16,17
 1365.35 -19.3545 1365.35 -19.3545 1312.32 67.3066 c 2,18,-1
 1306.14 77.4053 l 1,19,-1
 1308.66 65.8389 l 2,20,21
 1319.11 17.8964 1319.11 17.8964 1317.01 -20.8926 c 1,22,23
 1233.29 -514.04 1233.29 -514.04 689.501 -524.431 c 0,24,25
 308.528 -531.407 308.528 -531.407 162.627 -321.81 c 0,26,27
 48.9033 -157.125 48.9033 -157.125 110.938 91.2822 c 0,28,29
 127.328 156.909 127.328 156.909 164.173 265.376 c 0,30,31
 186.5 331.099 186.5 331.099 205.149 373.904 c 1,0,-1
EndSplineSet
EndChar

StartChar: uniFBE8
Encoding: 64488 64488 115
Width: 538
VWidth: 2383
GlyphClass: 2
Flags: W
AnchorPoint: "Anchor-10" 213.123 1088.12 basechar 0
AnchorPoint: "Anchor-7" 239.521 -248.252 basechar 0
LayerCount: 2
Fore
SplineSet
37.7314 -19.1885 m 1,0,-1
 -31.6172 -19.1885 l 1,1,-1
 -31.6172 164.885 l 1,2,-1
 44.2275 164.885 l 2,3,4
 60.8145 164.885 60.8145 164.885 76.4355 165.452 c 0,5,6
 334.741 174.822 334.741 174.822 328.765 339 c 0,7,8
 327.262 386.037 327.262 386.037 200.655 615.843 c 5,9,-1
 348.183 749.699 l 1,10,11
 436.711 562.877 436.711 562.877 446.684 389.342 c 0,12,13
 457.552 200.221 457.552 200.221 367.021 94.6953 c 0,14,15
 266.146 -23.6807 266.146 -23.6807 37.7314 -19.1885 c 1,0,-1
EndSplineSet
EndChar

StartChar: uniFBE9
Encoding: 64489 64489 116
Width: 695
VWidth: 2383
GlyphClass: 2
Flags: W
AnchorPoint: "Anchor-10" 329.725 1034.33 basechar 0
AnchorPoint: "Anchor-7" 309.69 -173.276 basechar 0
LayerCount: 2
Fore
SplineSet
331.934 486.288 m 1,0,1
 337.01 542.814 337.01 542.814 370.379 543.093 c 0,2,3
 412.655 543.467 412.655 543.467 416.143 492.043 c 2,4,-1
 420.964 420.972 l 2,5,6
 430.132 285.817 430.132 285.817 479.953 229.686 c 1,7,8
 535.599 164.766 535.599 164.766 693.69 164.766 c 2,9,-1
 704.438 164.766 l 1,10,-1
 704.438 -19.3662 l 1,11,12
 699.574 -19.5059 699.574 -19.5059 694.711 -19.6465 c 0,13,14
 674.486 -19.2646 l 6,15,16
 452.638 -15.076 452.638 -15.076 383.246 143.141 c 1,17,18
 273.283 -15.1562 273.283 -15.1562 59.3711 -18.2598 c 2,19,-1
 -10.9648 -19.2803 l 1,20,-1
 -10.9648 164.766 l 1,21,-1
 47.1562 164.766 l 2,22,23
 139.496 164.766 139.496 164.766 199.479 190.575 c 0,24,25
 323.459 243.98 323.459 243.98 327.211 351.256 c 2,26,-1
 331.934 486.288 l 1,0,1
EndSplineSet
EndChar

StartChar: uniFE73
Encoding: 65139 65139 124
Width: 573
VWidth: 2186
GlyphClass: 2
Flags: W
AnchorPoint: "Anchor-10" 210.79 1279.5 basechar 0
AnchorPoint: "Anchor-7" 210.79 -111.5 basechar 0
LayerCount: 2
Fore
SplineSet
294.23 350.74 m 2,0,1
 294.23 285.679 294.23 285.679 351.054 228.854 c 0,2,3
 402.525 177.38 402.525 177.38 514.67 177.38 c 2,4,-1
 579.92 177.38 l 1,5,-1
 579.92 10.5 l 1,6,-1
 455.82 10.5 l 2,7,8
 310.094 10.5 310.094 10.5 216.047 104.547 c 0,9,10
 127.35 193.243 127.35 193.243 127.35 337.9 c 2,11,-1
 127.35 368.91 l 1,12,-1
 294.23 368.91 l 1,13,-1
 294.23 350.74 l 2,0,1
EndSplineSet
EndChar

StartChar: uniFE8E
Encoding: 65166 65166 150
Width: 568
VWidth: 2359
GlyphClass: 2
Flags: W
AnchorPoint: "Anchor-10" 153.67 1578.88 basechar 0
AnchorPoint: "Anchor-7" 251.362 -297.141 basechar 0
LayerCount: 2
Fore
SplineSet
293.341 1473.73 m 1,0,-1
 293.925 442.77 l 2,1,2
 294.006 294.811 294.006 294.811 353.229 232.394 c 0,3,4
 417.987 163.969 417.987 163.969 545.061 163.969 c 2,5,-1
 578.955 163.969 l 1,6,-1
 578.955 -19.1055 l 1,7,-1
 522.968 -19.1055 l 2,8,9
 366.394 -19.1055 366.394 -19.1055 271.931 84.2988 c 0,10,11
 179.497 185.487 179.497 185.487 174.804 382.239 c 0,12,13
 163.639 948.925 163.639 948.925 161.151 995.507 c 0,14,15
 147.863 1244.75 147.863 1244.75 130.116 1368.89 c 1,16,-1
 293.341 1473.73 l 1,0,-1
EndSplineSet
EndChar

StartChar: uniFEA2
Encoding: 65186 65186 170
Width: 1384
VWidth: 2380
GlyphClass: 2
Flags: W
AnchorPoint: "Anchor-10" 597.149 1235.41 basechar 0
AnchorPoint: "Anchor-7" 329.128 -949.878 basechar 0
LayerCount: 2
Fore
SplineSet
974.15 453.181 m 1,0,1
 654.658 356.06 654.658 356.06 432.372 170.771 c 0,2,3
 232.625 5.58105 232.625 5.58105 236.008 -252.717 c 4,4,5
 238.335 -426.309 238.335 -426.309 378.686 -513.905 c 4,6,7
 553.449 -623.77 553.449 -623.77 896.986 -590.623 c 4,8,9
 1139.72 -567.203 1139.72 -567.203 1292.93 -458.63 c 5,10,11
 1151 -786 1151 -786 759 -794 c 4,12,13
 446.206 -801.249 446.206 -801.249 260.784 -656.195 c 4,14,15
 117.51 -543.729 117.51 -543.729 91.7256 -347.222 c 4,16,17
 43.4062 27.9082 43.4062 27.9082 374.016 289.062 c 0,18,19
 649.011 506.287 649.011 506.287 946.54 572.712 c 2,20,-1
 958.45 575.371 l 1,21,-1
 946.311 576.653 l 2,22,23
 884.982 583.13 884.982 583.13 756.281 649.888 c 0,24,25
 593.175 735.091 593.175 735.091 479.83 725.538 c 0,26,27
 348.62 714.479 348.62 714.479 237.73 496.006 c 1,28,-1
 224.569 496.753 l 2,29,30
 196.364 498.354 196.364 498.354 226.456 634.849 c 0,31,32
 235.715 676.844 235.715 676.844 268.221 743.846 c 0,33,34
 332.913 877.537 332.913 877.537 478.584 881.317 c 0,35,36
 624.002 885.872 624.002 885.872 858.985 744.324 c 0,37,38
 971.91 676.07 971.91 676.07 1240.13 650.293 c 1,39,-1
 1216.22 502.875 l 1,40,41
 1132.91 488.959 1132.91 488.959 1056 471.245 c 1,42,43
 1091.94 165.343 1091.94 165.343 1342.1 165.343 c 2,44,-1
 1394.18 165.343 l 1,45,-1
 1394.18 -19.6709 l 1,46,-1
 1349.2 -19.6709 l 2,47,48
 1019.01 -19.6709 1019.01 -19.6709 974.15 453.181 c 1,0,1
EndSplineSet
EndChar

StartChar: uniFEA3
Encoding: 65187 65187 171
Width: 1245
VWidth: 2384
GlyphClass: 2
Flags: W
AnchorPoint: "Anchor-10" 302.027 1129.23 basechar 0
AnchorPoint: "Anchor-7" 519.062 -274.52 basechar 0
LayerCount: 2
Fore
SplineSet
674.324 131.811 m 0,0,1
 426.157 -19.458 426.157 -19.458 16.2695 -19.458 c 2,2,-1
 -10.9785 -19.458 l 1,3,-1
 -10.9785 164.666 l 1,4,-1
 6.42578 164.666 l 2,5,6
 356.276 164.666 356.276 164.666 643.59 273.212 c 0,7,8
 919.431 376.551 919.431 376.551 920.907 396.844 c 2,9,-1
 921.042 398.7 l 1,10,-1
 919.201 398.969 l 2,11,12
 817.596 413.814 817.596 413.814 625.927 503.424 c 0,13,14
 435.673 592.372 435.673 592.372 349.417 579.016 c 0,15,16
 213.279 557.937 213.279 557.937 107.455 349.503 c 1,17,-1
 94.2928 350.248 l 2,18,19
 64.2146 351.95 64.2146 351.95 96.1757 488.319 c 0,20,21
 113.249 561.173 113.249 561.173 127.189 589.738 c 0,22,23
 198.153 733.166 198.153 733.166 350.892 748.759 c 0,24,25
 491.723 762.326 491.723 762.326 744.489 611.453 c 0,26,27
 877.924 530.947 877.924 530.947 1184.57 482.862 c 5,28,-1
 1160.74 339.142 l 5,29,30
 1035.5 351.703 1035.5 351.703 674.324 131.811 c 0,0,1
EndSplineSet
EndChar

StartChar: uniFEA4
Encoding: 65188 65188 172
Width: 1303
VWidth: 2384
GlyphClass: 2
Flags: W
AnchorPoint: "Anchor-10" 382.436 1152.01 basechar 0
AnchorPoint: "Anchor-7" 569.419 -282.859 basechar 0
LayerCount: 2
Fore
SplineSet
886.601 254.26 m 2,0,1
 898.318 164.132 898.318 164.132 1069.51 164.132 c 2,2,-1
 1314.78 164.132 l 1,3,-1
 1314.78 -19.9453 l 1,4,-1
 1045.69 -19.9453 l 2,5,6
 865.435 -19.9453 865.435 -19.9453 795.457 203.307 c 2,7,-1
 794.689 205.757 l 1,8,-1
 674.314 131.805 l 1,9,10
 426.156 -19.458 426.156 -19.458 16.2695 -19.458 c 2,11,-1
 -10.9785 -19.458 l 1,12,-1
 -10.9785 164.666 l 1,13,-1
 17.9766 164.666 l 2,14,15
 356.276 164.666 356.276 164.666 643.59 273.212 c 0,16,17
 919.431 376.551 919.431 376.551 920.907 396.844 c 2,18,-1
 921.042 398.7 l 1,19,-1
 919.201 398.969 l 2,20,21
 789.673 417.894 789.673 417.894 626.006 503.385 c 0,22,23
 462.894 588.585 462.894 588.585 349.555 579.033 c 0,24,25
 218.348 567.974 218.348 567.974 107.455 349.503 c 1,26,-1
 94.2928 350.248 l 2,27,28
 65.9882 351.85 65.9882 351.85 96.1813 488.343 c 0,29,30
 111.841 559.131 111.841 559.131 138.983 601.533 c 0,31,32
 224.319 734.841 224.319 734.841 365.216 740.263 c 0,33,34
 472.554 743.862 472.554 743.862 728.768 608.289 c 0,35,36
 873.855 525.198 873.855 525.198 1197.21 482.8 c 1,37,-1
 1173.37 339.067 l 1,38,39
 1069.47 348.64 1069.47 348.64 887.677 256.299 c 2,40,-1
 886.419 255.66 l 1,41,-1
 886.601 254.26 l 2,0,1
EndSplineSet
EndChar

StartChar: uniFEAA
Encoding: 65194 65194 178
Width: 1056
VWidth: 2378
GlyphClass: 2
Flags: W
AnchorPoint: "Anchor-10" 439.287 1208.7 basechar 0
AnchorPoint: "Anchor-7" 339.685 -311.271 basechar 0
LayerCount: 2
Fore
SplineSet
116.577 321.275 m 1,0,1
 134.711 175.534 134.711 175.534 339.831 172.159 c 0,2,3
 618.659 167.193 618.659 167.193 661.491 225.934 c 0,4,5
 692.495 268.277 692.495 268.277 679.85 332.672 c 0,6,7
 675.473 355.736 675.473 355.736 670.605 360.324 c 1,8,-1
 458.318 737.562 l 1,9,-1
 546.435 910.403 l 1,10,-1
 793.401 427.852 l 2,11,12
 793.424 427.808 793.424 427.808 793.449 427.765 c 0,13,14
 942.681 168.739 942.681 168.739 1038.46 164.64 c 2,15,-1
 1049.53 164.166 l 1,16,-1
 1067.55 164.166 l 1,17,-1
 1067.55 -19.7979 l 1,18,-1
 1055.27 -19.7979 l 2,19,20
 889 -19.7979 889 -19.7979 779.252 162.719 c 1,21,22
 695.194 -45.9594 695.194 -45.9594 319.167 -15.8584 c 1,23,-1
 289.468 -12.5244 l 1,24,25
 90.7471 11.7441 90.7471 11.7441 91.1982 185.98 c 2,26,-1
 91.5479 321.318 l 1,27,28
 104.545 326.107 104.545 326.107 116.577 321.275 c 1,0,1
EndSplineSet
EndChar

StartChar: uniFEAE
Encoding: 65198 65198 182
Width: 871
VWidth: 2383
GlyphClass: 2
Flags: W
AnchorPoint: "Anchor-10" 448.985 887.022 basechar 0
AnchorPoint: "Anchor-7" 418.852 -715.197 basechar 0
LayerCount: 2
Fore
SplineSet
705.651 215.917 m 24,0,1
 719.853 164.763 719.853 164.763 848.562 164.763 c 2,2,-1
 881.358 164.763 l 1,3,-1
 881.358 -19.3096 l 1,4,5
 833.511 -19.3115 833.511 -19.3115 829.061 -19.3027 c 0,6,-1
 828.849 -19.3018 l 2,7,8
 736.155 -18.9081 736.155 -18.9081 708.623 15.2393 c 2,9,-1
 705.59 19.001 l 1,10,11
 651.877 -301.836 651.877 -301.836 460.818 -461.836 c 1,12,13
 294.729 -511.836 294.729 -511.836 30.2773 -457.627 c 1,14,15
 543.214 -298.334 543.214 -298.334 600.327 76.1641 c 0,16,17
 615.721 179.768 615.721 179.768 490.396 385.913 c 5,18,19
 550.818 459.846 550.818 459.846 616.125 505.518 c 1,20,21
 636.602 464.631 636.602 464.631 705.651 215.917 c 24,0,1
EndSplineSet
PairPos2: "'kern' Horizontal Kerning lookup 15-1" uni06CC dx=-148 dy=0 dh=-148 dv=0 dx=0 dy=0 dh=0 dv=0
PairPos2: "'kern' Horizontal Kerning lookup 15-1" uniFEEB dx=-224 dy=0 dh=-224 dv=0 dx=0 dy=0 dh=0 dv=0
PairPos2: "'kern' Horizontal Kerning lookup 15-1" uniFB58 dx=63 dy=0 dh=63 dv=0 dx=0 dy=0 dh=0 dv=0
PairPos2: "'kern' Horizontal Kerning lookup 15-1" uniFEF3 dx=63 dy=0 dh=63 dv=0 dx=0 dy=0 dh=0 dv=0
PairPos2: "'kern' Horizontal Kerning lookup 15-1" uniFBFE dx=63 dy=0 dh=63 dv=0 dx=0 dy=0 dh=0 dv=0
PairPos2: "'kern' Horizontal Kerning lookup 15-1" uniFEDF dx=-224 dy=0 dh=-224 dv=0 dx=0 dy=0 dh=0 dv=0
PairPos2: "'kern' Horizontal Kerning lookup 15-1" uniFB90 dx=-224 dy=0 dh=-224 dv=0 dx=0 dy=0 dh=0 dv=0
PairPos2: "'kern' Horizontal Kerning lookup 15-1" uni06A9 dx=-224 dy=0 dh=-224 dv=0 dx=0 dy=0 dh=0 dv=0
PairPos2: "'kern' Horizontal Kerning lookup 15-1" uni0649 dx=-148 dy=0 dh=-148 dv=0 dx=0 dy=0 dh=0 dv=0
PairPos2: "'kern' Horizontal Kerning lookup 15-1" uni0647 dx=-224 dy=0 dh=-224 dv=0 dx=0 dy=0 dh=0 dv=0
PairPos2: "'kern' Horizontal Kerning lookup 15-1" uniFEE7 dx=-224 dy=0 dh=-224 dv=0 dx=0 dy=0 dh=0 dv=0
PairPos2: "'kern' Horizontal Kerning lookup 15-1" uniFEE3 dx=-224 dy=0 dh=-224 dv=0 dx=0 dy=0 dh=0 dv=0
PairPos2: "'kern' Horizontal Kerning lookup 15-1" uni0645 dx=-224 dy=0 dh=-224 dv=0 dx=0 dy=0 dh=0 dv=0
PairPos2: "'kern' Horizontal Kerning lookup 15-1" uniFEDB dx=-224 dy=0 dh=-224 dv=0 dx=0 dy=0 dh=0 dv=0
PairPos2: "'kern' Horizontal Kerning lookup 15-1" uniFED7 dx=-224 dy=0 dh=-224 dv=0 dx=0 dy=0 dh=0 dv=0
PairPos2: "'kern' Horizontal Kerning lookup 15-1" uniFED3 dx=-224 dy=0 dh=-224 dv=0 dx=0 dy=0 dh=0 dv=0
PairPos2: "'kern' Horizontal Kerning lookup 15-1" uni0641 dx=-224 dy=0 dh=-224 dv=0 dx=0 dy=0 dh=0 dv=0
PairPos2: "'kern' Horizontal Kerning lookup 15-1" uniFECF dx=-224 dy=0 dh=-224 dv=0 dx=0 dy=0 dh=0 dv=0
PairPos2: "'kern' Horizontal Kerning lookup 15-1" uniFECB dx=-224 dy=0 dh=-224 dv=0 dx=0 dy=0 dh=0 dv=0
PairPos2: "'kern' Horizontal Kerning lookup 15-1" uniFEC7 dx=-224 dy=0 dh=-224 dv=0 dx=0 dy=0 dh=0 dv=0
PairPos2: "'kern' Horizontal Kerning lookup 15-1" uni0638 dx=-224 dy=0 dh=-224 dv=0 dx=0 dy=0 dh=0 dv=0
PairPos2: "'kern' Horizontal Kerning lookup 15-1" uniFEC3 dx=-224 dy=0 dh=-224 dv=0 dx=0 dy=0 dh=0 dv=0
PairPos2: "'kern' Horizontal Kerning lookup 15-1" uni0637 dx=-224 dy=0 dh=-224 dv=0 dx=0 dy=0 dh=0 dv=0
PairPos2: "'kern' Horizontal Kerning lookup 15-1" uniFEBF dx=-224 dy=0 dh=-224 dv=0 dx=0 dy=0 dh=0 dv=0
PairPos2: "'kern' Horizontal Kerning lookup 15-1" uni0636 dx=-224 dy=0 dh=-224 dv=0 dx=0 dy=0 dh=0 dv=0
PairPos2: "'kern' Horizontal Kerning lookup 15-1" uniFEBB dx=-224 dy=0 dh=-224 dv=0 dx=0 dy=0 dh=0 dv=0
PairPos2: "'kern' Horizontal Kerning lookup 15-1" uni0635 dx=-224 dy=0 dh=-224 dv=0 dx=0 dy=0 dh=0 dv=0
PairPos2: "'kern' Horizontal Kerning lookup 15-1" uniFEB7 dx=-224 dy=0 dh=-224 dv=0 dx=0 dy=0 dh=0 dv=0
PairPos2: "'kern' Horizontal Kerning lookup 15-1" uni0634 dx=-224 dy=0 dh=-224 dv=0 dx=0 dy=0 dh=0 dv=0
PairPos2: "'kern' Horizontal Kerning lookup 15-1" uniFEB3 dx=-224 dy=0 dh=-224 dv=0 dx=0 dy=0 dh=0 dv=0
PairPos2: "'kern' Horizontal Kerning lookup 15-1" uni0633 dx=-224 dy=0 dh=-224 dv=0 dx=0 dy=0 dh=0 dv=0
PairPos2: "'kern' Horizontal Kerning lookup 15-1" uni0630 dx=-224 dy=0 dh=-224 dv=0 dx=0 dy=0 dh=0 dv=0
PairPos2: "'kern' Horizontal Kerning lookup 15-1" uni062F dx=-224 dy=0 dh=-224 dv=0 dx=0 dy=0 dh=0 dv=0
PairPos2: "'kern' Horizontal Kerning lookup 15-1" uniFEA7 dx=-224 dy=0 dh=-224 dv=0 dx=0 dy=0 dh=0 dv=0
PairPos2: "'kern' Horizontal Kerning lookup 15-1" uniFEA3 dx=-224 dy=0 dh=-224 dv=0 dx=0 dy=0 dh=0 dv=0
PairPos2: "'kern' Horizontal Kerning lookup 15-1" uniFE9F dx=-224 dy=0 dh=-224 dv=0 dx=0 dy=0 dh=0 dv=0
PairPos2: "'kern' Horizontal Kerning lookup 15-1" uniFE9B dx=-224 dy=0 dh=-224 dv=0 dx=0 dy=0 dh=0 dv=0
PairPos2: "'kern' Horizontal Kerning lookup 15-1" uni062B dx=-224 dy=0 dh=-224 dv=0 dx=0 dy=0 dh=0 dv=0
PairPos2: "'kern' Horizontal Kerning lookup 15-1" uniFE97 dx=-224 dy=0 dh=-224 dv=0 dx=0 dy=0 dh=0 dv=0
PairPos2: "'kern' Horizontal Kerning lookup 15-1" uni062A dx=-224 dy=0 dh=-224 dv=0 dx=0 dy=0 dh=0 dv=0
PairPos2: "'kern' Horizontal Kerning lookup 15-1" uni0629 dx=-224 dy=0 dh=-224 dv=0 dx=0 dy=0 dh=0 dv=0
PairPos2: "'kern' Horizontal Kerning lookup 15-1" uni0628 dx=-224 dy=0 dh=-224 dv=0 dx=0 dy=0 dh=0 dv=0
PairPos2: "'kern' Horizontal Kerning lookup 15-1" uni0627 dx=-253 dy=0 dh=-253 dv=0 dx=0 dy=0 dh=0 dv=0
PairPos2: "'kern' Horizontal Kerning lookup 15-1" uni0622 dx=-253 dy=0 dh=-253 dv=0 dx=0 dy=0 dh=0 dv=0
PairPos2: "'kern' Horizontal Kerning lookup 15-1" uniFB94 dx=-224 dy=0 dh=-224 dv=0 dx=0 dy=0 dh=0 dv=0
PairPos2: "'kern' Horizontal Kerning lookup 15-1" afii57509 dx=-224 dy=0 dh=-224 dv=0 dx=0 dy=0 dh=0 dv=0
PairPos2: "'kern' Horizontal Kerning lookup 15-1" uniFB56 dx=-224 dy=0 dh=-224 dv=0 dx=0 dy=0 dh=0 dv=0
PairPos2: "'kern' Horizontal Kerning lookup 15-1" afii57506 dx=-224 dy=0 dh=-224 dv=0 dx=0 dy=0 dh=0 dv=0
EndChar

StartChar: uniFEB2
Encoding: 65202 65202 186
Width: 2426
VWidth: 2383
GlyphClass: 2
Flags: W
AnchorPoint: "Anchor-10" 570.561 956.887 basechar 0
AnchorPoint: "Anchor-7" 386.915 -804.992 basechar 0
LayerCount: 2
Fore
SplineSet
1480.18 156.542 m 0,0,1
 1594.9 154.918 1594.9 154.918 1638.99 293.955 c 0,2,3
 1656.58 349.229 1656.58 349.229 1658.36 431.943 c 1,4,5
 1663.44 488.389 1663.44 488.389 1696.8 488.667 c 0,6,7
 1738.49 489.036 1738.49 489.036 1742.56 437.631 c 1,8,-1
 1743.73 413.75 l 2,9,10
 1755.86 167.574 1755.86 167.574 1909.79 165.624 c 0,11,12
 2037.57 164.006 2037.57 164.006 2066.92 363.226 c 0,13,14
 2078.03 438.671 2078.03 438.671 2077.51 486.472 c 1,15,16
 2082.59 543.053 2082.59 543.053 2115.96 543.33 c 0,17,18
 2157.63 543.699 2157.63 543.699 2161.72 492.297 c 1,19,-1
 2165.84 417.198 l 2,20,21
 2173.22 283.136 2173.22 283.136 2200.78 238.299 c 0,22,23
 2245.2 164.723 2245.2 164.723 2400.41 164.723 c 2,24,-1
 2437.57 164.723 l 1,25,-1
 2437.57 -19.3525 l 1,26,-1
 2407.25 -19.3525 l 2,27,28
 2154.96 -19.3525 2154.96 -19.3525 2101.69 153.562 c 0,29,30
 2100.75 156.61 2100.75 156.61 2099.81 159.659 c 1,31,32
 2098.29 154.699 2098.29 154.699 2097.82 153.418 c 0,33,34
 2045.23 -10.7041 2045.23 -10.7041 1917.88 -18.4531 c 0,35,36
 1744.09 -29.0068 1744.09 -29.0068 1679.08 158.693 c 2,37,-1
 1677.19 164.161 l 1,38,-1
 1675.3 158.691 l 2,39,40
 1616.04 -13.1123 1616.04 -13.1123 1481.81 -19.002 c 0,41,42
 1365.8 -24.0928 1365.8 -24.0928 1312.24 67.2754 c 2,43,-1
 1305.89 78.0957 l 1,44,-1
 1308.56 65.8389 l 2,45,46
 1319 17.7949 1319 17.7949 1316.91 -20.8926 c 1,47,48
 1233.19 -514.04 1233.19 -514.04 689.401 -524.431 c 0,49,50
 308.43 -531.407 308.43 -531.407 162.527 -321.81 c 0,51,52
 45.7139 -152.649 45.7139 -152.649 110.829 91.251 c 0,53,54
 131.524 168.767 131.524 168.767 162.053 260.638 c 0,55,56
 189.726 345.937 189.726 345.937 199.996 373.986 c 1,57,-1
 267.05 329.001 l 1,58,59
 165.348 24.1875 165.348 24.1875 236.226 -127.168 c 0,60,61
 344.338 -356.083 344.338 -356.083 685.028 -350.395 c 0,62,63
 1178.74 -342.002 1178.74 -342.002 1204.35 -21.1592 c 1,64,-1
 1066.05 406.929 l 5,65,-1
 1219.71 552.31 l 1,66,67
 1264.05 316.344 1264.05 316.344 1293.32 254.707 c 0,68,69
 1339.15 158.274 1339.15 158.274 1480.18 156.542 c 0,0,1
EndSplineSet
EndChar

StartChar: uniFEB3
Encoding: 65203 65203 187
Width: 1325
VWidth: 2383
GlyphClass: 2
Flags: W
AnchorPoint: "Anchor-10" 669.348 1017.99 basechar 0
AnchorPoint: "Anchor-7" 602.356 -254.73 basechar 0
LayerCount: 2
Fore
SplineSet
258.681 374.429 m 1,0,1
 263.757 430.96 263.757 430.96 297.127 431.238 c 0,2,3
 338.805 431.608 338.805 431.608 342.891 380.176 c 0,4,-1
 342.903 380.061 l 1,5,-1
 347.183 349.105 l 2,6,7
 373.603 157.985 373.603 157.985 529.902 156.339 c 0,8,9
 637.284 154.712 637.284 154.712 681.36 293.752 c 0,10,11
 698.961 349.014 698.961 349.014 700.733 431.741 c 1,12,13
 705.809 488.187 705.809 488.187 739.177 488.463 c 0,14,15
 780.853 488.833 780.853 488.833 784.938 437.433 c 1,16,-1
 786.106 413.547 l 2,17,18
 798.027 169.691 798.027 169.691 942.699 165.42 c 0,19,20
 949.066 165.42 949.066 165.42 955.173 165.638 c 0,21,22
 1122.08 171.602 1122.08 171.602 1115.97 339.537 c 0,23,24
 1114.47 386.571 1114.47 386.571 987.858 616.38 c 5,25,-1
 1135.39 750.236 l 1,26,27
 1223.91 563.431 1223.91 563.431 1233.88 389.87 c 0,28,29
 1246.22 190.133 1246.22 190.133 1159.21 86.042 c 0,30,31
 1070.88 -19.582 1070.88 -19.582 963.359 -18.2412 c 0,32,33
 892.271 -17.3545 892.271 -17.3545 860.442 -2.12305 c 0,34,35
 760.466 45.8438 760.466 45.8438 721.452 158.489 c 2,36,-1
 719.658 163.668 l 1,37,-1
 717.694 158.552 l 2,38,39
 646.655 -26.5674 646.655 -26.5674 507.595 -19.207 c 1,40,41
 358.512 -10.2227 358.512 -10.2227 305.665 152.154 c 2,42,-1
 304.028 157.183 l 1,43,-1
 301.928 152.329 l 2,44,45
 227.681 -19.209 227.681 -19.209 58.8066 -19.209 c 2,46,-1
 -11.8613 -19.209 l 1,47,-1
 -11.8613 164.866 l 1,48,-1
 47.9053 164.866 l 2,49,50
 249.931 164.866 249.931 164.866 255.692 302.863 c 2,51,-1
 258.681 374.429 l 1,0,1
EndSplineSet
EndChar

StartChar: uniFEB4
Encoding: 65204 65204 188
Width: 1448
VWidth: 2383
GlyphClass: 2
Flags: W
AnchorPoint: "Anchor-10" 635.228 1017.32 basechar 0
LayerCount: 2
Fore
SplineSet
1181.99 489.992 m 1,0,-1
 1185.06 431.698 l 2,1,2
 1192.77 285.844 1192.77 285.844 1222.1 238.096 c 0,3,4
 1266.52 164.521 1266.52 164.521 1403.88 164.521 c 2,5,-1
 1458.89 164.521 l 1,6,-1
 1458.89 -19.5557 l 1,7,-1
 1410.72 -19.5557 l 2,8,9
 1176.29 -19.5557 1176.29 -19.5557 1123.01 153.359 c 2,10,-1
 1121.08 159.633 l 1,11,12
 1120.13 156.49 1120.13 156.49 1119.18 153.347 c 0,13,14
 1067.47 -18.3945 1067.47 -18.3945 928.721 -20.7637 c 0,15,16
 780.269 -24.0615 780.269 -24.0615 717.202 158.488 c 2,17,-1
 715.112 164.537 l 1,18,-1
 713.386 158.375 l 2,19,20
 664.197 -17.1973 664.197 -17.1973 504.239 -19.2031 c 0,21,22
 352.22 -21.7627 352.22 -21.7627 285.631 152.25 c 2,23,-1
 283.868 156.856 l 1,24,-1
 281.925 152.323 l 2,25,26
 208.411 -19.209 208.411 -19.209 61.9062 -19.209 c 2,27,-1
 -10.8613 -19.209 l 1,28,-1
 -10.8613 164.866 l 1,29,-1
 51.0059 164.866 l 2,30,31
 250.931 164.866 250.931 164.866 256.692 302.863 c 2,32,-1
 259.683 374.477 l 1,33,34
 264.757 430.96 264.757 430.96 298.127 431.238 c 0,35,36
 339.805 431.608 339.805 431.608 343.891 380.176 c 0,37,-1
 343.903 380.061 l 1,38,-1
 348.183 349.105 l 2,39,40
 374.639 157.769 374.639 157.769 510.955 156.339 c 0,41,42
 632.977 154.716 632.977 154.716 677.11 293.752 c 0,43,44
 694.711 349.014 694.711 349.014 696.483 431.741 c 1,45,46
 701.559 488.187 701.559 488.187 734.927 488.463 c 0,47,48
 776.603 488.833 776.603 488.833 780.688 437.438 c 1,49,-1
 782.905 386.259 l 2,50,51
 792.782 158.221 792.782 158.221 941.727 165.422 c 0,52,53
 1054.53 170.89 1054.53 170.89 1087.17 339.519 c 0,54,55
 1098.55 397.313 1098.55 397.313 1097.79 484.364 c 1,56,57
 1102.86 540.75 1102.86 540.75 1136.23 541.027 c 0,58,59
 1177.9 541.396 1177.9 541.396 1181.99 489.992 c 1,0,-1
EndSplineSet
EndChar

StartChar: uniFEBA
Encoding: 65210 65210 194
Width: 2611
VWidth: 2384
GlyphClass: 2
Flags: W
AnchorPoint: "Anchor-10" 607.719 918.971 basechar 0
AnchorPoint: "Anchor-7" 365.4 -776.046 basechar 0
LayerCount: 2
Fore
SplineSet
1218.82 552.504 m 1,0,1
 1266.75 297.33 1266.75 297.33 1292.57 254.532 c 0,2,3
 1342.04 172.499 1342.04 172.499 1439.92 187.764 c 2,4,-1
 1440.76 187.895 l 1,5,-1
 1441.24 188.585 l 2,6,7
 1632.82 464 1632.82 464 1737.1 566.299 c 1,8,9
 1925.1 747.389 1925.1 747.389 2093.41 735.659 c 0,10,11
 2336.71 719.273 2336.71 719.273 2351.87 439.945 c 0,12,13
 2357.19 347.053 2357.19 347.053 2338.38 273.914 c 0,14,15
 2338.13 272.949 2338.13 272.949 2338.13 272.949 c 2,16,-1
 2338.75 272.171 l 2,17,18
 2424.98 163.984 2424.98 163.984 2575.9 163.984 c 2,19,-1
 2622.08 163.984 l 1,20,-1
 2622.08 -19.8926 l 1,21,-1
 2571.36 -19.7812 l 6,22,23
 2333.5 -19.2589 2333.5 -19.2589 2260.92 136.479 c 2,24,-1
 2259.52 139.483 l 1,25,26
 2258.83 138.509 2258.83 138.509 2257.24 136.896 c 0,27,28
 2216.51 90.8545 2216.51 90.8545 2156.62 60.6943 c 0,29,30
 1995.99 -20.212 1995.99 -20.212 1816 -19.7461 c 2,31,-1
 1527.75 -19 l 2,32,33
 1374.64 -18.6037 1374.64 -18.6037 1311.27 67.4502 c 2,34,-1
 1305.72 74.9873 l 1,35,-1
 1307.71 65.8389 l 2,36,37
 1318.15 17.8342 1318.15 17.8342 1316.06 -20.8926 c 1,38,39
 1232.34 -514.04 1232.34 -514.04 688.552 -524.431 c 0,40,41
 307.579 -531.407 307.579 -531.407 161.678 -321.81 c 0,42,43
 47.9551 -157.125 47.9551 -157.125 109.988 91.2822 c 0,44,45
 126.365 156.859 126.365 156.859 163.224 265.376 c 0,46,47
 185.55 331.099 185.55 331.099 204.291 374.112 c 1,48,-1
 274.487 328.986 l 1,49,50
 165.869 20.5732 165.869 20.5732 235.377 -127.172 c 0,51,52
 343.094 -356.089 343.094 -356.089 684.179 -350.395 c 0,53,54
 1177.89 -342.002 1177.89 -342.002 1203.5 -21.1592 c 1,55,-1
 1065.2 406.929 l 1,56,-1
 1218.82 552.504 l 1,0,1
1548.43 165.054 m 1,57,-1
 1751.69 165.054 l 2,58,59
 1951.39 165.054 1951.39 165.054 2106.6 216.63 c 1,60,61
 2236.3 258.276 2236.3 258.276 2229.94 412.229 c 0,62,63
 2228.75 444.744 2228.75 444.744 2222.87 471.008 c 0,64,65
 2191.78 609.852 2191.78 609.852 2030.87 573.516 c 0,66,67
 1940.55 553.12 1940.55 553.12 1801.25 425.768 c 0,68,69
 1654.15 291.275 1654.15 291.275 1551.18 168.338 c 2,70,-1
 1548.43 165.054 l 1,57,-1
EndSplineSet
EndChar

StartChar: uniFEBB
Encoding: 65211 65211 195
Width: 1603
VWidth: 2384
GlyphClass: 2
Flags: W
AnchorPoint: "Anchor-10" 560.294 1148.56 basechar 0
AnchorPoint: "Anchor-7" 692.741 -323.71 basechar 0
LayerCount: 2
Fore
SplineSet
601.4 189.212 m 6,0,1
 802.697 474.164 802.697 474.164 897.254 566.926 c 5,2,3
 1085.27 748.015 1085.27 748.015 1253.57 736.286 c 4,4,5
 1496.91 719.896 1496.91 719.896 1512.03 440.572 c 4,6,7
 1527.4 167.27 1527.4 167.27 1317.38 61.6201 c 4,8,9
 1155.82 -19.5859 1155.82 -19.5859 976.167 -19.1201 c 6,10,-1
 687.91 -18.373 l 6,11,12
 442.322 -17.7373 442.322 -17.7373 336.838 153.765 c 6,13,-1
 335.286 156.287 l 5,14,-1
 333.525 153.905 l 6,15,16
 205.647 -19.1201 205.647 -19.1201 17.918 -19.1201 c 6,17,-1
 -10.8203 -19.1201 l 5,18,-1
 -10.8203 164.954 l 5,19,-1
 5.9668 164.954 l 6,20,21
 131.482 164.954 131.482 164.954 193.148 203.315 c 4,22,23
 251.291 240.071 251.291 240.071 260.75 313.795 c 5,24,-1
 273.335 434.197 l 6,25,26
 281.116 503.93 281.116 503.93 320.215 505.273 c 4,27,28
 361.866 505.642 361.866 505.642 365.955 454.172 c 5,29,-1
 374.201 383.989 l 6,30,31
 392.841 225.309 392.841 225.309 599.415 188.397 c 6,32,-1
 600.667 188.174 l 5,33,-1
 601.4 189.212 l 6,0,1
708.591 165.68 m 5,34,-1
 911.85 165.68 l 6,35,36
 1111.55 165.68 1111.55 165.68 1266.76 217.258 c 5,37,38
 1396.43 258.896 1396.43 258.896 1390.09 412.855 c 4,39,40
 1388.9 445.38 1388.9 445.38 1383.02 471.635 c 4,41,42
 1351.93 610.477 1351.93 610.477 1191.03 574.142 c 4,43,44
 1100.71 553.746 1100.71 553.746 961.42 426.396 c 4,45,46
 814.346 291.928 814.346 291.928 711.342 168.964 c 6,47,-1
 708.591 165.68 l 5,34,-1
EndSplineSet
EndChar

StartChar: uniFEBC
Encoding: 65212 65212 196
Width: 1772
VWidth: 2384
GlyphClass: 2
Flags: W
AnchorPoint: "Anchor-10" 590.337 1220.83 basechar 0
AnchorPoint: "Anchor-7" 686.055 -331.239 basechar 0
LayerCount: 2
Fore
SplineSet
709.591 165.68 m 1,0,-1
 912.85 165.68 l 2,1,2
 1112.55 165.68 1112.55 165.68 1267.76 217.258 c 1,3,4
 1397.43 258.896 1397.43 258.896 1391.09 412.855 c 0,5,6
 1389.9 445.38 1389.9 445.38 1384.02 471.635 c 0,7,8
 1352.93 610.477 1352.93 610.477 1192.03 574.142 c 0,9,10
 1101.71 553.746 1101.71 553.746 962.42 426.396 c 0,11,12
 815.346 291.928 815.346 291.928 712.342 168.964 c 2,13,-1
 709.591 165.68 l 1,0,-1
1499.92 272.798 m 2,14,15
 1586.14 164.611 1586.14 164.611 1737.05 164.611 c 2,16,-1
 1783.24 164.611 l 1,17,-1
 1783.24 -19.2646 l 1,18,-1
 1750.52 -19.1543 l 6,19,20
 1494.7 -18.2918 1494.7 -18.2918 1421.96 137.35 c 2,21,-1
 1420.67 140.11 l 1,22,-1
 1418.65 137.822 l 2,23,24
 1378.01 91.7897 1378.01 91.7897 1317.89 61.377 c 0,25,26
 1156.82 -19.5857 1156.82 -19.5857 977.167 -19.1201 c 2,27,-1
 688.91 -18.373 l 2,28,29
 443.377 -17.7366 443.377 -17.7366 337.838 153.765 c 2,30,-1
 336.286 156.287 l 1,31,-1
 334.525 153.905 l 2,32,33
 206.607 -19.1201 206.607 -19.1201 18.918 -19.1201 c 2,34,-1
 -9.82031 -19.1201 l 1,35,-1
 -9.82031 163.954 l 1,36,-1
 6.9668 163.954 l 2,37,38
 130.877 163.954 130.877 163.954 194.148 203.315 c 0,39,40
 252.291 240.071 252.291 240.071 261.75 313.795 c 1,41,-1
 274.335 434.197 l 2,42,43
 281.728 504.925 281.728 504.925 321.189 505.273 c 0,44,45
 362.866 505.642 362.866 505.642 366.955 454.172 c 1,46,-1
 375.201 383.989 l 2,47,48
 393.859 225.189 393.859 225.189 600.415 188.397 c 2,49,-1
 601.667 188.174 l 1,50,-1
 602.4 189.212 l 2,51,52
 803.48 473.951 803.48 473.951 898.254 566.926 c 1,53,54
 1086.27 748.015 1086.27 748.015 1254.57 736.286 c 0,55,56
 1497.91 719.896 1497.91 719.896 1513.03 440.57 c 0,57,58
 1518.39 347.245 1518.39 347.245 1499.55 274.541 c 2,59,-1
 1499.3 273.576 l 1,60,-1
 1499.92 272.798 l 2,14,15
EndSplineSet
EndChar

StartChar: uniFEC2
Encoding: 65218 65218 202
Width: 1457
VWidth: 2384
GlyphClass: 2
Flags: W
AnchorPoint: "Anchor-7" 622.346 -317.759 basechar 0
AnchorPoint: "Anchor-10" 336.968 1563.57 basechar 0
LayerCount: 2
Fore
SplineSet
422.092 165.68 m 1,0,-1
 625.351 165.68 l 2,1,2
 819.604 165.68 819.604 165.68 980.253 217.255 c 0,3,4
 1109.93 258.901 1109.93 258.901 1103.59 412.855 c 0,5,6
 1102.4 445.38 1102.4 445.38 1096.52 471.635 c 0,7,8
 1065.43 610.475 1065.43 610.475 904.536 574.142 c 0,9,10
 814.21 553.744 814.21 553.744 674.921 426.396 c 0,11,12
 527.847 291.929 527.847 291.929 424.843 168.964 c 2,13,-1
 422.092 165.68 l 1,0,-1
1129.38 132.414 m 2,14,15
 1088.88 90.8058 1088.88 90.8058 1030.8 61.5811 c 0,16,17
 870.628 -18.9294 870.628 -18.9294 689.661 -19.1201 c 2,18,-1
 401.412 -19.4238 l 1,19,-1
 218.337 -18.8516 l 2,20,21
 60.7314 -18.359 60.7314 -18.359 60.7314 151.2 c 2,22,-1
 60.7314 164.91 l 1,23,-1
 296.064 165.445 l 1,24,-1
 296.662 166.248 l 2,25,26
 348.893 236.384 348.893 236.384 353.71 241.102 c 0,27,28
 358.115 245.416 358.115 245.416 350.272 492.863 c 1,29,30
 345.901 765.654 345.901 765.654 333.238 1030.13 c 0,31,32
 321.019 1285.41 321.019 1285.41 307.986 1370.07 c 1,33,-1
 469.279 1474.72 l 1,34,-1
 468.604 396.375 l 1,35,-1
 472.214 401.251 l 2,36,37
 559.202 518.745 559.202 518.745 610.732 566.905 c 0,38,39
 804.119 747.642 804.119 747.642 967.062 736.286 c 0,40,41
 1210.41 719.912 1210.41 719.912 1225.53 440.572 c 0,42,43
 1230.96 344.061 1230.96 344.061 1208.29 268.438 c 2,44,-1
 1207.99 267.437 l 1,45,-1
 1208.64 266.618 l 2,46,47
 1289.6 164.611 1289.6 164.611 1421.2 164.611 c 2,48,-1
 1467.39 164.611 l 1,49,-1
 1467.39 -19.2646 l 1,50,-1
 1417.67 -19.1543 l 6,51,52
 1203.48 -18.6791 1203.48 -18.6791 1132.62 131.866 c 2,53,-1
 1131.39 134.479 l 1,54,-1
 1129.38 132.414 l 2,14,15
EndSplineSet
EndChar

StartChar: uniFEC3
Encoding: 65219 65219 203
Width: 1102
VWidth: 2384
GlyphClass: 2
Flags: W
AnchorPoint: "Anchor-10" 135.393 1574.02 basechar 0
LayerCount: 2
Fore
SplineSet
79.8311 165.726 m 6,0,1
 117.738 215.242 117.738 215.242 138.311 241.102 c 4,2,3
 142.72 245.418 142.72 245.418 134.873 492.863 c 5,4,5
 130.508 765.573 130.508 765.573 117.841 1030.13 c 4,6,7
 105.619 1285.42 105.619 1285.42 92.585 1370.07 c 5,8,-1
 253.88 1474.72 l 5,9,-1
 253.203 396.375 l 5,10,-1
 256.814 401.251 l 6,11,12
 343.9 518.836 343.9 518.836 395.346 566.916 c 5,13,14
 583.391 748.014 583.391 748.014 751.662 736.286 c 4,15,16
 994.989 719.898 994.989 719.898 1010.13 440.572 c 4,17,18
 1025.52 166.902 1025.52 166.902 814.883 61.3213 c 4,19,20
 655.55 -18.9297 655.55 -18.9297 474.262 -19.1201 c 6,21,-1
 186.01 -19.4238 l 5,22,-1
 -11.2139 -19.1367 l 5,23,-1
 -11.2139 164.94 l 5,24,-1
 79.2305 164.941 l 5,25,-1
 79.8311 165.726 l 6,0,1
206.691 165.68 m 5,26,-1
 409.951 165.68 l 6,27,28
 604.203 165.68 604.203 165.68 764.852 217.255 c 4,29,30
 894.532 258.9 894.532 258.9 888.193 412.855 c 4,31,32
 887.004 445.388 887.004 445.388 881.126 471.635 c 4,33,34
 850.037 610.477 850.037 610.477 689.136 574.142 c 4,35,36
 598.809 553.744 598.809 553.744 459.52 426.396 c 4,37,38
 312.437 291.92 312.437 291.92 209.444 168.964 c 6,39,-1
 206.691 165.68 l 5,26,-1
EndSplineSet
EndChar

StartChar: uniFEC4
Encoding: 65220 65220 204
Width: 1259
VWidth: 2384
GlyphClass: 2
Flags: W
AnchorPoint: "Anchor-10" 142.786 1577.89 basechar 0
AnchorPoint: "Anchor-7" 521.949 -301.063 basechar 0
LayerCount: 2
Fore
SplineSet
207.691 165.68 m 1,0,-1
 410.951 165.68 l 2,1,2
 605.203 165.68 605.203 165.68 765.852 217.255 c 0,3,4
 895.532 258.9 895.532 258.9 889.193 412.855 c 0,5,6
 888.004 445.388 888.004 445.388 882.126 471.635 c 0,7,8
 851.037 610.477 851.037 610.477 690.136 574.142 c 0,9,10
 599.809 553.744 599.809 553.744 460.52 426.396 c 0,11,12
 313.437 291.92 313.437 291.92 210.444 168.964 c 2,13,-1
 207.691 165.68 l 1,0,-1
996.971 272.798 m 2,14,15
 1083.06 164.611 1083.06 164.611 1224.65 164.611 c 2,16,-1
 1270.84 164.611 l 1,17,-1
 1270.84 -19.2646 l 1,18,-1
 1218.12 -19.1543 l 6,19,20
 997.986 -18.6937 997.986 -18.6937 924.265 138.399 c 2,21,-1
 922.997 141.101 l 1,22,-1
 920.98 138.901 l 2,23,24
 878.66 92.7419 878.66 92.7419 815.883 61.3213 c 0,25,26
 656.551 -18.9291 656.551 -18.9291 475.262 -19.1201 c 2,27,-1
 187.01 -19.4238 l 1,28,-1
 -11.2637 -19.1367 l 1,29,-1
 -11.2637 164.94 l 1,30,-1
 80.2305 164.941 l 1,31,-1
 80.8311 165.726 l 2,32,33
 136.084 237.943 136.084 237.943 139.311 241.102 c 0,34,35
 143.72 245.418 143.72 245.418 135.873 492.863 c 1,36,37
 131.508 765.573 131.508 765.573 118.841 1030.13 c 0,38,39
 106.619 1285.42 106.619 1285.42 93.585 1370.07 c 1,40,-1
 254.88 1474.72 l 1,41,-1
 254.203 396.375 l 1,42,-1
 257.814 401.251 l 2,43,44
 344.878 518.815 344.878 518.815 396.334 566.905 c 0,45,46
 589.721 747.642 589.721 747.642 752.661 736.286 c 0,47,48
 995.989 719.898 995.989 719.898 1011.13 440.572 c 0,49,50
 1016.31 348.395 1016.31 348.395 996.604 274.56 c 2,51,-1
 996.344 273.586 l 1,52,-1
 996.971 272.798 l 2,14,15
EndSplineSet
EndChar

StartChar: uniFECA
Encoding: 65226 65226 210
Width: 1223
VWidth: 2382
GlyphClass: 2
Flags: W
AnchorPoint: "Anchor-10" 444.38 1150.38 basechar 0
AnchorPoint: "Anchor-7" 385.13 -874.657 basechar 0
LayerCount: 2
Fore
SplineSet
576.045 546.965 m 0,0,1
 558.441 546.965 558.441 546.965 544.261 544.575 c 0,2,3
 527.002 541.703 527.002 541.703 517.459 537.77 c 0,4,5
 501.607 531.235 501.607 531.235 505.705 521.323 c 0,6,7
 509.57 512.336 509.57 512.336 528.533 500.193 c 0,8,9
 551.857 485.256 551.857 485.256 575.203 474.415 c 2,10,-1
 576.012 474.039 l 1,11,-1
 576.832 474.391 l 2,12,13
 596.877 482.976 596.877 482.976 622.27 500.82 c 0,14,15
 639.709 513.252 639.709 513.252 639.709 522.264 c 0,16,17
 639.709 540.108 639.709 540.108 607.688 544.597 c 0,18,19
 590.789 546.965 590.789 546.965 576.045 546.965 c 0,0,1
650.343 344.004 m 2,20,21
 853.346 164.069 853.346 164.069 1190.11 164.069 c 2,22,-1
 1234.32 164.069 l 1,23,-1
 1234.32 -19.9434 l 1,24,-1
 1199.5 -19.9434 l 2,25,26
 861.503 -19.9434 861.503 -19.9434 581.838 264.951 c 2,27,-1
 580.769 266.04 l 1,28,-1
 579.436 265.296 l 2,29,30
 457.698 197.348 457.698 197.348 401.937 138.072 c 0,31,32
 229.754 -41.0596 229.754 -41.0596 221.237 -209.207 c 0,33,34
 210.055 -424.134 210.055 -424.134 364.231 -533.939 c 0,35,36
 521.335 -645.83 521.335 -645.83 818.476 -610.346 c 0,37,38
 971.415 -592.082 971.415 -592.082 1148.4 -512.633 c 1,39,40
 1040.88 -783.046 1040.88 -783.046 694.885 -783.046 c 4,41,42
 367.737 -782.008 367.737 -782.008 212.579 -623.59 c 0,43,44
 55.1426 -463.18 55.1426 -463.18 91.1523 -184.573 c 0,45,46
 130.843 119.45 130.843 119.45 496.996 345.293 c 2,47,-1
 500.485 347.445 l 1,48,-1
 496.799 349.126 l 2,49,50
 405.529 390.75 405.529 390.75 337.789 448.65 c 0,51,52
 278.992 498.9 278.992 498.9 283.4 559.48 c 0,53,54
 287.734 620.996 287.734 620.996 375.977 663.714 c 0,55,56
 447.71 698.717 447.71 698.717 565.896 701.178 c 0,57,58
 624.614 702.371 624.614 702.371 677.348 696.762 c 0,59,60
 796.756 683.727 796.756 683.727 831.188 613.969 c 0,61,62
 849.881 575.783 849.881 575.783 839.802 532.869 c 0,63,64
 818.915 444.413 818.915 444.413 650.669 347.233 c 2,65,-1
 648.266 345.845 l 1,66,-1
 650.343 344.004 l 2,20,21
EndSplineSet
EndChar

StartChar: uniFECB
Encoding: 65227 65227 211
Width: 964
VWidth: 2380
GlyphClass: 2
Flags: W
AnchorPoint: "Anchor-10" 341.947 1307.41 basechar 0
AnchorPoint: "Anchor-7" 395.445 -349.498 basechar 0
LayerCount: 2
Fore
SplineSet
13.6846 165.018 m 2,0,1
 155.813 165.018 155.813 165.018 156.799 165.006 c 2,2,-1
 265.274 166.223 l 1,3,-1
 260.561 169.756 l 2,4,5
 63.7624 317.282 63.7624 317.282 97.8779 536.5 c 0,6,7
 135.872 776.974 135.872 776.974 367.571 810.156 c 4,8,9
 562.482 838.102 562.482 838.102 691.879 723.486 c 1,10,11
 699.571 658.156 699.571 658.156 693.571 582.156 c 1,12,13
 557.195 665.653 557.195 665.653 405.571 637.742 c 0,14,15
 252.38 609.167 252.38 609.167 236.497 466.677 c 0,16,17
 221.56 330.258 221.56 330.258 389.809 213.053 c 0,18,19
 433.356 182.466 433.356 182.466 631.094 219.979 c 2,20,-1
 872.475 265.771 l 1,21,-1
 843.786 103.877 l 1,22,23
 496.042 -18.0557 496.042 -18.0557 88.2852 -19.0742 c 1,24,-1
 -11.332 -19.0566 l 1,25,-1
 -11.332 165.018 l 1,26,-1
 13.6846 165.018 l 2,0,1
EndSplineSet
EndChar

StartChar: uniFECC
Encoding: 65228 65228 212
Width: 1015
VWidth: 2382
GlyphClass: 2
Flags: W
AnchorPoint: "Anchor-10" 475.467 1144.67 basechar 0
AnchorPoint: "Anchor-7" 515.534 -267.729 basechar 0
LayerCount: 2
Fore
SplineSet
526.644 460.854 m 4,0,1
 509.04 460.854 509.04 460.854 494.858 458.464 c 4,2,3
 477.6 455.592 477.6 455.592 468.058 451.658 c 4,4,5
 452.206 445.124 452.206 445.124 456.304 435.213 c 4,6,7
 460.168 426.226 460.168 426.226 479.131 414.083 c 4,8,9
 502.457 399.145 502.457 399.145 525.802 388.305 c 6,10,-1
 526.611 387.929 l 5,11,12
 547.476 396.867 547.476 396.867 572.869 414.71 c 4,13,14
 590.306 427.141 590.306 427.141 590.306 436.153 c 4,15,16
 590.306 453.998 590.306 453.998 558.288 458.485 c 4,17,18
 541.382 460.854 541.382 460.854 526.644 460.854 c 4,0,1
601.165 257.723 m 6,19,20
 747.133 161.243 747.133 161.243 984.639 163.552 c 6,21,-1
 1025.69 163.951 l 5,22,-1
 1025.69 -19.9668 l 5,23,-1
 958.395 -19.9668 l 6,24,25
 710.33 -19.9668 710.33 -19.9668 523.685 158.14 c 6,26,-1
 518.465 163.121 l 5,27,-1
 513.242 158.141 l 6,28,29
 325.917 -20.5225 325.917 -20.5225 66.1943 -20.5225 c 6,30,-1
 -11.4756 -20.5225 l 5,31,-1
 -11.4756 163.552 l 5,32,-1
 39.9951 163.552 l 6,33,34
 341.414 163.552 341.414 163.552 448.182 259.583 c 6,35,-1
 450.45 261.624 l 5,36,-1
 447.674 262.89 l 6,37,38
 356.155 304.603 356.155 304.603 288.389 362.539 c 4,39,40
 229.592 412.789 229.592 412.789 233.999 473.371 c 4,41,42
 238.333 534.885 238.333 534.885 326.574 577.603 c 4,43,44
 398.308 612.606 398.308 612.606 516.494 615.066 c 4,45,46
 575.236 616.261 575.236 616.261 627.947 610.651 c 4,47,48
 747.355 597.615 747.355 597.615 781.788 527.857 c 4,49,50
 800.479 489.671 800.479 489.671 790.4 446.758 c 4,51,52
 769.505 358.26 769.505 358.26 601.268 261.123 c 6,53,-1
 598.467 259.506 l 5,54,-1
 601.165 257.723 l 6,19,20
EndSplineSet
EndChar

StartChar: uniFEDA
Encoding: 65242 65242 226
Width: 1959
VWidth: 2359
GlyphClass: 2
Flags: W
AnchorPoint: "Anchor-10" 485.022 1499.9 basechar 0
AnchorPoint: "Anchor-7" 617.24 -321.654 basechar 0
LayerCount: 2
Fore
SplineSet
1536.26 408.232 m 5,0,-1
 1538.19 467.501 l 6,1,2
 1542.22 590.989 1542.22 590.989 1524.31 1019.58 c 5,3,4
 1512.08 1274.89 1512.08 1274.89 1499.06 1359.49 c 5,5,-1
 1664.36 1464.35 l 5,6,-1
 1664.36 430.601 l 6,7,8
 1664.36 164.337 1664.36 164.337 1900.89 164.337 c 6,9,-1
 1970.41 164.337 l 5,10,-1
 1970.41 -19.627 l 5,11,-1
 1922.54 -19.627 l 6,12,13
 1653.41 -19.627 1653.41 -19.627 1584.53 169.764 c 6,14,-1
 1582.49 175.375 l 5,15,-1
 1580.74 169.667 l 6,16,17
 1577.11 157.833 1577.11 157.833 1530.04 124.481 c 4,18,19
 1383.4 20.5605 1383.4 20.5605 1226.49 4.29883 c 4,20,21
 1011.02 -18.0352 1011.02 -18.0352 967.731 -19.5918 c 4,22,23
 478.916 -37.1729 478.916 -37.1729 284.478 64.4316 c 4,24,25
 85.1904 168.568 85.1904 168.568 91.8682 479.387 c 4,26,27
 94.6748 611.109 94.6748 611.109 148.264 716.357 c 5,28,-1
 208.62 716.206 l 5,29,30
 192.634 642.562 192.634 642.562 186.014 582.971 c 4,31,32
 180.515 533.476 180.515 533.476 182.555 476.181 c 4,33,34
 191.151 234.411 191.151 234.411 570.851 180.438 c 4,35,36
 674.132 165.758 674.132 165.758 1005.43 165.131 c 4,37,38
 1114.36 164.996 1114.36 164.996 1197.64 178.838 c 4,39,40
 1520.51 234.519 1520.51 234.519 1536.25 408.117 c 4,41,-1
 1536.26 408.232 l 5,0,-1
1046.01 1290.27 m 5,42,-1
 1046.01 1236.45 l 5,43,44
 969.319 1230.6 969.319 1230.6 926.927 1214.97 c 4,45,46
 817.352 1173.89 817.352 1173.89 817.352 1119.32 c 4,47,48
 817.352 1078.41 817.352 1078.41 838.547 1051.16 c 4,49,50
 858.165 1025 858.165 1025 948.125 1011.77 c 4,51,52
 1002.49 1003.77 1002.49 1003.77 1029.8 978.842 c 4,53,54
 1056.33 954.603 1056.33 954.603 1056.33 910.905 c 4,55,56
 1056.33 805.114 1056.33 805.114 958.058 749.538 c 4,57,58
 881.861 706.446 881.861 706.446 777.456 705.479 c 4,59,60
 711.979 705.479 711.979 705.479 654.2 714.952 c 5,61,-1
 654.2 776.033 l 5,62,63
 720.523 767.399 720.523 767.399 766.739 767.399 c 4,64,65
 850.385 767.399 850.385 767.399 904.4 788.665 c 4,66,67
 999.57 825.215 999.57 825.215 999.57 887.087 c 4,68,69
 999.57 956.165 999.57 956.165 888.872 974.203 c 4,70,71
 826.312 983.735 826.312 983.735 792.552 1018.26 c 132,-1,72
 758.83 1052.75 758.83 1052.75 760.185 1115.21 c 4,73,74
 762.244 1198.5 762.244 1198.5 839.804 1237.81 c 4,75,76
 928.003 1282.43 928.003 1282.43 1046.01 1290.27 c 5,42,-1
EndSplineSet
EndChar

StartChar: uniFEDB
Encoding: 65243 65243 227
Width: 865
VWidth: 2360
GlyphClass: 2
Flags: W
AnchorPoint: "Anchor-10" 220.818 1265.02 basechar 0
AnchorPoint: "Anchor-7" 333.171 -282.73 basechar 0
LayerCount: 2
Fore
SplineSet
-11 -19.0908 m 5,0,-1
 -11 163.983 l 5,1,-1
 80.4434 164.011 l 6,2,3
 545.623 164.153 545.623 164.153 540.36 306.937 c 4,4,5
 537.087 398.802 537.087 398.802 364.36 543.436 c 4,6,7
 269.577 622.803 269.577 622.803 34.3604 747.937 c 5,8,9
 16.2724 958.958 16.2724 958.958 139.38 1023.46 c 6,10,-1
 849.721 1395.64 l 5,11,12
 820.967 1258.41 820.967 1258.41 786.04 1190.11 c 5,13,-1
 150.27 870.816 l 5,14,15
 448.928 692.677 448.928 692.677 548.36 567.437 c 4,16,17
 646.36 444.001 646.36 444.001 646.36 334.936 c 4,18,19
 646.361 140.248 646.361 140.248 462.36 30.9365 c 4,20,21
 378.151 -19.0908 378.151 -19.0908 126.442 -19.0908 c 6,22,-1
 -11 -19.0908 l 5,0,-1
EndSplineSet
EndChar

StartChar: uniFEDC
Encoding: 65244 65244 228
Width: 1097
VWidth: 2360
GlyphClass: 2
Flags: W
AnchorPoint: "Anchor-10" 195.618 1293.57 basechar 0
AnchorPoint: "Anchor-7" 318.604 -312.174 basechar 0
LayerCount: 2
Fore
SplineSet
596.405 536.517 m 4,0,1
 430.123 692.88 430.123 692.88 150.27 870.816 c 5,2,-1
 786.04 1190.11 l 5,3,4
 820.967 1258.41 820.967 1258.41 849.721 1395.64 c 5,5,-1
 139.38 1023.46 l 6,6,7
 16.2724 958.958 16.2724 958.958 34.3604 747.937 c 5,8,9
 269.577 622.803 269.577 622.803 364.36 543.436 c 4,10,11
 537.087 398.802 537.087 398.802 540.36 306.937 c 4,12,13
 545.623 164.153 545.623 164.153 80.4434 164.011 c 6,14,15
 -11 163.983 l 5,16,-1
 -11 -19.0908 l 5,17,-1
 126.442 -19.0908 l 6,18,19
 379.732 -19.0908 379.732 -19.0908 462.36 30.9365 c 4,20,21
 609.006 123.387 609.006 123.387 644.405 302.517 c 5,22,23
 905.066 -19.6074 905.066 -19.6074 1069.86 -19.6074 c 6,24,-1
 1108.81 -19.6074 l 5,25,-1
 1108.81 164.351 l 5,26,-1
 1089.61 164.258 l 6,27,28
 992.776 163.789 992.776 163.789 596.405 536.517 c 4,0,1
EndSplineSet
EndChar

StartChar: uniFEDE
Encoding: 65246 65246 230
Width: 1594
VWidth: 2359
GlyphClass: 2
Flags: W
AnchorPoint: "Anchor-10" 627.65 1223.83 basechar 0
AnchorPoint: "Anchor-7" 234.999 -602.393 basechar 0
LayerCount: 2
Fore
SplineSet
1205.23 151.746 m 1,0,1
 1204.07 383.977 1204.07 383.977 1179.82 1028.51 c 1,2,3
 1168.98 1283.45 1168.98 1283.45 1144.28 1358.11 c 1,4,-1
 1319.87 1473.25 l 1,5,-1
 1319.85 424.509 l 2,6,7
 1319.85 286.154 1319.85 286.154 1389.13 225.51 c 128,-1,8
 1458.3 164.965 1458.3 164.965 1574.12 164.964 c 2,9,-1
 1606 164.964 l 5,10,-1
 1606 -19 l 5,11,-1
 1589.87 -19 l 2,12,13
 1447.03 -19 1447.03 -19 1319.58 70.2393 c 2,14,-1
 1316.58 72.3398 l 1,15,16
 1316.51 70.5117 1316.51 70.5117 1316.43 68.6826 c 0,17,18
 1293.11 -502.86 1293.11 -502.86 689.254 -522.626 c 0,19,20
 312.082 -535.019 312.082 -535.019 162.411 -320.006 c 0,21,22
 48.6865 -155.319 48.6865 -155.319 110.721 93.0869 c 0,23,24
 127.111 158.719 127.111 158.719 163.956 267.18 c 0,25,26
 186.28 332.903 186.28 332.903 206.089 376.063 c 1,27,-1
 275.158 337.186 l 1,28,29
 164.298 27.2471 164.298 27.2471 236.109 -125.366 c 0,30,31
 343.83 -354.293 343.83 -354.293 684.91 -348.588 c 0,32,33
 1176.35 -340.263 1176.35 -340.263 1203.17 -12.0244 c 1,34,35
 1204.72 22.7197 1204.72 22.7197 1205.75 50.1113 c 0,36,37
 1207.11 86.7852 1207.11 86.7852 1205.23 151.746 c 1,0,1
EndSplineSet
EndChar

StartChar: uniFEDF
Encoding: 65247 65247 231
Width: 552
VWidth: 2359
GlyphClass: 2
Flags: W
AnchorPoint: "Anchor-10" 317.632 1562.49 basechar 0
AnchorPoint: "Anchor-7" 243.061 -283.816 basechar 0
LayerCount: 2
Fore
SplineSet
256.548 1371.12 m 1,0,-1
 421.855 1475.98 l 1,1,-1
 421.855 464.899 l 2,2,3
 421.855 241.881 421.855 241.881 354.787 140.756 c 0,4,5
 248.744 -19.1377 248.744 -19.1377 54.9297 -19.1377 c 2,6,-1
 -11.3477 -19.1377 l 5,7,-1
 -11.3477 164.938 l 1,8,-1
 0.55957 164.938 l 2,9,10
 182.754 164.938 182.754 164.938 254.068 254.71 c 0,11,12
 299.753 312.224 299.753 312.224 295.689 479.032 c 1,13,14
 303.203 519.766 303.203 519.766 281.803 1031.2 c 1,15,16
 269.581 1286.48 269.581 1286.48 256.548 1371.12 c 1,0,-1
EndSplineSet
EndChar

StartChar: uniFEE0
Encoding: 65248 65248 232
Width: 659
VWidth: 2359
GlyphClass: 2
Flags: W
AnchorPoint: "Anchor-10" 286.727 1558.07 basechar 0
AnchorPoint: "Anchor-7" 248.885 -339.433 basechar 0
LayerCount: 2
Fore
SplineSet
222.938 1371.1 m 1,0,-1
 382.047 1474.77 l 1,1,-1
 382.047 424.44 l 2,2,3
 382.047 269.714 382.047 269.714 470.066 208.557 c 4,4,5
 534.233 163.972 534.233 163.972 639.413 163.972 c 2,6,-1
 670.726 163.972 l 1,7,-1
 670.726 -19.0508 l 1,8,-1
 632.766 -18.0547 l 2,9,10
 434.918 -12.863 434.918 -12.863 328.658 102.778 c 2,11,-1
 312.222 120.666 l 1,12,-1
 296.016 102.568 l 2,13,14
 190.945 -14.7658 190.945 -14.7658 35.8896 -18.0537 c 2,15,-1
 -11.5928 -19.0605 l 1,16,-1
 -11.5928 163.967 l 1,17,-1
 -0.445312 163.938 l 2,18,19
 143.221 163.573 143.221 163.573 215.268 254.71 c 0,20,21
 260.952 312.219 260.952 312.219 256.889 479.032 c 1,22,23
 261.383 503.397 261.383 503.397 243.003 1031.17 c 0,24,25
 235.305 1252.22 235.305 1252.22 222.938 1371.1 c 1,0,-1
EndSplineSet
EndChar

StartChar: uniFEE2
Encoding: 65250 65250 234
Width: 1190
VWidth: 2407
GlyphClass: 2
Flags: W
AnchorPoint: "Anchor-10" 485.792 1093.3 basechar 0
AnchorPoint: "Anchor-7" 250.014 -773.194 basechar 0
LayerCount: 2
Fore
SplineSet
476.725 351.415 m 6,0,1
 481.315 151.154 481.315 151.154 558.07 63.4902 c 4,2,3
 619.386 -6.27246 619.386 -6.27246 711.072 7.47266 c 4,4,5
 855.312 29.4141 855.312 29.4141 832.445 163.111 c 4,6,7
 804.916 324.075 804.916 324.075 650.261 353.736 c 5,8,9
 565.699 371.053 565.699 371.053 478.328 353.423 c 6,10,-1
 476.687 353.09 l 5,11,-1
 476.725 351.415 l 6,0,1
976.881 247.559 m 5,12,13
 1031.72 165.047 1031.72 165.047 1170.87 164.543 c 6,14,-1
 1201.23 164.433 l 5,15,-1
 1201.23 -19.4443 l 5,16,-1
 1155.25 -19.4443 l 6,17,18
 1013.66 -19.4443 1013.66 -19.4443 950.795 76.4072 c 6,19,-1
 947.499 81.4326 l 5,20,21
 947.312 78.4336 947.312 78.4336 947.127 75.4346 c 4,22,23
 940.516 -30.9697 940.516 -30.9697 863.857 -96.127 c 4,24,25
 806.944 -144.5 806.944 -144.5 688.627 -150.229 c 4,26,27
 537.773 -157.529 537.773 -157.529 455.482 -45.6729 c 132,-1,28
 373.078 66.3371 373.078 66.3371 359.444 298.207 c 6,29,-1
 359.297 300.707 l 5,30,-1
 356.892 300.01 l 6,31,32
 275.733 276.489 275.733 276.489 240.623 189.994 c 4,33,34
 196.281 81.5821 196.281 81.5821 234.065 -124.797 c 6,35,-1
 317.928 -582.86 l 5,36,-1
 151.221 -689.206 l 5,37,-1
 91.1543 -54.4141 l 6,38,39
 48.8348 392.823 48.8348 392.823 358.321 447.454 c 6,40,-1
 359.692 447.696 l 5,41,-1
 359.941 449.066 l 6,42,43
 378.367 550.434 378.367 550.434 417.519 598.668 c 5,44,45
 478.929 545.038 478.929 545.038 700.852 491.209 c 4,46,47
 923.396 437.229 923.396 437.229 976.622 248.124 c 4,48,-1
 976.881 247.559 l 5,12,13
EndSplineSet
EndChar

StartChar: uniFEE3
Encoding: 65251 65251 235
Width: 909
VWidth: 2387
GlyphClass: 2
Flags: W
AnchorPoint: "Anchor-10" 396.95 1041.46 basechar 0
AnchorPoint: "Anchor-7" 356.884 -271.882 basechar 0
LayerCount: 2
Fore
SplineSet
734.561 10.0195 m 132,-1,1
 640.813 -87.0107 640.813 -87.0107 471.762 -48 c 4,2,3
 360.839 -22.4023 360.839 -22.4023 236.688 111.051 c 6,4,-1
 235.175 112.679 l 5,5,-1
 233.715 111.002 l 6,6,7
 120.529 -19.0684 120.529 -19.0684 9.99316 -19.0684 c 6,8,-1
 -10.7119 -19.0684 l 5,9,-1
 -10.7119 164.006 l 5,10,-1
 29.9619 164.006 l 6,11,12
 120.788 164.006 120.788 164.006 196.389 291.047 c 4,13,14
 397.161 630.553 397.161 630.553 578.293 609.179 c 4,15,16
 798.256 583.278 798.256 583.278 817.529 279.387 c 4,17,0
 828.301 107.043 828.301 107.043 734.561 10.0195 c 132,-1,1
439.357 125.683 m 5,18,19
 547.943 72.2354 547.943 72.2354 621.28 116.334 c 4,20,21
 696.107 160.376 696.107 160.376 675.072 313.272 c 4,22,23
 659.36 423.89 659.36 423.89 602.185 449.301 c 4,24,25
 526.854 483.735 526.854 483.735 421.309 373.075 c 4,26,27
 348.811 297.91 348.811 297.91 304.474 223.102 c 6,28,-1
 303.72 221.829 l 5,29,-1
 304.715 220.735 l 6,30,31
 362.922 156.812 362.922 156.812 439.357 125.683 c 5,18,19
EndSplineSet
EndChar

StartChar: uniFEE4
Encoding: 65252 65252 236
Width: 1028
VWidth: 2387
GlyphClass: 2
Flags: W
AnchorPoint: "Anchor-10" 447.635 1003.62 basechar 0
AnchorPoint: "Anchor-7" 407.567 -281.898 basechar 0
LayerCount: 2
Fore
SplineSet
444.423 121.949 m 4,0,1
 551.88 69.5234 551.88 69.5234 623.704 115.438 c 4,2,3
 695.197 162.049 695.197 162.049 674.022 313.269 c 4,4,5
 660.433 410.327 660.433 410.327 601.649 448.038 c 4,6,7
 535.76 490.719 535.76 490.719 420.518 373.02 c 4,8,9
 344.845 295.731 344.845 295.731 304.446 223.054 c 6,10,-1
 303.698 221.708 l 5,11,-1
 304.808 220.641 l 6,12,13
 368.598 159.264 368.598 159.264 444.423 121.949 c 4,0,1
787.683 90.3604 m 6,14,15
 759.459 36.9717 759.459 36.9717 733.542 11.1016 c 4,16,17
 635.981 -86.4775 635.981 -86.4775 471.73 -47.9932 c 4,18,19
 360.559 -22.1016 360.559 -22.1016 236.688 111.051 c 6,20,-1
 235.175 112.679 l 5,21,-1
 233.715 111.002 l 6,22,23
 120.529 -19.0684 120.529 -19.0684 9.99316 -19.0684 c 6,24,-1
 -10.7119 -19.0684 l 5,25,-1
 -10.7119 164.006 l 5,26,-1
 29.9619 164.006 l 6,27,28
 120.788 164.006 120.788 164.006 196.39 291.049 c 4,29,30
 395.932 629.478 395.932 629.478 577.254 608.128 c 4,31,32
 797.206 583.297 797.206 583.297 816.479 279.39 c 4,33,34
 816.957 271.612 816.957 271.612 817.23 264.004 c 4,35,36
 820.799 164.288 820.799 164.288 997.222 164.288 c 6,37,-1
 1039.64 164.288 l 5,38,-1
 1039.64 -19.6748 l 5,39,-1
 1019.65 -19.6748 l 6,40,41
 866.709 -19.6748 866.709 -19.6748 791.447 90.666 c 6,42,-1
 789.419 93.6543 l 5,43,-1
 787.683 90.3604 l 6,14,15
EndSplineSet
EndChar

StartChar: uniFEEA
Encoding: 65258 65258 242
Width: 1073
VWidth: 2376
GlyphClass: 2
Flags: W
AnchorPoint: "Anchor-10" 394.296 1226.56 basechar 0
AnchorPoint: "Anchor-7" 379.749 -257.976 basechar 0
LayerCount: 2
Fore
SplineSet
690.482 403.045 m 1,0,-1
 653.088 696.085 l 1,1,-1
 651.149 695.889 l 2,2,3
 243.739 654.601 243.739 654.601 253.429 464.028 c 0,4,5
 253.818 455.564 253.818 455.564 255.48 447.833 c 0,6,7
 284.11 314.676 284.11 314.676 688.692 402.655 c 2,8,-1
 690.482 403.045 l 1,0,-1
706.61 248.895 m 2,9,10
 179.317 154.039 179.317 154.039 101.758 380.354 c 0,11,12
 93.7979 403.35 93.7979 403.35 91.1523 432.357 c 0,13,14
 71.5234 718.591 71.5234 718.591 630.15 816.98 c 2,15,-1
 631.763 817.265 l 1,16,-1
 631.803 818.901 l 2,17,18
 632.487 847.093 632.487 847.093 616.878 960.869 c 1,19,-1
 740.916 998.642 l 1,20,-1
 806.55 453.214 l 2,21,22
 830.99 246.75 830.99 246.75 906.108 198.925 c 0,23,24
 959.951 164.646 959.951 164.646 1067.89 164.539 c 2,25,-1
 1084.77 164.522 l 5,26,-1
 1084.77 -19.4795 l 1,27,-1
 1059.34 -18.5088 l 2,28,29
 749.091 -6.67285 749.091 -6.67285 708.939 247.238 c 2,30,-1
 708.62 249.256 l 1,31,-1
 706.61 248.895 l 2,9,10
EndSplineSet
EndChar

StartChar: uniFEEB
Encoding: 65259 65259 243
Width: 1161
VWidth: 2380
GlyphClass: 2
Flags: W
AnchorPoint: "Anchor-10" 460.893 1294.42 basechar 0
AnchorPoint: "Anchor-7" 390.716 -303.949 basechar 0
LayerCount: 2
Fore
SplineSet
710.069 508.809 m 6,0,1
 739.027 401.915 739.027 401.915 697.744 316.918 c 4,2,3
 665.844 251.24 665.844 251.24 541.746 175.657 c 6,4,-1
 527.408 166.925 l 5,5,-1
 531.44 165.542 l 6,6,7
 617.355 136.085 617.355 136.085 685.048 122.655 c 4,8,9
 908.68 78.29 908.68 78.29 934.461 208.639 c 4,10,11
 960.725 339.541 960.725 339.541 713.49 510.733 c 6,12,-1
 708.64 514.087 l 5,13,-1
 710.069 508.809 l 6,0,1
448.776 728.169 m 5,14,-1
 377.07 765.28 l 5,15,-1
 491.903 900.253 l 5,16,-1
 731.903 687.253 l 6,17,18
 1079.77 378.521 1079.77 378.521 1069.75 232.587 c 4,19,20
 1049.86 -41.0908 1049.86 -41.0908 740.013 -32.2578 c 4,21,22
 547.527 -26.7714 547.527 -26.7714 358.064 59.749 c 6,23,-1
 355.115 61.0957 l 5,24,-1
 352.17 59.749 l 6,25,26
 178.419 -19.7051 178.419 -19.7051 15.501 -19.7051 c 6,27,-1
 -11.4697 -19.7051 l 5,28,-1
 -11.4697 164.369 l 5,29,-1
 20.6904 164.369 l 6,30,31
 20.7851 164.369 20.7851 164.369 162.383 163.268 c 6,32,-1
 164.738 163.25 l 5,33,-1
 162.773 166.349 l 6,34,35
 109.705 250.041 109.705 250.041 114.11 352.174 c 4,36,37
 119.722 477.851 119.722 477.851 176.122 564.878 c 4,38,39
 251.08 681.548 251.08 681.548 352.191 712.933 c 4,40,41
 413.873 731.597 413.873 731.597 438.42 729.186 c 6,42,-1
 448.776 728.169 l 5,14,-1
572.117 368.733 m 4,43,44
 645.427 504.804 645.427 504.804 551.164 588.977 c 4,45,46
 467.115 664.029 467.115 664.029 339.896 562.885 c 4,47,48
 270.549 507.752 270.549 507.752 249.903 403.253 c 4,49,50
 215.703 230.143 215.703 230.143 348.015 193.635 c 6,51,-1
 348.671 193.454 l 5,52,-1
 349.301 193.711 l 6,53,54
 514.023 260.908 514.023 260.908 572.117 368.733 c 4,43,44
EndSplineSet
EndChar

StartChar: uniFEEC
Encoding: 65260 65260 244
Width: 886
VWidth: 2399
GlyphClass: 2
Flags: W
AnchorPoint: "Anchor-7" 224.456 -799.016 basechar 0
AnchorPoint: "Anchor-10" 204.142 1141.66 basechar 0
LayerCount: 2
Fore
SplineSet
258.921 164.763 m 1,0,-1
 305.221 167.19 l 2,1,2
 404.543 172.403 404.543 172.403 450.951 247.247 c 0,3,4
 513.396 347.954 513.396 347.954 513.396 484.034 c 0,5,6
 513.396 574.807 513.396 574.807 494.882 602.788 c 0,7,8
 464.832 648.203 464.832 648.203 415.304 648.203 c 0,9,10
 313.069 648.203 313.069 648.203 274.555 467.287 c 0,11,12
 236.983 286.993 236.983 286.993 258.564 166.738 c 2,13,-1
 258.921 164.763 l 1,0,-1
196.306 612.4 m 0,14,15
 275.339 795.087 275.339 795.087 416.397 793.907 c 0,16,17
 507.147 792.993 507.147 792.993 564.022 724.512 c 0,18,19
 634.235 639.973 634.235 639.973 634.235 462.647 c 0,20,21
 634.235 199.314 634.235 199.314 481.108 59.7861 c 0,22,23
 394.495 -19.1348 394.495 -19.1348 276.179 -19.1348 c 2,24,-1
 274.27 -19.1348 l 1,25,-1
 274.181 -21.042 l 2,26,27
 263.687 -247.936 263.687 -247.936 381.395 -414.273 c 2,28,-1
 384.306 -418.388 l 1,29,-1
 385.008 -413.396 l 2,30,31
 430.124 -92.4893 430.124 -92.4893 655.799 75.2725 c 0,32,33
 771.172 161.789 771.172 161.789 877.591 164.115 c 1,34,-1
 897.467 164.351 l 1,35,-1
 897.467 -19.709 l 1,36,-1
 873.818 -20.1846 l 2,37,38
 568.833 -26.3262 568.833 -26.3262 488.463 -556.639 c 1,39,-1
 408.303 -602.884 l 1,40,41
 178.764 -493.73 178.764 -493.73 148.479 -21.0068 c 2,42,-1
 148.359 -19.1348 l 1,43,-1
 -11.375 -19.1348 l 1,44,-1
 -11.375 164.94 l 5,45,-1
 146.501 165.007 l 1,46,-1
 146.438 167.066 l 2,47,48
 137.052 475.434 137.052 475.434 196.306 612.4 c 0,14,15
EndSplineSet
EndChar

StartChar: uniFEEE
Encoding: 65262 65262 246
Width: 818
VWidth: 2401
GlyphClass: 2
Flags: W
AnchorPoint: "Anchor-10" 275.462 1153.38 basechar 0
AnchorPoint: "Anchor-7" 473.036 -708.926 basechar 0
LayerCount: 2
Fore
SplineSet
575 -18 m 1,0,1
 513.196 -29.6602 513.196 -29.6602 398.175 -23.5547 c 1,2,3
 257.388 -15.0938 257.388 -15.0938 211.694 54.792 c 0,4,5
 160.659 134.901 160.659 134.901 173.139 252.391 c 0,6,7
 193.764 446.544 193.764 446.544 292.428 536.79 c 0,8,9
 359.425 598.471 359.425 598.471 444.211 591.283 c 0,10,11
 514.747 585.503 514.747 585.503 577.335 520.486 c 0,12,13
 679.015 415.225 679.015 415.225 694.05 246.587 c 0,14,15
 697.862 203.826 697.862 203.826 700.922 166.329 c 2,16,-1
 701.072 164.486 l 1,17,-1
 829.626 164.881 l 1,18,-1
 829.626 -19.0459 l 1,19,-1
 697.572 -18.999 l 0,20,21
 644.585 -313 644.585 -313 458.562 -458.932 c 5,22,23
 310.353 -511.18 310.353 -511.18 30.2188 -457.549 c 1,24,25
 503 -299 503 -299 575 -18 c 1,0,1
408.646 405.859 m 0,26,27
 289.828 403.438 289.828 403.438 269.144 258.19 c 0,28,29
 255.81 163.58 255.81 163.58 340.11 155.341 c 0,30,31
 480.024 141.666 480.024 141.666 586.45 159.337 c 2,32,-1
 588.09 159.609 l 1,33,-1
 588.123 161.271 l 2,34,35
 589.717 241.64 589.717 241.64 564.861 299.647 c 0,36,37
 518.516 407.825 518.516 407.825 408.646 405.859 c 0,26,27
EndSplineSet
EndChar

StartChar: uniFEF0
Encoding: 65264 65264 248
Width: 1395
VWidth: 2416
GlyphClass: 2
Flags: W
AnchorPoint: "Anchor-10" 627.807 504.875 basechar 0
AnchorPoint: "Anchor-7" 216.775 -832.266 basechar 0
LayerCount: 2
Fore
SplineSet
1017.57 138.844 m 0,0,1
 1084.25 165.042 1084.25 165.042 1284.83 165.033 c 2,2,-1
 1393.93 165.028 l 1,3,-1
 1405.86 164.879 l 1,4,-1
 1405.86 -19.1201 l 1,5,-1
 1300.7 -19.6631 l 2,6,7
 1282.64 -19.7563 1282.64 -19.7563 1170.29 5.07031 c 0,8,9
 1056.17 30.3029 1056.17 30.3029 1039.29 -25.9297 c 0,10,11
 1034.89 -40.1602 1034.89 -40.1602 1041.84 -52.2402 c 0,12,13
 1057.13 -80.6899 1057.13 -80.6899 1183.93 -90.4199 c 0,14,15
 1327.39 -101.43 1327.39 -101.43 1341.26 -194.455 c 0,16,17
 1346.45 -229.242 1346.45 -229.242 1324.83 -280.65 c 0,18,19
 1260.39 -429.934 1260.39 -429.934 1088.94 -508.938 c 0,20,21
 887.151 -601.922 887.151 -601.922 589.074 -585.084 c 0,22,23
 156.666 -560.659 156.666 -560.659 91.2305 -268.622 c 0,24,25
 66.2803 -155.651 66.2803 -155.651 106.778 12.1914 c 0,26,27
 122.05 75.377 122.05 75.377 179.279 211.832 c 0,28,29
 211.861 289.866 211.861 289.866 224.634 313.807 c 1,30,-1
 309.206 259.693 l 1,31,32
 297.886 233.579 297.886 233.579 258.728 138.487 c 0,33,34
 219.016 42.0498 219.016 42.0498 208.085 -30.7441 c 0,35,36
 188.971 -165.646 188.971 -165.646 268.008 -265.918 c 0,37,38
 366.321 -391.762 366.321 -391.762 661.258 -406.922 c 0,39,40
 865.921 -417.347 865.921 -417.347 1003.78 -372.549 c 0,41,42
 1184.71 -312.593 1184.71 -312.593 1202.58 -255.933 c 0,43,44
 1209.62 -232.634 1209.62 -232.634 1195.36 -221.543 c 0,45,46
 1179.29 -208.032 1179.29 -208.032 1074.15 -196.627 c 0,47,48
 888 -176 888 -176 871.945 -76.2842 c 4,49,50
 850.265 74.1354 850.265 74.1354 1017.57 138.844 c 0,0,1
EndSplineSet
EndChar

StartChar: uniFEFB
Encoding: 65275 65275 259
Width: 1122
VWidth: 2359
GlyphClass: 3
Flags: W
AnchorPoint: "Anchor-9" 929.221 1589.16 baselig 0
AnchorPoint: "Anchor-6" 891.547 -246.035 baselig 0
AnchorPoint: "Anchor-6" 254.784 -275.825 baselig 1
AnchorPoint: "Anchor-9" 217.203 1475.8 baselig 1
LayerCount: 2
Fore
SplineSet
815.186 1334.89 m 1,0,-1
 991.605 1475.47 l 1,1,-1
 991.605 503.749 l 2,2,3
 991.605 305.368 991.605 305.368 889.678 164.912 c 0,4,5
 755.963 -19.347 755.963 -19.347 504.98 -19.1377 c 2,6,-1
 339.859 -19 l 1,7,8
 187.518 45.8975 187.518 45.8975 180.813 159.057 c 1,9,10
 381.303 131.401 381.303 131.401 541 154 c 1,11,12
 400.43 825 400.43 825 50 1178 c 1,13,-1
 159 1311.15 l 1,14,15
 526.967 862 526.967 862 651 179 c 1,16,17
 749.053 205.18 749.053 205.18 806.808 284.353 c 0,18,19
 867.158 366.455 867.158 366.455 864.391 484.204 c 1,20,21
 870.387 507.976 870.387 507.976 850.504 1036.42 c 0,22,23
 840.979 1289.61 840.979 1289.61 815.186 1334.89 c 1,0,-1
EndSplineSet
LCarets2: 1 0 
Ligature2: "'rlig' Required Ligatures in Arabic lookup 16 subtable" uniFEDF uniFE8E
EndChar

StartChar: uniFEFC
Encoding: 65276 65276 260
Width: 1317
VWidth: 2359
GlyphClass: 3
Flags: W
AnchorPoint: "Anchor-9" 942.679 1542.47 baselig 0
AnchorPoint: "Anchor-6" 909.041 -266.036 baselig 0
AnchorPoint: "Anchor-6" 251.018 -294.082 baselig 1
AnchorPoint: "Anchor-9" 112.807 1431.73 baselig 1
LayerCount: 2
Fore
SplineSet
541 154 m 1,0,1
 400.43 825 400.43 825 50 1178 c 1,2,-1
 159 1311.15 l 1,3,4
 524.399 862 524.399 862 647 190 c 5,5,-1
 647.197 189.43 l 5,6,-1
 649.223 190.404 l 6,7,8
 805.574 265.64 805.574 265.64 878.821 520.433 c 1,9,10
 898.931 598.725 898.931 598.725 885.482 894.008 c 2,11,-1
 873.688 1152.99 l 2,12,13
 868.389 1269.32 868.389 1269.32 855.426 1327.29 c 1,14,-1
 1031.19 1473.3 l 1,15,-1
 1031.19 681.799 l 2,16,17
 1031.19 445.967 1031.19 445.967 1076.48 314.073 c 0,18,19
 1127.89 164.347 1127.89 164.347 1299.71 164.347 c 2,20,-1
 1329.22 164.347 l 1,21,-1
 1329.22 -19.6045 l 1,22,-1
 1270.57 -19 l 2,23,24
 1014.44 -16.36 1014.44 -16.36 938.621 365.404 c 2,25,-1
 937.082 373.154 l 1,26,-1
 934.748 365.605 l 2,27,28
 891.83 226.795 891.83 226.795 825 153 c 0,29,30
 667.009 -21.6795 667.009 -21.6795 403.988 -19.6172 c 2,31,-1
 325.524 -19.002 l 1,32,33
 166.833 24.8398 166.833 24.8398 162.665 151.839 c 1,34,35
 418.571 116.335 418.571 116.335 541 154 c 1,0,1
EndSplineSet
LCarets2: 1 0 
Ligature2: "'rlig' Required Ligatures in Arabic lookup 16 subtable" uniFEE0 uniFE8E
EndChar

StartChar: arabic_dot
Encoding: 65536 -1 261
Width: 157
VWidth: 2150
GlyphClass: 2
Flags: W
LayerCount: 2
Fore
SplineSet
95.5146 181.818 m 2,0,-1
 178.125 99.208 l 2,1,2
 185.905 91.4277 185.905 91.4277 185.959 86.6016 c 128,-1,3
 186.012 81.8584 186.012 81.8584 178.65 74.5674 c 2,4,-1
 92.0791 -12.0039 l 2,5,6
 83.5752 -20.1787 83.5752 -20.1787 78.209 -20.2334 c 0,7,8
 72.585 -20.2891 72.585 -20.2891 64.4248 -12.0576 c 2,9,-1
 -21.7285 74.0957 l 2,10,11
 -28.9473 80.9111 -28.9473 80.9111 -28.5977 86.5518 c 0,12,13
 -28.2197 92.6641 -28.2197 92.6641 -18.5254 102.357 c 2,14,-1
 61.8164 182.699 l 2,15,16
 71.1855 192.153 71.1855 192.153 78.2598 192.007 c 128,-1,17
 85.4756 191.858 85.4756 191.858 95.5146 181.818 c 2,0,-1
EndSplineSet
EndChar

StartChar: arabic_2dots
Encoding: 65537 -1 262
Width: 474
VWidth: 2150
GlyphClass: 2
Flags: W
LayerCount: 2
Fore
SplineSet
378.15 181.633 m 2,0,-1
 460.576 99.207 l 2,1,2
 468.355 91.4277 468.355 91.4277 468.409 86.6016 c 128,-1,3
 468.463 81.8584 468.463 81.8584 461.101 74.5674 c 2,4,-1
 375 -11.5322 l 2,5,6
 366.357 -20.1758 366.357 -20.1758 360.658 -20.2324 c 128,-1,7
 355.034 -20.2891 355.034 -20.2891 346.875 -12.0576 c 2,8,-1
 260.722 74.0957 l 2,9,10
 253.503 80.9121 253.503 80.9121 253.852 86.5518 c 0,11,12
 254.23 92.6631 254.23 92.6631 263.925 102.357 c 2,13,-1
 344.267 182.7 l 2,14,15
 353.635 192.153 353.635 192.153 360.711 192.006 c 128,-1,16
 367.927 191.857 367.927 191.857 378.15 181.633 c 2,0,-1
129.3 181.632 m 2,17,-1
 211.726 99.207 l 2,18,19
 219.506 91.4268 219.506 91.4268 219.56 86.6016 c 128,-1,20
 219.611 81.9287 219.611 81.9287 212.25 74.5674 c 2,21,-1
 126.151 -11.5322 l 2,22,23
 117.507 -20.1758 117.507 -20.1758 111.809 -20.2324 c 128,-1,24
 106.256 -20.2881 106.256 -20.2881 98.0244 -12.0576 c 2,25,-1
 11.501 74.4668 l 2,26,27
 4.69629 81.6152 4.69629 81.6152 5.00195 86.5527 c 0,28,29
 5.36035 92.3428 5.36035 92.3428 14.6006 101.884 c 2,30,-1
 95.3994 182.683 l 2,31,32
 104.869 192.152 104.869 192.152 111.86 192.006 c 0,33,34
 119.075 191.857 119.075 191.857 129.3 181.632 c 2,17,-1
EndSplineSet
EndChar

StartChar: arabic_3dots
Encoding: 65538 -1 263
Width: 477
VWidth: 2150
GlyphClass: 2
Flags: W
LayerCount: 2
Fore
SplineSet
254.499 371.776 m 2,0,-1
 337.637 288.638 l 2,1,2
 345.417 280.858 345.417 280.858 345.471 276.032 c 128,-1,3
 345.523 271.288 345.523 271.288 338.162 263.998 c 2,4,-1
 252.062 177.898 l 2,5,6
 243.419 169.255 243.419 169.255 237.721 169.198 c 128,-1,7
 232.096 169.142 232.096 169.142 223.937 177.373 c 2,8,-1
 137.783 263.525 l 2,9,10
 130.564 270.343 130.564 270.343 130.914 275.983 c 0,11,12
 131.293 282.095 131.293 282.095 140.986 291.788 c 2,13,-1
 221.312 372.112 l 2,14,15
 230.953 381.755 230.953 381.755 237.552 381.805 c 128,-1,16
 244.144 381.856 244.144 381.856 254.499 371.776 c 2,0,-1
382.351 169.032 m 2,17,-1
 464.775 86.6074 l 2,18,19
 472.556 78.8271 472.556 78.8271 472.609 74.002 c 128,-1,20
 472.66 69.3281 472.66 69.3281 465.3 61.9678 c 2,21,-1
 379.2 -24.1318 l 2,22,23
 370.557 -32.7754 370.557 -32.7754 364.858 -32.832 c 128,-1,24
 359.306 -32.8877 359.306 -32.8877 351.075 -24.6572 c 2,25,-1
 264.975 61.4424 l 2,26,27
 257.726 68.6914 257.726 68.6914 258.051 73.9521 c 0,28,29
 258.43 80.0625 258.43 80.0625 268.125 89.7568 c 2,30,-1
 348.449 170.082 l 2,31,32
 357.919 179.551 357.919 179.551 364.909 179.407 c 0,33,34
 372.125 179.258 372.125 179.258 382.351 169.032 c 2,17,-1
129.3 169.032 m 2,35,-1
 211.726 86.6074 l 2,36,37
 219.506 78.8262 219.506 78.8262 219.56 74.002 c 128,-1,38
 219.61 69.3281 219.61 69.3281 212.25 61.9678 c 2,39,-1
 126.151 -24.1318 l 2,40,41
 117.507 -32.7754 117.507 -32.7754 111.809 -32.832 c 128,-1,42
 106.256 -32.8877 106.256 -32.8877 98.0244 -24.6572 c 2,43,-1
 11.501 61.8662 l 2,44,45
 4.69629 69.0156 4.69629 69.0156 5.00195 73.9521 c 0,46,47
 5.38086 80.0635 5.38086 80.0635 15.0742 89.7568 c 2,48,-1
 95.3994 170.082 l 2,49,50
 104.868 179.551 104.868 179.551 111.859 179.407 c 0,51,52
 119.075 179.258 119.075 179.258 129.3 169.032 c 2,35,-1
EndSplineSet
EndChar

StartChar: arabic_3dots_a
Encoding: 65539 -1 264
Width: 476
VWidth: 2150
GlyphClass: 2
Flags: W
LayerCount: 2
Fore
SplineSet
248.947 -9.2959 m 6,0,-1
 331.688 -92.0371 l 6,1,2
 339.468 -99.8174 339.468 -99.8174 339.521 -104.644 c 132,-1,3
 339.574 -109.387 339.574 -109.387 332.214 -116.677 c 6,4,-1
 246.113 -202.777 l 6,5,6
 237.47 -211.421 237.47 -211.421 231.771 -211.478 c 132,-1,7
 226.146 -211.534 226.146 -211.534 217.986 -203.302 c 6,8,-1
 131.834 -117.149 l 6,9,10
 124.616 -110.333 124.616 -110.333 124.966 -104.692 c 4,11,12
 125.344 -98.5811 125.344 -98.5811 135.036 -88.8867 c 6,13,-1
 215.639 -8.28613 l 6,14,15
 225.419 1.00391 225.419 1.00391 232.056 0.756836 c 132,-1,16
 238.883 0.503906 238.883 0.503906 248.947 -9.2959 c 6,0,-1
381.154 190.179 m 2,17,-1
 463.727 107.607 l 2,18,19
 471.506 99.8281 471.506 99.8281 471.56 95.001 c 128,-1,20
 471.61 90.3281 471.61 90.3281 464.251 82.9678 c 2,21,-1
 378.151 -3.13281 l 2,22,23
 369.508 -11.7754 369.508 -11.7754 363.809 -11.833 c 128,-1,24
 358.255 -11.8887 358.255 -11.8887 350.023 -3.65723 c 2,25,-1
 263.871 82.4971 l 2,26,27
 256.676 89.6924 256.676 89.6924 257.002 94.9521 c 0,28,29
 257.38 101.063 257.38 101.063 267.074 110.757 c 2,30,-1
 347.416 191.099 l 2,31,32
 356.867 200.551 356.867 200.551 363.859 200.407 c 0,33,34
 371.075 200.258 371.075 200.258 381.154 190.179 c 2,17,-1
129.301 190.032 m 2,35,-1
 211.727 107.607 l 2,36,37
 219.506 99.8281 219.506 99.8281 219.56 95.001 c 128,-1,38
 219.61 90.3281 219.61 90.3281 212.251 82.9678 c 2,39,-1
 126.151 -3.13281 l 2,40,41
 117.508 -11.7754 117.508 -11.7754 111.809 -11.833 c 128,-1,42
 106.255 -11.8887 106.255 -11.8887 98.0244 -3.65723 c 2,43,-1
 11.8711 82.4961 l 2,44,45
 4.67676 89.6895 4.67676 89.6895 5.00195 94.9521 c 0,46,47
 5.37988 101.063 5.37988 101.063 15.0742 110.757 c 2,48,-1
 95.416 191.099 l 2,49,50
 104.868 200.551 104.868 200.551 111.859 200.407 c 0,51,52
 119.075 200.258 119.075 200.258 129.301 190.032 c 2,35,-1
EndSplineSet
EndChar

StartChar: uni066E.fina
Encoding: 65540 -1 265
Width: 1858
VWidth: 2384
GlyphClass: 2
Flags: W
AnchorPoint: "Anchor-10" 728.312 1137.65 basechar 0
AnchorPoint: "Anchor-7" 728.312 -241.908 basechar 0
LayerCount: 2
Fore
SplineSet
885.076 -19 m 0,0,1
 429.062 -23.1934 429.062 -23.1934 285.434 53.4639 c 0,2,3
 84.9697 159.06 84.9697 159.06 91.8682 479.387 c 0,4,5
 94.6602 610.401 94.6602 610.401 147.913 715.67 c 1,6,-1
 203.457 687.307 l 1,7,8
 191.538 633.311 191.538 633.311 186.014 582.971 c 0,9,10
 180.517 533.496 180.517 533.496 182.555 476.179 c 0,11,12
 191.584 229.062 191.584 229.062 548.812 176.764 c 0,13,14
 636.148 163.979 636.148 163.979 1005.43 164.081 c 0,15,16
 1236.77 164.145 1236.77 164.145 1385.88 248.402 c 0,17,18
 1463.91 292.493 1463.91 292.493 1520.77 353.784 c 0,19,20
 1590.5 428.969 1590.5 428.969 1625.75 564.85 c 1,21,-1
 1676.67 552.938 l 1,22,23
 1669.57 499.066 1669.57 499.066 1670.95 421.015 c 0,24,25
 1674.96 194.721 1674.96 194.721 1834.5 168.117 c 2,26,-1
 1856.67 164.42 l 1,27,-1
 1867.55 164.773 l 1,28,-1
 1867.55 -19.1709 l 1,29,-1
 1858.17 -19.3955 l 1,30,-1
 1854.72 -19.082 l 1,31,32
 1589.59 -31.8628 1589.59 -31.8628 1586.08 302.711 c 5,33,-1
 1582.32 292.235 l 6,34,35
 1550.42 203.363 1550.42 203.363 1425.77 118.278 c 0,36,37
 1226.96 -15.8564 1226.96 -15.8564 885.076 -19 c 0,0,1
EndSplineSet
EndChar

StartChar: uni06A1.fina
Encoding: 65543 -1 268
Width: 1981
VWidth: 2381
GlyphClass: 2
Flags: W
AnchorPoint: "Anchor-10" 528.682 1252.21 basechar 0
AnchorPoint: "Anchor-7" 647.773 -295.979 basechar 0
LayerCount: 2
Fore
SplineSet
1334.47 492.904 m 128,-1,1
 1334.47 426.826 1334.47 426.826 1386.71 376.017 c 128,-1,2
 1438.89 325.232 1438.89 325.232 1512.89 325.232 c 128,-1,3
 1586.87 325.232 1586.87 325.232 1639.07 376.016 c 128,-1,4
 1691.31 426.814 1691.31 426.814 1691.31 492.9 c 128,-1,5
 1691.31 558.918 1691.31 558.918 1639.23 615.604 c 0,6,7
 1586.93 672.542 1586.93 672.542 1512.89 672.542 c 128,-1,8
 1438.84 672.542 1438.84 672.542 1386.54 615.604 c 0,9,0
 1334.47 558.924 1334.47 558.924 1334.47 492.904 c 128,-1,1
1407.57 220.732 m 2,10,11
 1267.15 277.527 1267.15 277.527 1228.2 423.879 c 0,12,13
 1205.42 509.528 1205.42 509.528 1226.97 598.199 c 0,14,15
 1263.96 747.82 1263.96 747.82 1390.59 806.106 c 0,16,17
 1445.53 831.874 1445.53 831.874 1516.73 832.361 c 0,18,19
 1596.94 832.87 1596.94 832.87 1657.35 798.736 c 0,20,21
 1757.74 742.196 1757.74 742.196 1791.02 624.325 c 0,22,23
 1818.12 526.459 1818.12 526.459 1788.92 419.887 c 0,24,25
 1757.61 301.529 1757.61 301.529 1613.31 219.619 c 2,26,-1
 1609.86 217.661 l 1,27,-1
 1613.49 216.052 l 2,28,29
 1734.4 162.406 1734.4 162.406 1949.84 164.53 c 2,30,-1
 1991.05 164.937 l 5,31,-1
 1991.05 -19 l 1,32,-1
 1945.4 -19 l 2,33,34
 1671.66 -19 1671.66 -19 1503.76 97.7881 c 2,35,-1
 1499.57 100.698 l 1,36,-1
 1495.3 97.9023 l 2,37,38
 1352.43 4.33691 1352.43 4.33691 1155.99 -7.99902 c 2,39,-1
 969.939 -19.6836 l 1,40,41
 461.57 -39.6973 461.57 -39.6973 285.434 53.4639 c 0,42,43
 84.9697 159.06 84.9697 159.06 91.8682 479.387 c 0,44,45
 94.6602 610.401 94.6602 610.401 147.909 715.661 c 1,46,-1
 202.761 687.301 l 1,47,48
 193.187 639.761 193.187 639.761 186.017 583.001 c 0,49,50
 180.351 538.145 180.351 538.145 182.555 476.179 c 0,51,52
 191.584 229.062 191.584 229.062 548.812 176.764 c 0,53,54
 636.148 163.979 636.148 163.979 1005.45 164.081 c 1,55,-1
 1050.07 164.53 l 2,56,57
 1294.57 166.992 1294.57 166.992 1407.63 217.049 c 2,58,-1
 1411.95 218.961 l 1,59,-1
 1407.57 220.732 l 2,10,11
EndSplineSet
EndChar

StartChar: uni06A1.init
Encoding: 65544 -1 269
Width: 700
VWidth: 2401
GlyphClass: 2
Flags: W
AnchorPoint: "Anchor-10" 454.484 1312.5 basechar 0
AnchorPoint: "Anchor-7" 354.313 -239.581 basechar 0
LayerCount: 2
Fore
SplineSet
321.784 788.034 m 1,0,1
 207.974 785.713 207.974 785.713 182.295 640.421 c 0,2,3
 164.922 538.864 164.922 538.864 244.271 512.416 c 0,4,5
 355.15 475.456 355.15 475.456 499.898 523.736 c 2,6,-1
 501.238 524.184 l 1,7,-1
 501.266 525.595 l 2,8,9
 502.897 608.61 502.897 608.61 472.74 674.917 c 0,10,11
 421.636 789.039 421.636 789.039 321.784 788.034 c 1,0,1
608.761 331.26 m 0,12,13
 581.941 143.437 581.941 143.437 400.171 40.3779 c 0,14,15
 295.406 -19.0205 295.406 -19.0205 150.154 -19.0205 c 2,16,-1
 -11.6113 -19.0205 l 5,17,-1
 -11.6113 164.055 l 1,18,-1
 57.666 164.055 l 2,19,20
 259.828 164.055 259.828 164.055 300.696 176.409 c 0,21,22
 466.982 227.966 466.982 227.966 491.946 343.162 c 2,23,-1
 492.638 346.353 l 1,24,-1
 489.481 345.52 l 2,25,26
 409.358 324.373 409.358 324.373 305.219 334.314 c 1,27,28
 182.187 347.57 182.187 347.57 124.826 436.981 c 0,29,30
 73.7598 516.707 73.7598 516.707 86.2822 634.576 c 0,31,32
 104.961 821.729 104.961 821.729 205.605 918.997 c 0,33,34
 260.836 972.373 260.836 972.373 359.436 964.008 c 0,35,36
 430.588 957.611 430.588 957.611 500.932 878.559 c 0,37,38
 587.242 783.135 587.242 783.135 607.195 610.855 c 0,39,40
 625.823 450.021 625.823 450.021 608.761 331.26 c 0,12,13
EndSplineSet
EndChar

StartChar: uni06A1.medi
Encoding: 65545 -1 270
Width: 1014
VWidth: 2381
GlyphClass: 2
Flags: W
AnchorPoint: "Anchor-10" 534.592 1074.83 basechar 0
AnchorPoint: "Anchor-7" 534.592 -235.164 basechar 0
LayerCount: 2
Fore
SplineSet
323.662 494.431 m 128,-1,1
 323.662 428.347 323.662 428.347 375.894 377.542 c 128,-1,2
 428.104 326.759 428.104 326.759 502.084 326.759 c 128,-1,3
 576.062 326.759 576.062 326.759 628.273 377.541 c 128,-1,4
 680.504 428.342 680.504 428.342 680.504 494.426 c 128,-1,5
 680.504 560.441 680.504 560.441 628.435 617.129 c 0,6,7
 576.131 674.067 576.131 674.067 502.084 674.067 c 128,-1,8
 428.036 674.067 428.036 674.067 375.732 617.129 c 0,9,0
 323.662 560.45 323.662 560.45 323.662 494.431 c 128,-1,1
646.54 800.27 m 0,10,11
 746.935 743.718 746.935 743.718 780.223 625.853 c 0,12,13
 807.324 527.995 807.324 527.995 778.117 421.411 c 0,14,15
 746.809 303.086 746.809 303.086 602.506 221.146 c 2,16,-1
 599.056 219.187 l 1,17,-1
 602.682 217.578 l 2,18,19
 727.85 162.036 727.85 162.036 979.57 164.271 c 2,20,-1
 1025.63 164.68 l 1,21,-1
 1025.63 -19.2656 l 1,22,-1
 902.593 -19.8047 l 2,23,24
 669.291 -20.8269 669.291 -20.8269 498.838 97.5293 c 2,25,-1
 494.649 100.438 l 1,26,-1
 490.381 97.6445 l 2,27,28
 310.94 -19.8047 310.94 -19.8047 91.1963 -19.8047 c 2,29,-1
 -11.4834 -19.8047 l 1,30,-1
 -11.4834 164.271 l 1,31,-1
 45.1279 164.271 l 2,32,33
 274.307 164.271 274.307 164.271 396.823 218.574 c 2,34,-1
 401.139 220.487 l 1,35,-1
 396.763 222.257 l 2,36,37
 256.347 279.053 256.347 279.053 217.398 425.405 c 0,38,39
 194.604 511.062 194.604 511.062 216.171 599.725 c 0,40,41
 253.152 749.347 253.152 749.347 379.79 807.632 c 0,42,43
 434.732 833.4 434.732 833.4 505.927 833.887 c 0,44,45
 586.133 834.396 586.133 834.396 646.54 800.27 c 0,10,11
EndSplineSet
EndChar

StartChar: uni066F.fina
Encoding: 65546 -1 271
Width: 1452
VWidth: 2401
GlyphClass: 2
Flags: W
AnchorPoint: "Anchor-10" 343.685 976.408 basechar 0
AnchorPoint: "Anchor-7" 436.781 -825.338 basechar 0
LayerCount: 2
Fore
SplineSet
1050.49 407.722 m 0,0,1
 931.771 405.301 931.771 405.301 910.993 260.049 c 0,2,3
 897.976 166.621 897.976 166.621 976.838 158.859 c 0,4,5
 1117.13 143.676 1117.13 143.676 1228.28 161.195 c 2,6,-1
 1229.94 161.456 l 1,7,-1
 1229.97 163.131 l 2,8,9
 1231.57 243.503 1231.57 243.503 1206.71 301.51 c 0,10,11
 1160.36 409.684 1160.36 409.684 1050.49 407.722 c 0,0,1
1333.52 164.441 m 1,12,-1
 1462.78 164.837 l 1,13,-1
 1462.78 -19.0908 l 1,14,-1
 1332.3 -19.0908 l 1,15,-1
 1332.34 -21.1299 l 2,16,17
 1333.45 -77.6729 1333.45 -77.6729 1322.37 -131.76 c 0,18,19
 1234.02 -562.744 1234.02 -562.744 661.884 -574.374 c 0,20,21
 306.296 -581.256 306.296 -581.256 161.686 -379.818 c 0,22,23
 48.1426 -222.727 48.1426 -222.727 110.018 63.6689 c 0,24,25
 125.564 135.166 125.564 135.166 161.153 237.772 c 0,26,27
 199.055 347.514 199.055 347.514 206.325 366.81 c 1,28,-1
 283.665 321.078 l 1,29,30
 159.607 7.21191 159.607 7.21191 235.359 -185.095 c 0,31,32
 318.428 -395.986 318.428 -395.986 645.303 -400.037 c 0,33,34
 1179.15 -406.651 1179.15 -406.651 1220.69 -19.0879 c 0,35,36
 1220.81 -17.9111 1220.81 -17.9111 1220.94 -16.7344 c 1,37,-1
 1218.58 -16.8789 l 2,38,39
 1183.85 -18.999 1183.85 -18.999 1039.95 -17.4883 c 1,40,41
 899.959 -15.0156 899.959 -15.0156 853.534 56.6719 c 0,42,43
 802.467 136.398 802.467 136.398 814.989 254.253 c 0,44,45
 835.617 448.403 835.617 448.403 934.278 538.65 c 0,46,47
 1001.28 600.332 1001.28 600.332 1086.06 593.146 c 0,48,49
 1155.29 587.469 1155.29 587.469 1219.19 522.338 c 0,50,51
 1315.32 424.356 1315.32 424.356 1333.38 166.308 c 2,52,-1
 1333.52 164.441 l 1,12,-1
EndSplineSet
EndChar

StartChar: arabic_ring
Encoding: 65549 -1 274
Width: 459
VWidth: 2150
GlyphClass: 2
Flags: W
LayerCount: 2
Fore
SplineSet
333.8 231 m 0,0,1
 333.8 273.828 333.8 273.828 303.827 303.802 c 0,2,3
 273.849 334.85 273.849 334.85 229.95 334.85 c 128,-1,4
 186.072 334.85 186.072 334.85 156.086 304.864 c 128,-1,5
 126.1 274.879 126.1 274.879 126.1 231 c 0,6,7
 126.1 186.072 126.1 186.072 156.098 156.073 c 0,8,9
 186.093 127.15 186.093 127.15 229.95 127.15 c 128,-1,10
 273.829 127.15 273.829 127.15 303.814 157.136 c 128,-1,11
 333.8 187.122 333.8 187.122 333.8 231 c 0,0,1
457.9 231 m 128,-1,13
 457.9 135.22 457.9 135.22 392.336 68.6144 c 0,14,15
 325.723 2 325.723 2 229.95 2 c 128,-1,16
 134.188 2 134.188 2 68.6144 68.6144 c 0,17,18
 2.00001 135.229 2.00001 135.229 2 231 c 128,-1,19
 2 326.773 2 326.773 68.6144 393.386 c 0,20,21
 134.177 458.95 134.177 458.95 229.95 458.95 c 128,-1,22
 325.73 458.95 325.73 458.95 392.336 393.386 c 1,23,12
 457.9 326.78 457.9 326.78 457.9 231 c 128,-1,13
EndSplineSet
EndChar

StartChar: arabic_gaf_bar
Encoding: 65550 -1 275
Width: 707
VWidth: 2150
GlyphClass: 2
Flags: W
LayerCount: 2
Fore
SplineSet
650.409 1731.59 m 1,0,-1
 3.50066 1391.15 l 1,1,-1
 50.9861 1531.39 l 1,2,-1
 695.829 1867.04 l 1,3,-1
 650.409 1731.59 l 1,0,-1
EndSplineSet
EndChar

StartChar: uni066E.init.math
Encoding: 65560 -1 285
Width: 954
VWidth: 2386
GlyphClass: 2
Flags: W
LayerCount: 2
Fore
SplineSet
615.932 65.3022 m 0,0,1
 536.194 -29.1641 536.194 -29.1641 360.16 -29.1641 c 2,2,-1
 -22.7148 -29.1641 l 1,3,-1
 -22.7148 145.896 l 1,4,-1
 294.66 145.896 l 2,5,6
 421.69 145.896 421.69 145.896 480.541 204.749 c 0,7,8
 545.35 269.559 545.35 269.559 545.35 404.921 c 2,9,-1
 545.35 641.314 l 1,10,-1
 720.408 641.314 l 1,11,-1
 720.408 404.921 l 2,12,13
 720.408 190.851 720.408 190.851 615.932 65.3022 c 0,0,1
EndSplineSet
EndChar

StartChar: guillemotleft
Encoding: 171 171 286
Width: 1044
VWidth: 2150
Flags: W
LayerCount: 2
Fore
SplineSet
494.114 975.653 m 1,0,-1
 469.044 931.57 l 2,1,2
 406.658 821.877 406.658 821.877 375.545 715.038 c 0,3,4
 343.508 605.001 343.508 605.001 343.508 492.048 c 128,-1,5
 343.508 379.075 343.508 379.075 375.557 268.263 c 0,6,7
 406.651 160.752 406.651 160.752 469.001 51.564 c 2,8,-1
 494.198 7.43652 l 1,9,-1
 358.013 7.43652 l 1,10,-1
 349.322 21.1267 l 2,11,12
 273.146 141.113 273.146 141.113 235.074 257.116 c 0,13,14
 196.308 375.262 196.308 375.262 196.308 492.048 c 0,15,16
 196.308 608.384 196.308 608.384 235.083 726.001 c 0,17,18
 273.163 841.496 273.163 841.496 349.299 961.916 c 2,19,-1
 357.986 975.653 l 1,20,-1
 494.114 975.653 l 1,0,-1
888.914 975.653 m 1,21,-1
 863.844 931.57 l 2,22,23
 801.458 821.877 801.458 821.877 770.345 715.038 c 0,24,25
 738.308 605.001 738.308 605.001 738.308 492.048 c 128,-1,26
 738.308 379.072 738.308 379.072 770.356 268.263 c 0,27,28
 801.45 160.752 801.45 160.752 863.801 51.564 c 2,29,-1
 888.997 7.43652 l 1,30,-1
 752.813 7.43652 l 1,31,-1
 744.122 21.1267 l 2,32,33
 667.968 141.07 667.968 141.07 629.874 257.116 c 0,34,35
 591.107 375.266 591.107 375.266 591.107 492.048 c 0,36,37
 591.107 608.386 591.107 608.386 629.883 726.001 c 0,38,39
 667.946 841.45 667.946 841.45 744.1 961.916 c 2,40,-1
 752.786 975.653 l 1,41,-1
 888.914 975.653 l 1,21,-1
EndSplineSet
EndChar

StartChar: guillemotright
Encoding: 187 187 287
Width: 1044
VWidth: 2150
Flags: W
LayerCount: 2
Fore
SplineSet
550.636 975.653 m 1,0,-1
 686.764 975.653 l 1,1,-1
 695.451 961.916 l 2,2,3
 771.611 841.451 771.611 841.451 809.667 726.001 c 0,4,5
 848.442 608.39 848.442 608.39 848.442 492.048 c 0,6,7
 848.442 375.262 848.442 375.262 809.676 257.116 c 0,8,9
 771.684 141.381 771.684 141.381 695.626 21.4396 c 2,10,-1
 686.737 7.43652 l 1,11,-1
 550.552 7.43652 l 1,12,-1
 575.749 51.564 l 2,13,14
 638.094 160.752 638.094 160.752 669.193 268.263 c 0,15,16
 701.242 379.075 701.242 379.075 701.242 492.048 c 128,-1,17
 701.242 605.001 701.242 605.001 669.205 715.038 c 0,18,19
 638.1 821.877 638.1 821.877 575.706 931.57 c 2,20,-1
 550.636 975.653 l 1,0,-1
155.836 975.653 m 1,21,-1
 291.964 975.653 l 1,22,-1
 300.65 961.916 l 2,23,24
 376.792 841.487 376.792 841.487 414.867 726.001 c 0,25,26
 453.643 608.386 453.643 608.386 453.643 492.048 c 0,27,28
 453.643 375.266 453.643 375.266 414.876 257.116 c 0,29,30
 376.796 141.114 376.796 141.114 300.628 21.1266 c 2,31,-1
 291.937 7.43652 l 1,32,-1
 155.753 7.43652 l 1,33,-1
 180.949 51.564 l 2,34,35
 243.294 160.752 243.294 160.752 274.394 268.263 c 0,36,37
 306.442 379.072 306.442 379.072 306.442 492.048 c 128,-1,38
 306.442 605.001 306.442 605.001 274.405 715.038 c 0,39,40
 243.3 821.877 243.3 821.877 180.906 931.57 c 2,41,-1
 155.836 975.653 l 1,21,-1
EndSplineSet
EndChar

StartChar: NameMe.337
Encoding: 65562 -1 294
Width: 645
VWidth: 2290
Flags: W
LayerCount: 2
Fore
SplineSet
285.451 100.537 m 2,0,1
 197.216 2 197.216 2 84.7354 2 c 2,2,-1
 -19.4209 2 l 1,3,-1
 -19.4209 175.429 l 1,4,-1
 22.9424 175.429 l 2,5,6
 134.898 175.429 134.898 175.429 197.155 231.236 c 0,7,8
 267.741 294.595 267.741 294.595 261.652 420.422 c 2,9,-1
 220.768 1264.99 l 1,10,-1
 381.429 1336.68 l 1,11,-1
 381.429 420.325 l 2,12,13
 381.429 294.351 381.429 294.351 413.874 247.712 c 0,14,15
 464.159 175.429 464.159 175.429 624.341 175.429 c 2,16,-1
 665.653 175.429 l 1,17,-1
 665.653 2 l 1,18,-1
 562.548 2 l 2,19,20
 407.216 2 407.216 2 316.459 100.786 c 2,21,-1
 300.869 117.754 l 1,22,-1
 285.451 100.537 l 2,0,1
EndSplineSet
EndChar

StartChar: NameMe.338
Encoding: 65563 -1 295
Width: 558
VWidth: 2290
Flags: W
LayerCount: 2
Fore
SplineSet
410.828 458.524 m 2,0,1
 410.828 203.697 410.828 203.697 302.454 96.0296 c 1,2,3
 204.243 2 204.243 2 57.4355 2 c 2,4,-1
 -19.4209 2 l 1,5,-1
 -19.4209 175.429 l 1,6,-1
 13.4922 175.429 l 2,7,8
 160.56 175.429 160.56 175.429 228.317 260.089 c 0,9,10
 294.599 342.922 294.599 342.922 288.952 472.094 c 2,11,-1
 249.113 1383.7 l 1,12,-1
 410.828 1455.41 l 1,13,-1
 410.828 458.524 l 2,0,1
EndSplineSet
EndChar

StartChar: exclam
Encoding: 33 33 298
Width: 826
VWidth: 0
Flags: W
LayerCount: 2
Fore
SplineSet
513.416 193.914 m 2,0,-1
 513.416 22.7432 l 2,1,2
 513.416 9.91604 513.416 9.91604 510.328 5.59371 c 0,3,4
 507.101 2 507.101 2 499.854 2 c 2,5,-1
 329.881 2 l 2,6,7
 319.88 2 319.88 2 316.347 5.93727 c 128,-1,8
 312.729 9.96894 312.729 9.96894 312.729 22.7432 c 2,9,-1
 312.729 192.717 l 2,10,11
 312.729 203.993 312.729 203.993 316.151 207.545 c 128,-1,12
 319.543 211.066 319.543 211.066 329.881 211.066 c 2,13,-1
 496.264 211.066 l 2,14,15
 506.773 211.066 506.773 211.066 510.094 207.744 c 128,-1,16
 513.416 204.423 513.416 204.423 513.416 193.914 c 2,0,-1
318.991 1472.2 m 1,17,-1
 507.061 1472.2 l 1,18,-1
 487.188 448.25 l 1,19,-1
 339.91 448.25 l 1,20,-1
 318.991 1472.2 l 1,17,-1
EndSplineSet
EndChar

StartChar: period
Encoding: 46 46 299
Width: 661
VWidth: 2156
Flags: W
LayerCount: 2
Fore
SplineSet
442.866 193.914 m 2,0,-1
 442.866 22.7432 l 2,1,2
 442.866 9.49236 442.866 9.49236 439.803 5.64127 c 0,3,4
 436.907 2 436.907 2 429.305 2 c 6,5,-1
 259.331 2 l 2,6,7
 249.331 2 249.331 2 245.797 5.93745 c 128,-1,8
 242.179 9.96905 242.179 9.96905 242.179 22.7432 c 2,9,-1
 242.179 192.717 l 2,10,11
 242.179 203.993 242.179 203.993 245.601 207.545 c 128,-1,12
 248.993 211.066 248.993 211.066 259.331 211.066 c 2,13,-1
 425.714 211.066 l 2,14,15
 436.222 211.066 436.222 211.066 439.544 207.744 c 128,-1,16
 442.866 204.422 442.866 204.422 442.866 193.914 c 2,0,-1
EndSplineSet
EndChar

StartChar: colon
Encoding: 58 58 300
Width: 661
VWidth: 2156
Flags: W
LayerCount: 2
Fore
SplineSet
442.866 756.714 m 2,0,-1
 442.866 585.543 l 2,1,2
 442.866 572.293 442.866 572.293 439.803 568.442 c 0,3,4
 436.907 564.8 436.907 564.8 429.305 564.8 c 2,5,-1
 259.331 564.8 l 2,6,7
 249.331 564.8 249.331 564.8 245.797 568.738 c 128,-1,8
 242.179 572.769 242.179 572.769 242.179 585.543 c 2,9,-1
 242.179 755.517 l 2,10,11
 242.179 766.793 242.179 766.793 245.601 770.345 c 128,-1,12
 248.993 773.866 248.993 773.866 259.331 773.866 c 2,13,-1
 425.714 773.866 l 2,14,15
 436.223 773.866 436.223 773.866 439.544 770.544 c 128,-1,16
 442.866 767.222 442.866 767.222 442.866 756.714 c 2,0,-1
442.866 193.914 m 2,17,-1
 442.866 22.7432 l 2,18,19
 442.866 9.49236 442.866 9.49236 439.803 5.64127 c 0,20,21
 436.907 2 436.907 2 429.305 2 c 2,22,-1
 259.331 2 l 2,23,24
 249.331 2 249.331 2 245.797 5.93745 c 128,-1,25
 242.179 9.96905 242.179 9.96905 242.179 22.7432 c 2,26,-1
 242.179 192.717 l 2,27,28
 242.179 203.993 242.179 203.993 245.601 207.545 c 128,-1,29
 248.993 211.066 248.993 211.066 259.331 211.066 c 2,30,-1
 425.714 211.066 l 2,31,32
 436.222 211.066 436.222 211.066 439.544 207.744 c 128,-1,33
 442.866 204.422 442.866 204.422 442.866 193.914 c 2,17,-1
EndSplineSet
EndChar
